0
SECTION
2
HEADER
9
$ACADVER
1
AC1008
9
$UCSORG
10
0.0
20
0.0
30
0.0
9
$UCSXDIR
10
1.0
20
0.0
30
0.0
9
$TILEMODE
70
1
9
$UCSYDIR
10
0.0
20
1.0
30
0.0
9
$EXTMIN
10
-33.772327
20
-27.181143
30
-0.000043
9
$EXTMAX
10
95.688416
20
27.181171
30
177.631653
0
ENDSEC
0
SECTION
2
TABLES
0
TABLE
2
LTYPE
70
1
0
LTYPE
2
CONTINUOUS
70
64
3
Solid line
72
65
73
0
40
0.0
0
ENDTAB
0
TABLE
2
LAYER
70
1
0
LAYER
2
MICR
70
0
62
171
6
CONTINUOUS
0
ENDTAB
0
TABLE
2
STYLE
70
1
0
STYLE
2
STANDARD
70
0
40
0.0
41
1.0
50
0.0
71
0
42
0.2
3
txt
4

0
ENDTAB
0
TABLE
2
UCS
70
0
0
ENDTAB
0
ENDSEC
0
SECTION
2
ENTITIES
0
POLYLINE
8
MICR
66
1
70
64
71
1054
72
2032
62
171
0
VERTEX
8
MICR
10
0.888912
20
-0.315181
30
13.883217
70
192
0
VERTEX
8
MICR
10
25.000000
20
-0.315184
30
1.883217
70
192
0
VERTEX
8
MICR
10
25.000000
20
-0.315184
30
3.883217
70
192
0
VERTEX
8
MICR
10
0.888912
20
-0.315180
30
18.883217
70
192
0
VERTEX
8
MICR
10
0.888912
20
0.322319
30
13.883217
70
192
0
VERTEX
8
MICR
10
25.000000
20
0.322316
30
1.883217
70
192
0
VERTEX
8
MICR
10
25.000000
20
0.322316
30
3.883217
70
192
0
VERTEX
8
MICR
10
0.888912
20
0.322320
30
18.883217
70
192
0
VERTEX
8
MICR
10
25.960756
20
0.070827
30
0.837570
70
192
0
VERTEX
8
MICR
10
25.830050
20
0.558632
30
0.837570
70
192
0
VERTEX
8
MICR
10
25.830050
20
0.558633
30
5.983749
70
192
0
VERTEX
8
MICR
10
25.960756
20
0.070828
30
5.983749
70
192
0
VERTEX
8
MICR
10
25.472952
20
0.915730
30
0.837570
70
192
0
VERTEX
8
MICR
10
25.472952
20
0.915731
30
5.983749
70
192
0
VERTEX
8
MICR
10
24.985146
20
1.046437
30
0.837570
70
192
0
VERTEX
8
MICR
10
24.985146
20
1.046438
30
5.983749
70
192
0
VERTEX
8
MICR
10
24.497341
20
0.915730
30
0.837570
70
192
0
VERTEX
8
MICR
10
24.497341
20
0.915731
30
5.983749
70
192
0
VERTEX
8
MICR
10
24.140244
20
0.558632
30
0.837570
70
192
0
VERTEX
8
MICR
10
24.140244
20
0.558633
30
5.983749
70
192
0
VERTEX
8
MICR
10
24.009537
20
0.070827
30
0.837570
70
192
0
VERTEX
8
MICR
10
24.009537
20
0.070828
30
5.983749
70
192
0
VERTEX
8
MICR
10
24.140244
20
-0.416978
30
0.837570
70
192
0
VERTEX
8
MICR
10
24.140244
20
-0.416976
30
5.983749
70
192
0
VERTEX
8
MICR
10
24.497341
20
-0.774076
30
0.837570
70
192
0
VERTEX
8
MICR
10
24.497341
20
-0.774074
30
5.983749
70
192
0
VERTEX
8
MICR
10
24.985146
20
-0.904783
30
0.837570
70
192
0
VERTEX
8
MICR
10
24.985146
20
-0.904782
30
5.983749
70
192
0
VERTEX
8
MICR
10
25.472950
20
-0.774076
30
0.837570
70
192
0
VERTEX
8
MICR
10
25.472950
20
-0.774075
30
5.983749
70
192
0
VERTEX
8
MICR
10
25.830050
20
-0.416979
30
0.837570
70
192
0
VERTEX
8
MICR
10
25.830050
20
-0.416977
30
5.983749
70
192
0
VERTEX
8
MICR
10
24.985147
20
0.070827
30
-0.000038
70
192
0
VERTEX
8
MICR
10
24.985146
20
0.070828
30
6.183746
70
192
0
VERTEX
8
MICR
10
27.181143
20
0.070827
30
0.465294
70
192
0
VERTEX
8
MICR
10
26.886934
20
1.168825
30
0.465294
70
192
0
VERTEX
8
MICR
10
26.083145
20
1.972615
30
0.465294
70
192
0
VERTEX
8
MICR
10
24.985146
20
2.266823
30
0.465293
70
192
0
VERTEX
8
MICR
10
23.887150
20
1.972615
30
0.465294
70
192
0
VERTEX
8
MICR
10
23.083357
20
1.168825
30
0.465294
70
192
0
VERTEX
8
MICR
10
22.789150
20
0.070827
30
0.465294
70
192
0
VERTEX
8
MICR
10
23.083357
20
-1.027171
30
0.465294
70
192
0
VERTEX
8
MICR
10
23.887150
20
-1.830961
30
0.465294
70
192
0
VERTEX
8
MICR
10
24.985146
20
-2.125169
30
0.465294
70
192
0
VERTEX
8
MICR
10
26.083143
20
-1.830962
30
0.465294
70
192
0
VERTEX
8
MICR
10
26.886934
20
-1.027173
30
0.465294
70
192
0
VERTEX
8
MICR
10
27.181143
20
0.070827
30
-0.000038
70
192
0
VERTEX
8
MICR
10
26.886934
20
1.168825
30
-0.000038
70
192
0
VERTEX
8
MICR
10
26.083145
20
1.972615
30
-0.000038
70
192
0
VERTEX
8
MICR
10
24.985147
20
2.266823
30
-0.000039
70
192
0
VERTEX
8
MICR
10
23.887150
20
1.972615
30
-0.000038
70
192
0
VERTEX
8
MICR
10
23.083357
20
1.168825
30
-0.000038
70
192
0
VERTEX
8
MICR
10
22.789152
20
0.070827
30
-0.000038
70
192
0
VERTEX
8
MICR
10
23.083357
20
-1.027171
30
-0.000038
70
192
0
VERTEX
8
MICR
10
23.887150
20
-1.830961
30
-0.000038
70
192
0
VERTEX
8
MICR
10
24.985146
20
-2.125169
30
-0.000038
70
192
0
VERTEX
8
MICR
10
26.083143
20
-1.830962
30
-0.000038
70
192
0
VERTEX
8
MICR
10
26.886934
20
-1.027173
30
-0.000038
70
192
0
VERTEX
8
MICR
10
25.650734
20
0.455106
30
6.183746
70
192
0
VERTEX
8
MICR
10
25.753700
20
0.070828
30
6.183746
70
192
0
VERTEX
8
MICR
10
25.369423
20
0.736416
30
6.183746
70
192
0
VERTEX
8
MICR
10
24.985146
20
0.839383
30
6.183746
70
192
0
VERTEX
8
MICR
10
24.600868
20
0.736416
30
6.183746
70
192
0
VERTEX
8
MICR
10
24.319559
20
0.455106
30
6.183746
70
192
0
VERTEX
8
MICR
10
24.216591
20
0.070828
30
6.183746
70
192
0
VERTEX
8
MICR
10
24.319559
20
-0.313449
30
6.183746
70
192
0
VERTEX
8
MICR
10
24.600870
20
-0.594759
30
6.183746
70
192
0
VERTEX
8
MICR
10
24.985146
20
-0.697726
30
6.183746
70
192
0
VERTEX
8
MICR
10
25.369423
20
-0.594760
30
6.183746
70
192
0
VERTEX
8
MICR
10
25.650734
20
-0.313449
30
6.183746
70
192
0
VERTEX
8
MICR
10
-0.888912
20
-0.315181
30
13.883217
70
192
0
VERTEX
8
MICR
10
-25.000000
20
-0.315184
30
1.883217
70
192
0
VERTEX
8
MICR
10
-25.000000
20
-0.315184
30
3.883217
70
192
0
VERTEX
8
MICR
10
-0.888912
20
-0.315180
30
18.883217
70
192
0
VERTEX
8
MICR
10
-0.888912
20
0.322319
30
13.883217
70
192
0
VERTEX
8
MICR
10
-25.000000
20
0.322316
30
1.883217
70
192
0
VERTEX
8
MICR
10
-25.000000
20
0.322316
30
3.883217
70
192
0
VERTEX
8
MICR
10
-0.888912
20
0.322320
30
18.883217
70
192
0
VERTEX
8
MICR
10
-25.960758
20
0.070827
30
0.837570
70
192
0
VERTEX
8
MICR
10
-25.830048
20
0.558632
30
0.837570
70
192
0
VERTEX
8
MICR
10
-25.830048
20
0.558633
30
5.983749
70
192
0
VERTEX
8
MICR
10
-25.960758
20
0.070828
30
5.983749
70
192
0
VERTEX
8
MICR
10
-25.472950
20
0.915730
30
0.837570
70
192
0
VERTEX
8
MICR
10
-25.472950
20
0.915731
30
5.983749
70
192
0
VERTEX
8
MICR
10
-24.985146
20
1.046437
30
0.837570
70
192
0
VERTEX
8
MICR
10
-24.985146
20
1.046438
30
5.983749
70
192
0
VERTEX
8
MICR
10
-24.497341
20
0.915730
30
0.837570
70
192
0
VERTEX
8
MICR
10
-24.497341
20
0.915731
30
5.983749
70
192
0
VERTEX
8
MICR
10
-24.140244
20
0.558632
30
0.837570
70
192
0
VERTEX
8
MICR
10
-24.140244
20
0.558633
30
5.983749
70
192
0
VERTEX
8
MICR
10
-24.009537
20
0.070827
30
0.837570
70
192
0
VERTEX
8
MICR
10
-24.009537
20
0.070828
30
5.983749
70
192
0
VERTEX
8
MICR
10
-24.140244
20
-0.416978
30
0.837570
70
192
0
VERTEX
8
MICR
10
-24.140244
20
-0.416976
30
5.983749
70
192
0
VERTEX
8
MICR
10
-24.497341
20
-0.774076
30
0.837570
70
192
0
VERTEX
8
MICR
10
-24.497341
20
-0.774074
30
5.983749
70
192
0
VERTEX
8
MICR
10
-24.985146
20
-0.904783
30
0.837570
70
192
0
VERTEX
8
MICR
10
-24.985146
20
-0.904782
30
5.983749
70
192
0
VERTEX
8
MICR
10
-25.472950
20
-0.774076
30
0.837570
70
192
0
VERTEX
8
MICR
10
-25.472950
20
-0.774075
30
5.983749
70
192
0
VERTEX
8
MICR
10
-25.830048
20
-0.416979
30
0.837570
70
192
0
VERTEX
8
MICR
10
-25.830048
20
-0.416977
30
5.983749
70
192
0
VERTEX
8
MICR
10
-24.985146
20
0.070827
30
-0.000038
70
192
0
VERTEX
8
MICR
10
-24.985146
20
0.070828
30
6.183746
70
192
0
VERTEX
8
MICR
10
-27.181141
20
0.070827
30
0.465294
70
192
0
VERTEX
8
MICR
10
-26.886936
20
1.168825
30
0.465294
70
192
0
VERTEX
8
MICR
10
-26.083145
20
1.972615
30
0.465294
70
192
0
VERTEX
8
MICR
10
-24.985146
20
2.266823
30
0.465293
70
192
0
VERTEX
8
MICR
10
-23.887150
20
1.972615
30
0.465294
70
192
0
VERTEX
8
MICR
10
-23.083355
20
1.168825
30
0.465294
70
192
0
VERTEX
8
MICR
10
-22.789150
20
0.070827
30
0.465294
70
192
0
VERTEX
8
MICR
10
-23.083355
20
-1.027171
30
0.465294
70
192
0
VERTEX
8
MICR
10
-23.887150
20
-1.830961
30
0.465294
70
192
0
VERTEX
8
MICR
10
-24.985146
20
-2.125169
30
0.465294
70
192
0
VERTEX
8
MICR
10
-26.083141
20
-1.830962
30
0.465294
70
192
0
VERTEX
8
MICR
10
-26.886936
20
-1.027173
30
0.465294
70
192
0
VERTEX
8
MICR
10
-27.181141
20
0.070827
30
-0.000038
70
192
0
VERTEX
8
MICR
10
-26.886936
20
1.168825
30
-0.000038
70
192
0
VERTEX
8
MICR
10
-26.083145
20
1.972615
30
-0.000038
70
192
0
VERTEX
8
MICR
10
-24.985146
20
2.266823
30
-0.000039
70
192
0
VERTEX
8
MICR
10
-23.887150
20
1.972615
30
-0.000038
70
192
0
VERTEX
8
MICR
10
-23.083355
20
1.168825
30
-0.000038
70
192
0
VERTEX
8
MICR
10
-22.789150
20
0.070827
30
-0.000038
70
192
0
VERTEX
8
MICR
10
-23.083355
20
-1.027171
30
-0.000038
70
192
0
VERTEX
8
MICR
10
-23.887150
20
-1.830961
30
-0.000038
70
192
0
VERTEX
8
MICR
10
-24.985146
20
-2.125169
30
-0.000038
70
192
0
VERTEX
8
MICR
10
-26.083141
20
-1.830962
30
-0.000038
70
192
0
VERTEX
8
MICR
10
-26.886936
20
-1.027173
30
-0.000038
70
192
0
VERTEX
8
MICR
10
-25.650734
20
0.455106
30
6.183746
70
192
0
VERTEX
8
MICR
10
-25.753700
20
0.070828
30
6.183746
70
192
0
VERTEX
8
MICR
10
-25.369423
20
0.736416
30
6.183746
70
192
0
VERTEX
8
MICR
10
-24.985146
20
0.839383
30
6.183746
70
192
0
VERTEX
8
MICR
10
-24.600868
20
0.736416
30
6.183746
70
192
0
VERTEX
8
MICR
10
-24.319557
20
0.455106
30
6.183746
70
192
0
VERTEX
8
MICR
10
-24.216591
20
0.070828
30
6.183746
70
192
0
VERTEX
8
MICR
10
-24.319557
20
-0.313449
30
6.183746
70
192
0
VERTEX
8
MICR
10
-24.600868
20
-0.594759
30
6.183746
70
192
0
VERTEX
8
MICR
10
-24.985146
20
-0.697726
30
6.183746
70
192
0
VERTEX
8
MICR
10
-25.369423
20
-0.594760
30
6.183746
70
192
0
VERTEX
8
MICR
10
-25.650734
20
-0.313449
30
6.183746
70
192
0
VERTEX
8
MICR
10
0.315180
20
0.888912
30
13.883217
70
192
0
VERTEX
8
MICR
10
0.315182
20
24.999998
30
1.883213
70
192
0
VERTEX
8
MICR
10
0.315182
20
24.999998
30
3.883213
70
192
0
VERTEX
8
MICR
10
0.315180
20
0.888912
30
18.883217
70
192
0
VERTEX
8
MICR
10
-0.322319
20
0.888912
30
13.883217
70
192
0
VERTEX
8
MICR
10
-0.322317
20
24.999998
30
1.883213
70
192
0
VERTEX
8
MICR
10
-0.322317
20
24.999998
30
3.883213
70
192
0
VERTEX
8
MICR
10
-0.322321
20
0.888912
30
18.883217
70
192
0
VERTEX
8
MICR
10
-0.070829
20
25.960754
30
0.837566
70
192
0
VERTEX
8
MICR
10
-0.558634
20
25.830048
30
0.837566
70
192
0
VERTEX
8
MICR
10
-0.558634
20
25.830050
30
5.983745
70
192
0
VERTEX
8
MICR
10
-0.070829
20
25.960756
30
5.983745
70
192
0
VERTEX
8
MICR
10
-0.915733
20
25.472950
30
0.837566
70
192
0
VERTEX
8
MICR
10
-0.915733
20
25.472952
30
5.983745
70
192
0
VERTEX
8
MICR
10
-1.046440
20
24.985146
30
0.837566
70
192
0
VERTEX
8
MICR
10
-1.046440
20
24.985146
30
5.983745
70
192
0
VERTEX
8
MICR
10
-0.915733
20
24.497339
30
0.837566
70
192
0
VERTEX
8
MICR
10
-0.915733
20
24.497341
30
5.983745
70
192
0
VERTEX
8
MICR
10
-0.558634
20
24.140242
30
0.837566
70
192
0
VERTEX
8
MICR
10
-0.558634
20
24.140244
30
5.983745
70
192
0
VERTEX
8
MICR
10
-0.070829
20
24.009535
30
0.837566
70
192
0
VERTEX
8
MICR
10
-0.070829
20
24.009537
30
5.983745
70
192
0
VERTEX
8
MICR
10
0.416977
20
24.140242
30
0.837566
70
192
0
VERTEX
8
MICR
10
0.416975
20
24.140244
30
5.983745
70
192
0
VERTEX
8
MICR
10
0.774075
20
24.497339
30
0.837566
70
192
0
VERTEX
8
MICR
10
0.774073
20
24.497341
30
5.983745
70
192
0
VERTEX
8
MICR
10
0.904781
20
24.985146
30
0.837566
70
192
0
VERTEX
8
MICR
10
0.904779
20
24.985146
30
5.983745
70
192
0
VERTEX
8
MICR
10
0.774075
20
25.472948
30
0.837566
70
192
0
VERTEX
8
MICR
10
0.774073
20
25.472950
30
5.983745
70
192
0
VERTEX
8
MICR
10
0.416977
20
25.830048
30
0.837566
70
192
0
VERTEX
8
MICR
10
0.416975
20
25.830050
30
5.983745
70
192
0
VERTEX
8
MICR
10
-0.070829
20
24.985146
30
-0.000042
70
192
0
VERTEX
8
MICR
10
-0.070829
20
24.985146
30
6.183742
70
192
0
VERTEX
8
MICR
10
-0.070829
20
27.181141
30
0.465289
70
192
0
VERTEX
8
MICR
10
-1.168827
20
26.886932
30
0.465289
70
192
0
VERTEX
8
MICR
10
-1.972618
20
26.083143
30
0.465289
70
192
0
VERTEX
8
MICR
10
-2.266823
20
24.985146
30
0.465290
70
192
0
VERTEX
8
MICR
10
-1.972618
20
23.887148
30
0.465290
70
192
0
VERTEX
8
MICR
10
-1.168827
20
23.083355
30
0.465290
70
192
0
VERTEX
8
MICR
10
-0.070829
20
22.789150
30
0.465290
70
192
0
VERTEX
8
MICR
10
1.027170
20
23.083355
30
0.465290
70
192
0
VERTEX
8
MICR
10
1.830959
20
23.887148
30
0.465290
70
192
0
VERTEX
8
MICR
10
2.125168
20
24.985144
30
0.465290
70
192
0
VERTEX
8
MICR
10
1.830959
20
26.083141
30
0.465289
70
192
0
VERTEX
8
MICR
10
1.027172
20
26.886932
30
0.465289
70
192
0
VERTEX
8
MICR
10
-0.070829
20
27.181141
30
-0.000043
70
192
0
VERTEX
8
MICR
10
-1.168827
20
26.886932
30
-0.000043
70
192
0
VERTEX
8
MICR
10
-1.972618
20
26.083143
30
-0.000043
70
192
0
VERTEX
8
MICR
10
-2.266823
20
24.985146
30
-0.000042
70
192
0
VERTEX
8
MICR
10
-1.972618
20
23.887148
30
-0.000042
70
192
0
VERTEX
8
MICR
10
-1.168827
20
23.083355
30
-0.000042
70
192
0
VERTEX
8
MICR
10
-0.070829
20
22.789150
30
-0.000042
70
192
0
VERTEX
8
MICR
10
1.027170
20
23.083355
30
-0.000042
70
192
0
VERTEX
8
MICR
10
1.830959
20
23.887148
30
-0.000042
70
192
0
VERTEX
8
MICR
10
2.125168
20
24.985144
30
-0.000042
70
192
0
VERTEX
8
MICR
10
1.830959
20
26.083141
30
-0.000043
70
192
0
VERTEX
8
MICR
10
1.027170
20
26.886932
30
-0.000043
70
192
0
VERTEX
8
MICR
10
-0.455107
20
25.650734
30
6.183742
70
192
0
VERTEX
8
MICR
10
-0.070829
20
25.753700
30
6.183742
70
192
0
VERTEX
8
MICR
10
-0.736416
20
25.369423
30
6.183742
70
192
0
VERTEX
8
MICR
10
-0.839382
20
24.985146
30
6.183742
70
192
0
VERTEX
8
MICR
10
-0.736416
20
24.600868
30
6.183742
70
192
0
VERTEX
8
MICR
10
-0.455107
20
24.319559
30
6.183742
70
192
0
VERTEX
8
MICR
10
-0.070829
20
24.216591
30
6.183742
70
192
0
VERTEX
8
MICR
10
0.313448
20
24.319559
30
6.183742
70
192
0
VERTEX
8
MICR
10
0.594759
20
24.600870
30
6.183742
70
192
0
VERTEX
8
MICR
10
0.697725
20
24.985146
30
6.183742
70
192
0
VERTEX
8
MICR
10
0.594759
20
25.369423
30
6.183742
70
192
0
VERTEX
8
MICR
10
0.313448
20
25.650734
30
6.183742
70
192
0
VERTEX
8
MICR
10
0.315180
20
-0.888913
30
13.883217
70
192
0
VERTEX
8
MICR
10
0.315182
20
-25.000002
30
1.883221
70
192
0
VERTEX
8
MICR
10
0.315182
20
-25.000002
30
3.883221
70
192
0
VERTEX
8
MICR
10
0.315180
20
-0.888912
30
18.883217
70
192
0
VERTEX
8
MICR
10
-0.322319
20
-0.888913
30
13.883217
70
192
0
VERTEX
8
MICR
10
-0.322317
20
-25.000002
30
1.883221
70
192
0
VERTEX
8
MICR
10
-0.322317
20
-25.000002
30
3.883221
70
192
0
VERTEX
8
MICR
10
-0.322321
20
-0.888912
30
18.883217
70
192
0
VERTEX
8
MICR
10
-0.070829
20
-25.960760
30
0.837575
70
192
0
VERTEX
8
MICR
10
-0.558634
20
-25.830050
30
0.837575
70
192
0
VERTEX
8
MICR
10
-0.558634
20
-25.830048
30
5.983754
70
192
0
VERTEX
8
MICR
10
-0.070829
20
-25.960758
30
5.983754
70
192
0
VERTEX
8
MICR
10
-0.915733
20
-25.472952
30
0.837575
70
192
0
VERTEX
8
MICR
10
-0.915733
20
-25.472950
30
5.983754
70
192
0
VERTEX
8
MICR
10
-1.046440
20
-24.985147
30
0.837574
70
192
0
VERTEX
8
MICR
10
-1.046440
20
-24.985146
30
5.983754
70
192
0
VERTEX
8
MICR
10
-0.915733
20
-24.497343
30
0.837574
70
192
0
VERTEX
8
MICR
10
-0.915733
20
-24.497341
30
5.983754
70
192
0
VERTEX
8
MICR
10
-0.558634
20
-24.140245
30
0.837574
70
192
0
VERTEX
8
MICR
10
-0.558634
20
-24.140244
30
5.983754
70
192
0
VERTEX
8
MICR
10
-0.070829
20
-24.009539
30
0.837574
70
192
0
VERTEX
8
MICR
10
-0.070829
20
-24.009537
30
5.983754
70
192
0
VERTEX
8
MICR
10
0.416977
20
-24.140245
30
0.837574
70
192
0
VERTEX
8
MICR
10
0.416975
20
-24.140244
30
5.983754
70
192
0
VERTEX
8
MICR
10
0.774075
20
-24.497343
30
0.837574
70
192
0
VERTEX
8
MICR
10
0.774073
20
-24.497341
30
5.983754
70
192
0
VERTEX
8
MICR
10
0.904781
20
-24.985147
30
0.837574
70
192
0
VERTEX
8
MICR
10
0.904779
20
-24.985146
30
5.983754
70
192
0
VERTEX
8
MICR
10
0.774075
20
-25.472952
30
0.837575
70
192
0
VERTEX
8
MICR
10
0.774073
20
-25.472950
30
5.983754
70
192
0
VERTEX
8
MICR
10
0.416977
20
-25.830050
30
0.837575
70
192
0
VERTEX
8
MICR
10
0.416975
20
-25.830048
30
5.983754
70
192
0
VERTEX
8
MICR
10
-0.070829
20
-24.985147
30
-0.000034
70
192
0
VERTEX
8
MICR
10
-0.070829
20
-24.985146
30
6.183751
70
192
0
VERTEX
8
MICR
10
-0.070829
20
-27.181143
30
0.465299
70
192
0
VERTEX
8
MICR
10
-1.168827
20
-26.886938
30
0.465299
70
192
0
VERTEX
8
MICR
10
-1.972618
20
-26.083147
30
0.465298
70
192
0
VERTEX
8
MICR
10
-2.266823
20
-24.985147
30
0.465298
70
192
0
VERTEX
8
MICR
10
-1.972618
20
-23.887152
30
0.465298
70
192
0
VERTEX
8
MICR
10
-1.168827
20
-23.083357
30
0.465298
70
192
0
VERTEX
8
MICR
10
-0.070829
20
-22.789152
30
0.465298
70
192
0
VERTEX
8
MICR
10
1.027170
20
-23.083357
30
0.465298
70
192
0
VERTEX
8
MICR
10
1.830959
20
-23.887152
30
0.465298
70
192
0
VERTEX
8
MICR
10
2.125168
20
-24.985147
30
0.465298
70
192
0
VERTEX
8
MICR
10
1.830959
20
-26.083143
30
0.465298
70
192
0
VERTEX
8
MICR
10
1.027172
20
-26.886938
30
0.465299
70
192
0
VERTEX
8
MICR
10
-0.070829
20
-27.181143
30
-0.000033
70
192
0
VERTEX
8
MICR
10
-1.168827
20
-26.886938
30
-0.000034
70
192
0
VERTEX
8
MICR
10
-1.972618
20
-26.083147
30
-0.000034
70
192
0
VERTEX
8
MICR
10
-2.266823
20
-24.985147
30
-0.000034
70
192
0
VERTEX
8
MICR
10
-1.972618
20
-23.887152
30
-0.000034
70
192
0
VERTEX
8
MICR
10
-1.168827
20
-23.083357
30
-0.000034
70
192
0
VERTEX
8
MICR
10
-0.070829
20
-22.789152
30
-0.000034
70
192
0
VERTEX
8
MICR
10
1.027170
20
-23.083357
30
-0.000034
70
192
0
VERTEX
8
MICR
10
1.830959
20
-23.887152
30
-0.000034
70
192
0
VERTEX
8
MICR
10
2.125168
20
-24.985147
30
-0.000034
70
192
0
VERTEX
8
MICR
10
1.830959
20
-26.083143
30
-0.000034
70
192
0
VERTEX
8
MICR
10
1.027170
20
-26.886938
30
-0.000034
70
192
0
VERTEX
8
MICR
10
-0.455107
20
-25.650734
30
6.183751
70
192
0
VERTEX
8
MICR
10
-0.070829
20
-25.753700
30
6.183751
70
192
0
VERTEX
8
MICR
10
-0.736416
20
-25.369423
30
6.183751
70
192
0
VERTEX
8
MICR
10
-0.839382
20
-24.985146
30
6.183751
70
192
0
VERTEX
8
MICR
10
-0.736416
20
-24.600868
30
6.183751
70
192
0
VERTEX
8
MICR
10
-0.455107
20
-24.319557
30
6.183751
70
192
0
VERTEX
8
MICR
10
-0.070829
20
-24.216591
30
6.183751
70
192
0
VERTEX
8
MICR
10
0.313448
20
-24.319557
30
6.183751
70
192
0
VERTEX
8
MICR
10
0.594759
20
-24.600868
30
6.183751
70
192
0
VERTEX
8
MICR
10
0.697725
20
-24.985146
30
6.183751
70
192
0
VERTEX
8
MICR
10
0.594759
20
-25.369423
30
6.183751
70
192
0
VERTEX
8
MICR
10
0.313448
20
-25.650734
30
6.183751
70
192
0
VERTEX
8
MICR
10
0.887691
20
0.000000
30
19.883217
70
192
0
VERTEX
8
MICR
10
0.768763
20
0.443845
30
19.883217
70
192
0
VERTEX
8
MICR
10
0.443846
20
0.768763
30
19.883217
70
192
0
VERTEX
8
MICR
10
0.000000
20
0.887691
30
19.883217
70
192
0
VERTEX
8
MICR
10
-0.443846
20
0.768763
30
19.883217
70
192
0
VERTEX
8
MICR
10
-0.768764
20
0.443846
30
19.883217
70
192
0
VERTEX
8
MICR
10
-0.887691
20
0.000000
30
19.883217
70
192
0
VERTEX
8
MICR
10
-0.768764
20
-0.443845
30
19.883217
70
192
0
VERTEX
8
MICR
10
-0.443846
20
-0.768763
30
19.883217
70
192
0
VERTEX
8
MICR
10
0.000000
20
-0.887691
30
19.883217
70
192
0
VERTEX
8
MICR
10
0.443846
20
-0.768763
30
19.883217
70
192
0
VERTEX
8
MICR
10
0.768763
20
-0.443846
30
19.883217
70
192
0
VERTEX
8
MICR
10
0.887691
20
0.000026
30
130.883224
70
192
0
VERTEX
8
MICR
10
0.768763
20
0.443872
30
130.883224
70
192
0
VERTEX
8
MICR
10
0.443846
20
0.768789
30
130.883224
70
192
0
VERTEX
8
MICR
10
0.000000
20
0.887717
30
130.883224
70
192
0
VERTEX
8
MICR
10
-0.443846
20
0.768789
30
130.883224
70
192
0
VERTEX
8
MICR
10
-0.768764
20
0.443872
30
130.883224
70
192
0
VERTEX
8
MICR
10
-0.887691
20
0.000026
30
130.883224
70
192
0
VERTEX
8
MICR
10
-0.768764
20
-0.443819
30
130.883240
70
192
0
VERTEX
8
MICR
10
-0.443846
20
-0.768737
30
130.883240
70
192
0
VERTEX
8
MICR
10
0.000000
20
-0.887665
30
130.883240
70
192
0
VERTEX
8
MICR
10
0.443846
20
-0.768737
30
130.883240
70
192
0
VERTEX
8
MICR
10
0.768763
20
-0.443820
30
130.883240
70
192
0
VERTEX
8
MICR
10
0.000000
20
0.000026
30
130.883224
70
192
0
VERTEX
8
MICR
10
0.000000
20
0.000000
30
19.883217
70
192
0
VERTEX
8
MICR
10
0.887691
20
0.000028
30
136.883224
70
192
0
VERTEX
8
MICR
10
0.768763
20
0.443873
30
136.883224
70
192
0
VERTEX
8
MICR
10
0.443846
20
0.768791
30
136.883224
70
192
0
VERTEX
8
MICR
10
0.000000
20
0.887719
30
136.883224
70
192
0
VERTEX
8
MICR
10
-0.443846
20
0.768791
30
136.883224
70
192
0
VERTEX
8
MICR
10
-0.768764
20
0.443873
30
136.883224
70
192
0
VERTEX
8
MICR
10
-0.887691
20
0.000028
30
136.883224
70
192
0
VERTEX
8
MICR
10
-0.768764
20
-0.443818
30
136.883240
70
192
0
VERTEX
8
MICR
10
-0.443846
20
-0.768735
30
136.883240
70
192
0
VERTEX
8
MICR
10
0.000000
20
-0.887663
30
136.883240
70
192
0
VERTEX
8
MICR
10
0.443846
20
-0.768736
30
136.883240
70
192
0
VERTEX
8
MICR
10
0.768763
20
-0.443819
30
136.883240
70
192
0
VERTEX
8
MICR
10
0.887691
20
0.000030
30
145.883194
70
192
0
VERTEX
8
MICR
10
0.768763
20
0.443875
30
145.883194
70
192
0
VERTEX
8
MICR
10
0.443846
20
0.768793
30
145.883194
70
192
0
VERTEX
8
MICR
10
0.000000
20
0.887721
30
145.883194
70
192
0
VERTEX
8
MICR
10
-0.443846
20
0.768793
30
145.883194
70
192
0
VERTEX
8
MICR
10
-0.768764
20
0.443875
30
145.883194
70
192
0
VERTEX
8
MICR
10
-0.887691
20
0.000030
30
145.883194
70
192
0
VERTEX
8
MICR
10
-0.768764
20
-0.443816
30
145.883209
70
192
0
VERTEX
8
MICR
10
-0.443846
20
-0.768733
30
145.883209
70
192
0
VERTEX
8
MICR
10
0.000000
20
-0.887661
30
145.883209
70
192
0
VERTEX
8
MICR
10
0.443846
20
-0.768734
30
145.883209
70
192
0
VERTEX
8
MICR
10
0.768763
20
-0.443816
30
145.883209
70
192
0
VERTEX
8
MICR
10
0.000000
20
0.000030
30
145.883194
70
192
0
VERTEX
8
MICR
10
0.000000
20
0.000028
30
136.883224
70
192
0
VERTEX
8
MICR
10
1.528275
20
0.000010
30
145.883224
70
192
0
VERTEX
8
MICR
10
1.323524
20
0.764147
30
145.883209
70
192
0
VERTEX
8
MICR
10
0.764137
20
1.323535
30
145.883209
70
192
0
VERTEX
8
MICR
10
0.000000
20
1.528285
30
145.883209
70
192
0
VERTEX
8
MICR
10
-0.764137
20
1.323535
30
145.883209
70
192
0
VERTEX
8
MICR
10
-1.323524
20
0.764147
30
145.883209
70
192
0
VERTEX
8
MICR
10
-1.528275
20
0.000010
30
145.883224
70
192
0
VERTEX
8
MICR
10
-1.323524
20
-0.764128
30
145.883224
70
192
0
VERTEX
8
MICR
10
-0.764137
20
-1.323515
30
145.883224
70
192
0
VERTEX
8
MICR
10
0.000000
20
-1.528265
30
145.883224
70
192
0
VERTEX
8
MICR
10
0.764137
20
-1.323516
30
145.883224
70
192
0
VERTEX
8
MICR
10
1.323524
20
-0.764129
30
145.883224
70
192
0
VERTEX
8
MICR
10
2.129978
20
0.000010
30
146.773743
70
192
0
VERTEX
8
MICR
10
1.844614
20
1.064999
30
146.773727
70
192
0
VERTEX
8
MICR
10
1.064989
20
1.844625
30
146.773727
70
192
0
VERTEX
8
MICR
10
0.000000
20
2.129988
30
146.773727
70
192
0
VERTEX
8
MICR
10
-1.064991
20
1.844625
30
146.773727
70
192
0
VERTEX
8
MICR
10
-1.844616
20
1.064999
30
146.773727
70
192
0
VERTEX
8
MICR
10
-2.129978
20
0.000010
30
146.773743
70
192
0
VERTEX
8
MICR
10
-1.844616
20
-1.064979
30
146.773743
70
192
0
VERTEX
8
MICR
10
-1.064991
20
-1.844605
30
146.773743
70
192
0
VERTEX
8
MICR
10
-0.000002
20
-2.129968
30
146.773743
70
192
0
VERTEX
8
MICR
10
1.064987
20
-1.844606
30
146.773743
70
192
0
VERTEX
8
MICR
10
1.844614
20
-1.064981
30
146.773743
70
192
0
VERTEX
8
MICR
10
1.528275
20
0.000012
30
156.030899
70
192
0
VERTEX
8
MICR
10
1.323524
20
0.764150
30
156.030884
70
192
0
VERTEX
8
MICR
10
0.764137
20
1.323537
30
156.030884
70
192
0
VERTEX
8
MICR
10
0.000000
20
1.528287
30
156.030884
70
192
0
VERTEX
8
MICR
10
-0.764137
20
1.323537
30
156.030884
70
192
0
VERTEX
8
MICR
10
-1.323524
20
0.764150
30
156.030884
70
192
0
VERTEX
8
MICR
10
-1.528275
20
0.000012
30
156.030899
70
192
0
VERTEX
8
MICR
10
-1.323524
20
-0.764125
30
156.030899
70
192
0
VERTEX
8
MICR
10
-0.764137
20
-1.323513
30
156.030899
70
192
0
VERTEX
8
MICR
10
0.000000
20
-1.528263
30
156.030899
70
192
0
VERTEX
8
MICR
10
0.764137
20
-1.323514
30
156.030899
70
192
0
VERTEX
8
MICR
10
1.323524
20
-0.764126
30
156.030899
70
192
0
VERTEX
8
MICR
10
1.060242
20
0.000012
30
156.554993
70
192
0
VERTEX
8
MICR
10
0.918196
20
0.530132
30
156.554977
70
192
0
VERTEX
8
MICR
10
0.530121
20
0.918208
30
156.554977
70
192
0
VERTEX
8
MICR
10
0.000000
20
1.060253
30
156.554977
70
192
0
VERTEX
8
MICR
10
-0.530121
20
0.918208
30
156.554977
70
192
0
VERTEX
8
MICR
10
-0.918194
20
0.530133
30
156.554977
70
192
0
VERTEX
8
MICR
10
-1.060242
20
0.000012
30
156.554993
70
192
0
VERTEX
8
MICR
10
-0.918194
20
-0.530108
30
156.554993
70
192
0
VERTEX
8
MICR
10
-0.530121
20
-0.918183
30
156.554993
70
192
0
VERTEX
8
MICR
10
0.000000
20
-1.060229
30
156.554993
70
192
0
VERTEX
8
MICR
10
0.530121
20
-0.918184
30
156.554993
70
192
0
VERTEX
8
MICR
10
0.918196
20
-0.530109
30
156.554993
70
192
0
VERTEX
8
MICR
10
0.000000
20
0.000012
30
156.554993
70
192
0
VERTEX
8
MICR
10
0.000000
20
0.000010
30
145.883224
70
192
0
VERTEX
8
MICR
10
74.964539
20
0.000012
30
161.824158
70
192
0
VERTEX
8
MICR
10
74.992798
20
0.308269
30
161.746521
70
192
0
VERTEX
8
MICR
10
75.069962
20
0.533928
30
161.534470
70
192
0
VERTEX
8
MICR
10
75.175415
20
0.616525
30
161.244812
70
192
0
VERTEX
8
MICR
10
75.280846
20
0.533928
30
160.955124
70
192
0
VERTEX
8
MICR
10
75.358025
20
0.308269
30
160.743073
70
192
0
VERTEX
8
MICR
10
75.386269
20
0.000012
30
160.665466
70
192
0
VERTEX
8
MICR
10
75.358025
20
-0.308244
30
160.743088
70
192
0
VERTEX
8
MICR
10
75.280846
20
-0.533904
30
160.955139
70
192
0
VERTEX
8
MICR
10
75.175415
20
-0.616501
30
161.244827
70
192
0
VERTEX
8
MICR
10
75.069962
20
-0.533904
30
161.534485
70
192
0
VERTEX
8
MICR
10
74.992798
20
-0.308245
30
161.746536
70
192
0
VERTEX
8
MICR
10
2.608215
20
0.000021
30
135.488571
70
192
0
VERTEX
8
MICR
10
2.636459
20
0.308278
30
135.410965
70
192
0
VERTEX
8
MICR
10
2.713642
20
0.533937
30
135.198914
70
192
0
VERTEX
8
MICR
10
2.819069
20
0.616534
30
134.909271
70
192
0
VERTEX
8
MICR
10
2.924507
20
0.533937
30
134.619568
70
192
0
VERTEX
8
MICR
10
3.001680
20
0.308278
30
134.407547
70
192
0
VERTEX
8
MICR
10
3.029928
20
0.000021
30
134.329926
70
192
0
VERTEX
8
MICR
10
3.001680
20
-0.308235
30
134.407562
70
192
0
VERTEX
8
MICR
10
2.924507
20
-0.533895
30
134.619583
70
192
0
VERTEX
8
MICR
10
2.819069
20
-0.616492
30
134.909286
70
192
0
VERTEX
8
MICR
10
2.713642
20
-0.533895
30
135.198929
70
192
0
VERTEX
8
MICR
10
2.636459
20
-0.308236
30
135.410980
70
192
0
VERTEX
8
MICR
10
2.819069
20
0.000021
30
134.909271
70
192
0
VERTEX
8
MICR
10
75.175415
20
0.000012
30
161.244827
70
192
0
VERTEX
8
MICR
10
-3.029934
20
0.000022
30
133.436447
70
192
0
VERTEX
8
MICR
10
-3.001690
20
0.308278
30
133.358856
70
192
0
VERTEX
8
MICR
10
-2.924511
20
0.533938
30
133.146805
70
192
0
VERTEX
8
MICR
10
-2.819080
20
0.616535
30
132.857132
70
192
0
VERTEX
8
MICR
10
-2.713654
20
0.533938
30
132.567474
70
192
0
VERTEX
8
MICR
10
-2.636471
20
0.308278
30
132.355392
70
192
0
VERTEX
8
MICR
10
-2.608219
20
0.000022
30
132.277802
70
192
0
VERTEX
8
MICR
10
-2.636471
20
-0.308235
30
132.355408
70
192
0
VERTEX
8
MICR
10
-2.713654
20
-0.533894
30
132.567490
70
192
0
VERTEX
8
MICR
10
-2.819080
20
-0.616491
30
132.857147
70
192
0
VERTEX
8
MICR
10
-2.924511
20
-0.533894
30
133.146820
70
192
0
VERTEX
8
MICR
10
-3.001690
20
-0.308235
30
133.358871
70
192
0
VERTEX
8
MICR
10
-23.703152
20
0.000022
30
125.912041
70
192
0
VERTEX
8
MICR
10
-23.674896
20
0.308279
30
125.834427
70
192
0
VERTEX
8
MICR
10
-23.597729
20
0.533938
30
125.622391
70
192
0
VERTEX
8
MICR
10
-23.492290
20
0.616535
30
125.332726
70
192
0
VERTEX
8
MICR
10
-23.386860
20
0.533938
30
125.043037
70
192
0
VERTEX
8
MICR
10
-23.309677
20
0.308278
30
124.830986
70
192
0
VERTEX
8
MICR
10
-23.281425
20
0.000022
30
124.753372
70
192
0
VERTEX
8
MICR
10
-23.309677
20
-0.308235
30
124.830986
70
192
0
VERTEX
8
MICR
10
-23.386860
20
-0.533894
30
125.043037
70
192
0
VERTEX
8
MICR
10
-23.492290
20
-0.616491
30
125.332726
70
192
0
VERTEX
8
MICR
10
-23.597729
20
-0.533894
30
125.622391
70
192
0
VERTEX
8
MICR
10
-23.674896
20
-0.308235
30
125.834427
70
192
0
VERTEX
8
MICR
10
-23.492290
20
0.000022
30
125.332726
70
192
0
VERTEX
8
MICR
10
-2.819080
20
0.000022
30
132.857132
70
192
0
VERTEX
8
MICR
10
-23.855328
20
0.000008
30
126.330109
70
192
0
VERTEX
8
MICR
10
-23.806694
20
0.530712
30
126.196487
70
192
0
VERTEX
8
MICR
10
-23.673820
20
0.919214
30
125.831413
70
192
0
VERTEX
8
MICR
10
-23.492306
20
1.061415
30
125.332703
70
192
0
VERTEX
8
MICR
10
-23.310783
20
0.919213
30
124.833992
70
192
0
VERTEX
8
MICR
10
-23.177910
20
0.530712
30
124.468918
70
192
0
VERTEX
8
MICR
10
-23.129276
20
0.000008
30
124.335297
70
192
0
VERTEX
8
MICR
10
-23.177910
20
-0.530695
30
124.468918
70
192
0
VERTEX
8
MICR
10
-23.310783
20
-0.919197
30
124.833992
70
192
0
VERTEX
8
MICR
10
-23.492306
20
-1.061399
30
125.332703
70
192
0
VERTEX
8
MICR
10
-23.673820
20
-0.919198
30
125.831413
70
192
0
VERTEX
8
MICR
10
-23.806694
20
-0.530696
30
126.196487
70
192
0
VERTEX
8
MICR
10
-24.835064
20
0.000008
30
126.418205
70
192
0
VERTEX
8
MICR
10
-24.767284
20
0.739657
30
126.231995
70
192
0
VERTEX
8
MICR
10
-24.582096
20
1.281117
30
125.723190
70
192
0
VERTEX
8
MICR
10
-24.329113
20
1.479306
30
125.028130
70
192
0
VERTEX
8
MICR
10
-24.076145
20
1.281117
30
124.333092
70
192
0
VERTEX
8
MICR
10
-23.890949
20
0.739657
30
123.824272
70
192
0
VERTEX
8
MICR
10
-23.823170
20
0.000008
30
123.638046
70
192
0
VERTEX
8
MICR
10
-23.890949
20
-0.739641
30
123.824272
70
192
0
VERTEX
8
MICR
10
-24.076145
20
-1.281101
30
124.333092
70
192
0
VERTEX
8
MICR
10
-24.329113
20
-1.479290
30
125.028130
70
192
0
VERTEX
8
MICR
10
-24.582096
20
-1.281102
30
125.723190
70
192
0
VERTEX
8
MICR
10
-24.767284
20
-0.739642
30
126.231995
70
192
0
VERTEX
8
MICR
10
-33.391018
20
0.000009
30
122.859398
70
192
0
VERTEX
8
MICR
10
-33.342388
20
0.530712
30
122.725761
70
192
0
VERTEX
8
MICR
10
-33.209507
20
0.919214
30
122.360687
70
192
0
VERTEX
8
MICR
10
-33.027996
20
1.061416
30
121.861992
70
192
0
VERTEX
8
MICR
10
-32.846485
20
0.919214
30
121.363281
70
192
0
VERTEX
8
MICR
10
-32.713612
20
0.530712
30
120.998222
70
192
0
VERTEX
8
MICR
10
-32.664967
20
0.000009
30
120.864601
70
192
0
VERTEX
8
MICR
10
-32.713612
20
-0.530695
30
120.998222
70
192
0
VERTEX
8
MICR
10
-32.846485
20
-0.919196
30
121.363281
70
192
0
VERTEX
8
MICR
10
-33.027996
20
-1.061398
30
121.861992
70
192
0
VERTEX
8
MICR
10
-33.209507
20
-0.919197
30
122.360687
70
192
0
VERTEX
8
MICR
10
-33.342388
20
-0.530695
30
122.725761
70
192
0
VERTEX
8
MICR
10
-33.772327
20
0.000009
30
122.374680
70
192
0
VERTEX
8
MICR
10
-33.738598
20
0.368184
30
122.281990
70
192
0
VERTEX
8
MICR
10
-33.646404
20
0.637708
30
122.028717
70
192
0
VERTEX
8
MICR
10
-33.520481
20
0.736360
30
121.682747
70
192
0
VERTEX
8
MICR
10
-33.394550
20
0.637708
30
121.336754
70
192
0
VERTEX
8
MICR
10
-33.302387
20
0.368184
30
121.083519
70
192
0
VERTEX
8
MICR
10
-33.268635
20
0.000009
30
120.990807
70
192
0
VERTEX
8
MICR
10
-33.302387
20
-0.368167
30
121.083519
70
192
0
VERTEX
8
MICR
10
-33.394550
20
-0.637690
30
121.336754
70
192
0
VERTEX
8
MICR
10
-33.520481
20
-0.736342
30
121.682747
70
192
0
VERTEX
8
MICR
10
-33.646404
20
-0.637690
30
122.028717
70
192
0
VERTEX
8
MICR
10
-33.738598
20
-0.368167
30
122.281990
70
192
0
VERTEX
8
MICR
10
-33.520481
20
0.000009
30
121.682747
70
192
0
VERTEX
8
MICR
10
-23.492306
20
0.000008
30
125.332703
70
192
0
VERTEX
8
MICR
10
0.005100
20
-0.935314
30
137.105499
70
192
0
VERTEX
8
MICR
10
0.005100
20
-0.935314
30
136.206635
70
192
0
VERTEX
8
MICR
10
0.005100
20
0.935314
30
136.206635
70
192
0
VERTEX
8
MICR
10
0.005100
20
0.935313
30
137.105499
70
192
0
VERTEX
8
MICR
10
0.841906
20
-0.935314
30
136.995346
70
192
0
VERTEX
8
MICR
10
0.609261
20
-0.935314
30
136.127090
70
192
0
VERTEX
8
MICR
10
0.609261
20
0.935314
30
136.127090
70
192
0
VERTEX
8
MICR
10
0.841906
20
0.935313
30
136.995331
70
192
0
VERTEX
8
MICR
10
1.621685
20
-0.935314
30
136.672348
70
192
0
VERTEX
8
MICR
10
1.172247
20
-0.935314
30
135.893890
70
192
0
VERTEX
8
MICR
10
1.172247
20
0.935313
30
135.893890
70
192
0
VERTEX
8
MICR
10
1.621685
20
0.935313
30
136.672348
70
192
0
VERTEX
8
MICR
10
2.291296
20
-0.935314
30
136.158539
70
192
0
VERTEX
8
MICR
10
1.655697
20
-0.935314
30
135.522934
70
192
0
VERTEX
8
MICR
10
1.655697
20
0.935313
30
135.522934
70
192
0
VERTEX
8
MICR
10
2.291296
20
0.935313
30
136.158524
70
192
0
VERTEX
8
MICR
10
2.805105
20
-0.935314
30
135.488922
70
192
0
VERTEX
8
MICR
10
2.026659
20
-0.935314
30
135.039490
70
192
0
VERTEX
8
MICR
10
2.026659
20
0.935313
30
135.039490
70
192
0
VERTEX
8
MICR
10
2.805105
20
0.935313
30
135.488922
70
192
0
VERTEX
8
MICR
10
3.128101
20
-0.935314
30
134.709137
70
192
0
VERTEX
8
MICR
10
2.259855
20
-0.935314
30
134.476501
70
192
0
VERTEX
8
MICR
10
2.259855
20
0.935313
30
134.476501
70
192
0
VERTEX
8
MICR
10
3.128101
20
0.935313
30
134.709137
70
192
0
VERTEX
8
MICR
10
3.238268
20
-0.935314
30
133.872345
70
192
0
VERTEX
8
MICR
10
2.339396
20
-0.935314
30
133.872345
70
192
0
VERTEX
8
MICR
10
2.339396
20
0.935313
30
133.872330
70
192
0
VERTEX
8
MICR
10
3.238268
20
0.935313
30
133.872330
70
192
0
VERTEX
8
MICR
10
3.128101
20
-0.935314
30
133.035538
70
192
0
VERTEX
8
MICR
10
2.259855
20
-0.935314
30
133.268173
70
192
0
VERTEX
8
MICR
10
2.259855
20
0.935313
30
133.268173
70
192
0
VERTEX
8
MICR
10
3.128101
20
0.935313
30
133.035538
70
192
0
VERTEX
8
MICR
10
2.805105
20
-0.935315
30
132.255753
70
192
0
VERTEX
8
MICR
10
2.026659
20
-0.935314
30
132.705185
70
192
0
VERTEX
8
MICR
10
2.026659
20
0.935313
30
132.705185
70
192
0
VERTEX
8
MICR
10
2.805105
20
0.935312
30
132.255753
70
192
0
VERTEX
8
MICR
10
2.291296
20
-0.935315
30
131.586151
70
192
0
VERTEX
8
MICR
10
1.655697
20
-0.935314
30
132.221741
70
192
0
VERTEX
8
MICR
10
1.655697
20
0.935313
30
132.221741
70
192
0
VERTEX
8
MICR
10
2.291296
20
0.935312
30
131.586136
70
192
0
VERTEX
8
MICR
10
1.621685
20
-0.935315
30
131.072327
70
192
0
VERTEX
8
MICR
10
1.172247
20
-0.935314
30
131.850784
70
192
0
VERTEX
8
MICR
10
1.172247
20
0.935313
30
131.850784
70
192
0
VERTEX
8
MICR
10
1.621685
20
0.935312
30
131.072327
70
192
0
VERTEX
8
MICR
10
0.841906
20
-0.935315
30
130.749344
70
192
0
VERTEX
8
MICR
10
0.609261
20
-0.935314
30
131.617584
70
192
0
VERTEX
8
MICR
10
0.609261
20
0.935313
30
131.617584
70
192
0
VERTEX
8
MICR
10
0.841906
20
0.935312
30
130.749329
70
192
0
VERTEX
8
MICR
10
0.005100
20
-0.935315
30
130.639175
70
192
0
VERTEX
8
MICR
10
0.005100
20
-0.935314
30
131.538040
70
192
0
VERTEX
8
MICR
10
0.005100
20
0.935313
30
131.538040
70
192
0
VERTEX
8
MICR
10
0.005100
20
0.935312
30
130.639175
70
192
0
VERTEX
8
MICR
10
-0.831707
20
-0.935315
30
130.749344
70
192
0
VERTEX
8
MICR
10
-0.599060
20
-0.935314
30
131.617584
70
192
0
VERTEX
8
MICR
10
-0.599060
20
0.935313
30
131.617584
70
192
0
VERTEX
8
MICR
10
-0.831707
20
0.935312
30
130.749329
70
192
0
VERTEX
8
MICR
10
-1.611485
20
-0.935314
30
131.072342
70
192
0
VERTEX
8
MICR
10
-1.162048
20
-0.935314
30
131.850784
70
192
0
VERTEX
8
MICR
10
-1.162048
20
0.935313
30
131.850784
70
192
0
VERTEX
8
MICR
10
-1.611485
20
0.935313
30
131.072327
70
192
0
VERTEX
8
MICR
10
-2.281094
20
-0.935314
30
131.586151
70
192
0
VERTEX
8
MICR
10
-1.645496
20
-0.935314
30
132.221741
70
192
0
VERTEX
8
MICR
10
-1.645496
20
0.935313
30
132.221741
70
192
0
VERTEX
8
MICR
10
-2.281094
20
0.935313
30
131.586136
70
192
0
VERTEX
8
MICR
10
-2.794907
20
-0.935314
30
132.255753
70
192
0
VERTEX
8
MICR
10
-2.016460
20
-0.935314
30
132.705185
70
192
0
VERTEX
8
MICR
10
-2.016460
20
0.935313
30
132.705185
70
192
0
VERTEX
8
MICR
10
-2.794907
20
0.935313
30
132.255753
70
192
0
VERTEX
8
MICR
10
-3.117901
20
-0.935314
30
133.035538
70
192
0
VERTEX
8
MICR
10
-2.249657
20
-0.935314
30
133.268173
70
192
0
VERTEX
8
MICR
10
-2.249657
20
0.935313
30
133.268173
70
192
0
VERTEX
8
MICR
10
-3.117901
20
0.935313
30
133.035538
70
192
0
VERTEX
8
MICR
10
-3.228069
20
-0.935314
30
133.872345
70
192
0
VERTEX
8
MICR
10
-2.329193
20
-0.935314
30
133.872345
70
192
0
VERTEX
8
MICR
10
-2.329193
20
0.935313
30
133.872330
70
192
0
VERTEX
8
MICR
10
-3.228069
20
0.935313
30
133.872330
70
192
0
VERTEX
8
MICR
10
-3.117901
20
-0.935314
30
134.709152
70
192
0
VERTEX
8
MICR
10
-2.249657
20
-0.935314
30
134.476501
70
192
0
VERTEX
8
MICR
10
-2.249657
20
0.935313
30
134.476501
70
192
0
VERTEX
8
MICR
10
-3.117901
20
0.935313
30
134.709137
70
192
0
VERTEX
8
MICR
10
-2.794907
20
-0.935314
30
135.488922
70
192
0
VERTEX
8
MICR
10
-2.016457
20
-0.935314
30
135.039490
70
192
0
VERTEX
8
MICR
10
-2.016460
20
0.935314
30
135.039490
70
192
0
VERTEX
8
MICR
10
-2.794907
20
0.935313
30
135.488922
70
192
0
VERTEX
8
MICR
10
-2.281094
20
-0.935314
30
136.158539
70
192
0
VERTEX
8
MICR
10
-1.645496
20
-0.935314
30
135.522934
70
192
0
VERTEX
8
MICR
10
-1.645496
20
0.935314
30
135.522934
70
192
0
VERTEX
8
MICR
10
-2.281094
20
0.935314
30
136.158524
70
192
0
VERTEX
8
MICR
10
-1.611485
20
-0.935313
30
136.672348
70
192
0
VERTEX
8
MICR
10
-1.162048
20
-0.935313
30
135.893890
70
192
0
VERTEX
8
MICR
10
-1.162048
20
0.935314
30
135.893890
70
192
0
VERTEX
8
MICR
10
-1.611485
20
0.935314
30
136.672348
70
192
0
VERTEX
8
MICR
10
-0.831703
20
-0.935313
30
136.995346
70
192
0
VERTEX
8
MICR
10
-0.599060
20
-0.935313
30
136.127090
70
192
0
VERTEX
8
MICR
10
-0.599060
20
0.935314
30
136.127090
70
192
0
VERTEX
8
MICR
10
-0.831703
20
0.935313
30
136.995331
70
192
0
VERTEX
8
MICR
10
-0.143688
20
2.245255
30
134.281128
70
192
0
VERTEX
8
MICR
10
-0.143688
20
1.621038
30
134.281128
70
192
0
VERTEX
8
MICR
10
0.153889
20
1.621037
30
133.463547
70
192
0
VERTEX
8
MICR
10
0.153889
20
2.245254
30
133.463547
70
192
0
VERTEX
8
MICR
10
0.402380
20
2.168749
30
134.479889
70
192
0
VERTEX
8
MICR
10
0.250565
20
1.565802
30
134.424622
70
192
0
VERTEX
8
MICR
10
0.548141
20
1.565802
30
133.607040
70
192
0
VERTEX
8
MICR
10
0.699959
20
2.168749
30
133.662292
70
192
0
VERTEX
8
MICR
10
0.911236
20
1.944448
30
134.665085
70
192
0
VERTEX
8
MICR
10
0.617950
20
1.403859
30
134.558350
70
192
0
VERTEX
8
MICR
10
0.915527
20
1.403860
30
133.740753
70
192
0
VERTEX
8
MICR
10
1.208815
20
1.944448
30
133.847504
70
192
0
VERTEX
8
MICR
10
1.348200
20
1.587635
30
134.824127
70
192
0
VERTEX
8
MICR
10
0.933432
20
1.146246
30
134.673172
70
192
0
VERTEX
8
MICR
10
1.231009
20
1.146246
30
133.855576
70
192
0
VERTEX
8
MICR
10
1.645779
20
1.587634
30
134.006546
70
192
0
VERTEX
8
MICR
10
1.683495
20
1.122627
30
134.946167
70
192
0
VERTEX
8
MICR
10
1.175508
20
0.810519
30
134.761276
70
192
0
VERTEX
8
MICR
10
1.473087
20
0.810519
30
133.943695
70
192
0
VERTEX
8
MICR
10
1.981073
20
1.122627
30
134.128586
70
192
0
VERTEX
8
MICR
10
1.894270
20
0.581114
30
135.022888
70
192
0
VERTEX
8
MICR
10
1.327684
20
0.419555
30
134.816666
70
192
0
VERTEX
8
MICR
10
1.625263
20
0.419555
30
133.999084
70
192
0
VERTEX
8
MICR
10
2.191849
20
0.581114
30
134.205292
70
192
0
VERTEX
8
MICR
10
1.966162
20
-0.000000
30
135.049057
70
192
0
VERTEX
8
MICR
10
1.379589
20
-0.000000
30
134.835556
70
192
0
VERTEX
8
MICR
10
1.677166
20
-0.000000
30
134.017975
70
192
0
VERTEX
8
MICR
10
2.263739
20
-0.000000
30
134.231461
70
192
0
VERTEX
8
MICR
10
1.894270
20
-0.581115
30
135.022888
70
192
0
VERTEX
8
MICR
10
1.327684
20
-0.419556
30
134.816666
70
192
0
VERTEX
8
MICR
10
1.625263
20
-0.419556
30
133.999084
70
192
0
VERTEX
8
MICR
10
2.191849
20
-0.581115
30
134.205307
70
192
0
VERTEX
8
MICR
10
1.683495
20
-1.122628
30
134.946167
70
192
0
VERTEX
8
MICR
10
1.175508
20
-0.810519
30
134.761276
70
192
0
VERTEX
8
MICR
10
1.473087
20
-0.810519
30
133.943695
70
192
0
VERTEX
8
MICR
10
1.981073
20
-1.122628
30
134.128586
70
192
0
VERTEX
8
MICR
10
1.348200
20
-1.587635
30
134.824142
70
192
0
VERTEX
8
MICR
10
0.933432
20
-1.146248
30
134.673172
70
192
0
VERTEX
8
MICR
10
1.231009
20
-1.146247
30
133.855591
70
192
0
VERTEX
8
MICR
10
1.645779
20
-1.587636
30
134.006546
70
192
0
VERTEX
8
MICR
10
0.911236
20
-1.944448
30
134.665100
70
192
0
VERTEX
8
MICR
10
0.617950
20
-1.403861
30
134.558350
70
192
0
VERTEX
8
MICR
10
0.915527
20
-1.403860
30
133.740753
70
192
0
VERTEX
8
MICR
10
1.208815
20
-1.944449
30
133.847504
70
192
0
VERTEX
8
MICR
10
0.402380
20
-2.168750
30
134.479889
70
192
0
VERTEX
8
MICR
10
0.250565
20
-1.565803
30
134.424637
70
192
0
VERTEX
8
MICR
10
0.548141
20
-1.565803
30
133.607040
70
192
0
VERTEX
8
MICR
10
0.699959
20
-2.168751
30
133.662292
70
192
0
VERTEX
8
MICR
10
-0.143688
20
-2.245255
30
134.281128
70
192
0
VERTEX
8
MICR
10
-0.143688
20
-1.621038
30
134.281128
70
192
0
VERTEX
8
MICR
10
0.153889
20
-1.621038
30
133.463547
70
192
0
VERTEX
8
MICR
10
0.153889
20
-2.245255
30
133.463547
70
192
0
VERTEX
8
MICR
10
-0.689758
20
-2.168750
30
134.082382
70
192
0
VERTEX
8
MICR
10
-0.537941
20
-1.565803
30
134.137634
70
192
0
VERTEX
8
MICR
10
-0.240364
20
-1.565803
30
133.320053
70
192
0
VERTEX
8
MICR
10
-0.392181
20
-2.168751
30
133.264786
70
192
0
VERTEX
8
MICR
10
-1.198612
20
-1.944448
30
133.897171
70
192
0
VERTEX
8
MICR
10
-0.905327
20
-1.403860
30
134.003922
70
192
0
VERTEX
8
MICR
10
-0.607750
20
-1.403860
30
133.186325
70
192
0
VERTEX
8
MICR
10
-0.901035
20
-1.944449
30
133.079590
70
192
0
VERTEX
8
MICR
10
-1.635578
20
-1.587635
30
133.738129
70
192
0
VERTEX
8
MICR
10
-1.220810
20
-1.146247
30
133.889099
70
192
0
VERTEX
8
MICR
10
-0.923229
20
-1.146247
30
133.071503
70
192
0
VERTEX
8
MICR
10
-1.338001
20
-1.587636
30
132.920547
70
192
0
VERTEX
8
MICR
10
-1.970871
20
-1.122628
30
133.616089
70
192
0
VERTEX
8
MICR
10
-1.462887
20
-0.810519
30
133.800980
70
192
0
VERTEX
8
MICR
10
-1.165310
20
-0.810519
30
132.983398
70
192
0
VERTEX
8
MICR
10
-1.673294
20
-1.122628
30
132.798508
70
192
0
VERTEX
8
MICR
10
-2.181648
20
-0.581115
30
133.539383
70
192
0
VERTEX
8
MICR
10
-1.615063
20
-0.419556
30
133.745590
70
192
0
VERTEX
8
MICR
10
-1.317486
20
-0.419556
30
132.928009
70
192
0
VERTEX
8
MICR
10
-1.884071
20
-0.581115
30
132.721786
70
192
0
VERTEX
8
MICR
10
-2.253540
20
-0.000000
30
133.513214
70
192
0
VERTEX
8
MICR
10
-1.666965
20
-0.000000
30
133.726700
70
192
0
VERTEX
8
MICR
10
-1.369389
20
-0.000000
30
132.909119
70
192
0
VERTEX
8
MICR
10
-1.955959
20
-0.000000
30
132.695618
70
192
0
VERTEX
8
MICR
10
-2.181648
20
0.581114
30
133.539368
70
192
0
VERTEX
8
MICR
10
-1.615063
20
0.419555
30
133.745590
70
192
0
VERTEX
8
MICR
10
-1.317486
20
0.419555
30
132.928009
70
192
0
VERTEX
8
MICR
10
-1.884071
20
0.581115
30
132.721786
70
192
0
VERTEX
8
MICR
10
-1.970871
20
1.122627
30
133.616089
70
192
0
VERTEX
8
MICR
10
-1.462887
20
0.810519
30
133.800980
70
192
0
VERTEX
8
MICR
10
-1.165310
20
0.810519
30
132.983398
70
192
0
VERTEX
8
MICR
10
-1.673294
20
1.122627
30
132.798508
70
192
0
VERTEX
8
MICR
10
-1.635578
20
1.587635
30
133.738129
70
192
0
VERTEX
8
MICR
10
-1.220810
20
1.146246
30
133.889084
70
192
0
VERTEX
8
MICR
10
-0.923229
20
1.146247
30
133.071503
70
192
0
VERTEX
8
MICR
10
-1.338001
20
1.587634
30
132.920532
70
192
0
VERTEX
8
MICR
10
-1.198612
20
1.944448
30
133.897171
70
192
0
VERTEX
8
MICR
10
-0.905327
20
1.403859
30
134.003922
70
192
0
VERTEX
8
MICR
10
-0.607750
20
1.403859
30
133.186325
70
192
0
VERTEX
8
MICR
10
-0.901035
20
1.944447
30
133.079575
70
192
0
VERTEX
8
MICR
10
-0.689758
20
2.168750
30
134.082382
70
192
0
VERTEX
8
MICR
10
-0.537941
20
1.565802
30
134.137634
70
192
0
VERTEX
8
MICR
10
-0.240364
20
1.565802
30
133.320038
70
192
0
VERTEX
8
MICR
10
-0.392179
20
2.168749
30
133.264786
70
192
0
VERTEX
8
MICR
10
75.237152
20
1.445050
30
161.271942
70
192
0
VERTEX
8
MICR
10
76.233383
20
0.944949
30
161.538895
70
192
0
VERTEX
8
MICR
10
75.966446
20
0.944949
30
162.001236
70
192
0
VERTEX
8
MICR
10
75.504089
20
0.944949
30
162.268188
70
192
0
VERTEX
8
MICR
10
74.970207
20
0.944949
30
162.268188
70
192
0
VERTEX
8
MICR
10
74.507851
20
0.944949
30
162.001236
70
192
0
VERTEX
8
MICR
10
74.240906
20
0.944949
30
161.538895
70
192
0
VERTEX
8
MICR
10
74.240906
20
0.944949
30
161.005005
70
192
0
VERTEX
8
MICR
10
74.507851
20
0.944949
30
160.542648
70
192
0
VERTEX
8
MICR
10
74.970207
20
0.944950
30
160.275711
70
192
0
VERTEX
8
MICR
10
75.504089
20
0.944950
30
160.275711
70
192
0
VERTEX
8
MICR
10
75.966446
20
0.944949
30
160.542648
70
192
0
VERTEX
8
MICR
10
76.233383
20
0.944949
30
161.005005
70
192
0
VERTEX
8
MICR
10
76.233383
20
-0.941985
30
161.538895
70
192
0
VERTEX
8
MICR
10
75.966446
20
-0.941985
30
162.001251
70
192
0
VERTEX
8
MICR
10
75.504089
20
-0.941985
30
162.268188
70
192
0
VERTEX
8
MICR
10
74.970207
20
-0.941985
30
162.268188
70
192
0
VERTEX
8
MICR
10
74.507851
20
-0.941985
30
162.001251
70
192
0
VERTEX
8
MICR
10
74.240906
20
-0.941985
30
161.538895
70
192
0
VERTEX
8
MICR
10
74.240906
20
-0.941985
30
161.005005
70
192
0
VERTEX
8
MICR
10
74.507851
20
-0.941985
30
160.542664
70
192
0
VERTEX
8
MICR
10
74.970207
20
-0.941985
30
160.275711
70
192
0
VERTEX
8
MICR
10
75.504089
20
-0.941985
30
160.275711
70
192
0
VERTEX
8
MICR
10
75.966446
20
-0.941985
30
160.542664
70
192
0
VERTEX
8
MICR
10
76.233383
20
-0.941985
30
161.005005
70
192
0
VERTEX
8
MICR
10
75.237152
20
-1.442085
30
161.271957
70
192
0
VERTEX
8
MICR
10
76.333389
20
0.945049
30
161.565689
70
192
0
VERTEX
8
MICR
10
76.039650
20
0.945049
30
162.074448
70
192
0
VERTEX
8
MICR
10
75.530884
20
0.945050
30
162.368179
70
192
0
VERTEX
8
MICR
10
74.943413
20
0.945050
30
162.368179
70
192
0
VERTEX
8
MICR
10
74.434647
20
0.945050
30
162.074448
70
192
0
VERTEX
8
MICR
10
74.140915
20
0.945049
30
161.565689
70
192
0
VERTEX
8
MICR
10
74.140915
20
0.945050
30
160.978210
70
192
0
VERTEX
8
MICR
10
74.434647
20
0.945049
30
160.469437
70
192
0
VERTEX
8
MICR
10
74.943413
20
0.945049
30
160.175705
70
192
0
VERTEX
8
MICR
10
75.530884
20
0.945049
30
160.175705
70
192
0
VERTEX
8
MICR
10
76.039650
20
0.945049
30
160.469437
70
192
0
VERTEX
8
MICR
10
76.333389
20
0.945050
30
160.978210
70
192
0
VERTEX
8
MICR
10
76.333389
20
-0.942085
30
161.565689
70
192
0
VERTEX
8
MICR
10
76.039650
20
-0.942085
30
162.074463
70
192
0
VERTEX
8
MICR
10
75.530884
20
-0.942085
30
162.368195
70
192
0
VERTEX
8
MICR
10
74.943413
20
-0.942085
30
162.368195
70
192
0
VERTEX
8
MICR
10
74.434647
20
-0.942085
30
162.074463
70
192
0
VERTEX
8
MICR
10
74.140915
20
-0.942085
30
161.565689
70
192
0
VERTEX
8
MICR
10
74.140915
20
-0.942085
30
160.978210
70
192
0
VERTEX
8
MICR
10
74.434647
20
-0.942085
30
160.469452
70
192
0
VERTEX
8
MICR
10
74.943413
20
-0.942085
30
160.175720
70
192
0
VERTEX
8
MICR
10
75.530884
20
-0.942085
30
160.175720
70
192
0
VERTEX
8
MICR
10
76.039650
20
-0.942085
30
160.469452
70
192
0
VERTEX
8
MICR
10
76.333389
20
-0.942085
30
160.978210
70
192
0
VERTEX
8
MICR
10
76.333389
20
1.345049
30
161.565689
70
192
0
VERTEX
8
MICR
10
76.039650
20
1.345050
30
162.074448
70
192
0
VERTEX
8
MICR
10
75.530884
20
1.345050
30
162.368179
70
192
0
VERTEX
8
MICR
10
74.943413
20
1.345050
30
162.368179
70
192
0
VERTEX
8
MICR
10
74.434647
20
1.345050
30
162.074448
70
192
0
VERTEX
8
MICR
10
74.140915
20
1.345050
30
161.565689
70
192
0
VERTEX
8
MICR
10
74.140915
20
1.345050
30
160.978210
70
192
0
VERTEX
8
MICR
10
74.434647
20
1.345050
30
160.469437
70
192
0
VERTEX
8
MICR
10
74.943413
20
1.345050
30
160.175705
70
192
0
VERTEX
8
MICR
10
75.530884
20
1.345049
30
160.175705
70
192
0
VERTEX
8
MICR
10
76.039650
20
1.345050
30
160.469437
70
192
0
VERTEX
8
MICR
10
76.333389
20
1.345050
30
160.978210
70
192
0
VERTEX
8
MICR
10
76.333389
20
-1.342085
30
161.565689
70
192
0
VERTEX
8
MICR
10
76.039650
20
-1.342085
30
162.074463
70
192
0
VERTEX
8
MICR
10
75.530884
20
-1.342085
30
162.368195
70
192
0
VERTEX
8
MICR
10
74.943413
20
-1.342085
30
162.368195
70
192
0
VERTEX
8
MICR
10
74.434647
20
-1.342085
30
162.074463
70
192
0
VERTEX
8
MICR
10
74.140915
20
-1.342085
30
161.565689
70
192
0
VERTEX
8
MICR
10
74.140915
20
-1.342085
30
160.978210
70
192
0
VERTEX
8
MICR
10
74.434647
20
-1.342085
30
160.469452
70
192
0
VERTEX
8
MICR
10
74.943413
20
-1.342085
30
160.175720
70
192
0
VERTEX
8
MICR
10
75.530884
20
-1.342085
30
160.175720
70
192
0
VERTEX
8
MICR
10
76.039650
20
-1.342085
30
160.469452
70
192
0
VERTEX
8
MICR
10
76.333389
20
-1.342085
30
160.978210
70
192
0
VERTEX
8
MICR
10
76.233383
20
1.445049
30
161.538895
70
192
0
VERTEX
8
MICR
10
75.966446
20
1.445050
30
162.001236
70
192
0
VERTEX
8
MICR
10
75.504089
20
1.445050
30
162.268188
70
192
0
VERTEX
8
MICR
10
74.970207
20
1.445050
30
162.268188
70
192
0
VERTEX
8
MICR
10
74.507851
20
1.445050
30
162.001236
70
192
0
VERTEX
8
MICR
10
74.240906
20
1.445050
30
161.538895
70
192
0
VERTEX
8
MICR
10
74.240906
20
1.445050
30
161.005005
70
192
0
VERTEX
8
MICR
10
74.507851
20
1.445050
30
160.542648
70
192
0
VERTEX
8
MICR
10
74.970207
20
1.445050
30
160.275711
70
192
0
VERTEX
8
MICR
10
75.504089
20
1.445049
30
160.275711
70
192
0
VERTEX
8
MICR
10
75.966446
20
1.445050
30
160.542648
70
192
0
VERTEX
8
MICR
10
76.233383
20
1.445050
30
161.005005
70
192
0
VERTEX
8
MICR
10
76.233383
20
-1.442085
30
161.538895
70
192
0
VERTEX
8
MICR
10
75.966446
20
-1.442085
30
162.001251
70
192
0
VERTEX
8
MICR
10
75.504089
20
-1.442085
30
162.268188
70
192
0
VERTEX
8
MICR
10
74.970207
20
-1.442085
30
162.268188
70
192
0
VERTEX
8
MICR
10
74.507851
20
-1.442085
30
162.001251
70
192
0
VERTEX
8
MICR
10
74.240906
20
-1.442085
30
161.538895
70
192
0
VERTEX
8
MICR
10
74.240906
20
-1.442085
30
161.005005
70
192
0
VERTEX
8
MICR
10
74.507851
20
-1.442085
30
160.542664
70
192
0
VERTEX
8
MICR
10
74.970207
20
-1.442085
30
160.275711
70
192
0
VERTEX
8
MICR
10
75.504089
20
-1.442085
30
160.275711
70
192
0
VERTEX
8
MICR
10
75.966446
20
-1.442085
30
160.542664
70
192
0
VERTEX
8
MICR
10
76.233383
20
-1.442085
30
161.005005
70
192
0
VERTEX
8
MICR
10
74.687653
20
-0.756363
30
159.498138
70
192
0
VERTEX
8
MICR
10
76.656555
20
-0.756363
30
160.025711
70
192
0
VERTEX
8
MICR
10
76.731445
20
-0.756363
30
163.099625
70
192
0
VERTEX
8
MICR
10
73.130119
20
-0.756363
30
162.449005
70
192
0
VERTEX
8
MICR
10
74.687653
20
0.766728
30
159.498138
70
192
0
VERTEX
8
MICR
10
76.656555
20
0.766728
30
160.025711
70
192
0
VERTEX
8
MICR
10
76.529999
20
0.766728
30
163.360016
70
192
0
VERTEX
8
MICR
10
73.070908
20
0.766728
30
162.300980
70
192
0
VERTEX
8
MICR
10
76.529999
20
-0.756363
30
163.360031
70
192
0
VERTEX
8
MICR
10
73.070908
20
-0.756363
30
162.300980
70
192
0
VERTEX
8
MICR
10
76.655289
20
0.766728
30
163.261429
70
192
0
VERTEX
8
MICR
10
73.130119
20
0.766728
30
162.449005
70
192
0
VERTEX
8
MICR
10
76.655289
20
-0.756363
30
163.261429
70
192
0
VERTEX
8
MICR
10
73.263847
20
-0.756363
30
162.567734
70
192
0
VERTEX
8
MICR
10
76.354813
20
0.766728
30
163.395966
70
192
0
VERTEX
8
MICR
10
73.085861
20
0.766728
30
162.122772
70
192
0
VERTEX
8
MICR
10
76.354813
20
-0.756363
30
163.395981
70
192
0
VERTEX
8
MICR
10
73.085861
20
-0.756363
30
162.122772
70
192
0
VERTEX
8
MICR
10
76.731445
20
0.766728
30
163.099609
70
192
0
VERTEX
8
MICR
10
73.263847
20
0.766728
30
162.567734
70
192
0
VERTEX
8
MICR
10
73.677361
20
-0.580256
30
162.678650
70
192
0
VERTEX
8
MICR
10
75.941254
20
0.590621
30
163.285278
70
192
0
VERTEX
8
MICR
10
75.941254
20
-0.580256
30
163.285278
70
192
0
VERTEX
8
MICR
10
73.677361
20
0.590621
30
162.678650
70
192
0
VERTEX
8
MICR
10
72.690475
20
-0.480256
30
166.748016
70
192
0
VERTEX
8
MICR
10
74.761185
20
0.490621
30
167.302872
70
192
0
VERTEX
8
MICR
10
74.761185
20
-0.480256
30
167.302872
70
192
0
VERTEX
8
MICR
10
72.690475
20
0.490621
30
166.748001
70
192
0
VERTEX
8
MICR
10
74.838013
20
1.875953
30
170.110016
70
192
0
VERTEX
8
MICR
10
74.886292
20
1.425679
30
169.929871
70
192
0
VERTEX
8
MICR
10
71.020653
20
1.425679
30
168.894073
70
192
0
VERTEX
8
MICR
10
70.972382
20
1.875953
30
169.074234
70
192
0
VERTEX
8
MICR
10
75.051704
20
2.040183
30
169.312515
70
192
0
VERTEX
8
MICR
10
75.051704
20
1.552809
30
169.312515
70
192
0
VERTEX
8
MICR
10
71.186066
20
1.552810
30
168.276718
70
192
0
VERTEX
8
MICR
10
71.186066
20
2.040183
30
168.276718
70
192
0
VERTEX
8
MICR
10
75.265396
20
1.875953
30
168.515015
70
192
0
VERTEX
8
MICR
10
75.217125
20
1.425679
30
168.695160
70
192
0
VERTEX
8
MICR
10
71.351486
20
1.425679
30
167.659378
70
192
0
VERTEX
8
MICR
10
71.399765
20
1.875953
30
167.479218
70
192
0
VERTEX
8
MICR
10
75.446548
20
1.408266
30
167.838913
70
192
0
VERTEX
8
MICR
10
75.357361
20
1.063641
30
168.171799
70
192
0
VERTEX
8
MICR
10
71.491730
20
1.063641
30
167.136002
70
192
0
VERTEX
8
MICR
10
71.580917
20
1.408266
30
166.803131
70
192
0
VERTEX
8
MICR
10
75.567596
20
0.708323
30
167.387161
70
192
0
VERTEX
8
MICR
10
75.451065
20
0.521814
30
167.822098
70
192
0
VERTEX
8
MICR
10
71.585426
20
0.521814
30
166.786301
70
192
0
VERTEX
8
MICR
10
71.701965
20
0.708323
30
166.351379
70
192
0
VERTEX
8
MICR
10
75.610107
20
-0.117316
30
167.228546
70
192
0
VERTEX
8
MICR
10
75.483963
20
-0.117316
30
167.699310
70
192
0
VERTEX
8
MICR
10
71.618332
20
-0.117315
30
166.663513
70
192
0
VERTEX
8
MICR
10
71.744476
20
-0.117315
30
166.192749
70
192
0
VERTEX
8
MICR
10
75.567596
20
-0.942954
30
167.387177
70
192
0
VERTEX
8
MICR
10
75.451065
20
-0.756445
30
167.822098
70
192
0
VERTEX
8
MICR
10
71.585426
20
-0.756445
30
166.786316
70
192
0
VERTEX
8
MICR
10
71.701965
20
-0.942954
30
166.351379
70
192
0
VERTEX
8
MICR
10
75.446556
20
-1.642897
30
167.838928
70
192
0
VERTEX
8
MICR
10
75.357361
20
-1.298272
30
168.171814
70
192
0
VERTEX
8
MICR
10
71.491730
20
-1.298272
30
167.136017
70
192
0
VERTEX
8
MICR
10
71.580917
20
-1.642897
30
166.803131
70
192
0
VERTEX
8
MICR
10
75.265396
20
-2.110584
30
168.515015
70
192
0
VERTEX
8
MICR
10
75.217125
20
-1.660310
30
168.695175
70
192
0
VERTEX
8
MICR
10
71.351486
20
-1.660310
30
167.659378
70
192
0
VERTEX
8
MICR
10
71.399765
20
-2.110584
30
167.479218
70
192
0
VERTEX
8
MICR
10
75.051704
20
-2.274814
30
169.312531
70
192
0
VERTEX
8
MICR
10
75.051704
20
-1.787441
30
169.312531
70
192
0
VERTEX
8
MICR
10
71.186066
20
-1.787441
30
168.276733
70
192
0
VERTEX
8
MICR
10
71.186066
20
-2.274814
30
168.276733
70
192
0
VERTEX
8
MICR
10
74.838013
20
-2.110584
30
170.110031
70
192
0
VERTEX
8
MICR
10
74.886292
20
-1.660310
30
169.929871
70
192
0
VERTEX
8
MICR
10
71.020653
20
-1.660310
30
168.894089
70
192
0
VERTEX
8
MICR
10
70.972382
20
-2.110584
30
169.074234
70
192
0
VERTEX
8
MICR
10
86.021317
20
-0.117316
30
169.641052
70
192
0
VERTEX
8
MICR
10
85.933884
20
1.143593
30
169.967361
70
192
0
VERTEX
8
MICR
10
85.694984
20
2.066643
30
170.858948
70
192
0
VERTEX
8
MICR
10
85.368637
20
2.404502
30
172.076904
70
192
0
VERTEX
8
MICR
10
85.042290
20
2.066643
30
173.294830
70
192
0
VERTEX
8
MICR
10
84.803375
20
1.143593
30
174.186447
70
192
0
VERTEX
8
MICR
10
84.715942
20
-0.117315
30
174.512802
70
192
0
VERTEX
8
MICR
10
84.803375
20
-1.378224
30
174.186462
70
192
0
VERTEX
8
MICR
10
85.042290
20
-2.301273
30
173.294830
70
192
0
VERTEX
8
MICR
10
85.368637
20
-2.639133
30
172.076920
70
192
0
VERTEX
8
MICR
10
85.694984
20
-2.301274
30
170.858963
70
192
0
VERTEX
8
MICR
10
85.933884
20
-1.378226
30
169.967361
70
192
0
VERTEX
8
MICR
10
87.138458
20
-0.117315
30
168.912491
70
192
0
VERTEX
8
MICR
10
87.016602
20
1.640030
30
169.367294
70
192
0
VERTEX
8
MICR
10
86.683624
20
2.926497
30
170.609955
70
192
0
VERTEX
8
MICR
10
86.228806
20
3.397376
30
172.307404
70
192
0
VERTEX
8
MICR
10
85.773972
20
2.926497
30
174.004868
70
192
0
VERTEX
8
MICR
10
85.441010
20
1.640031
30
175.247467
70
192
0
VERTEX
8
MICR
10
85.319138
20
-0.117315
30
175.702347
70
192
0
VERTEX
8
MICR
10
85.441010
20
-1.874661
30
175.247482
70
192
0
VERTEX
8
MICR
10
85.773972
20
-3.161127
30
174.004883
70
192
0
VERTEX
8
MICR
10
86.228806
20
-3.632007
30
172.307404
70
192
0
VERTEX
8
MICR
10
86.683624
20
-3.161129
30
170.609970
70
192
0
VERTEX
8
MICR
10
87.016602
20
-1.874664
30
169.367310
70
192
0
VERTEX
8
MICR
10
95.296204
20
-0.117313
30
171.394577
70
192
0
VERTEX
8
MICR
10
95.184280
20
1.496972
30
171.812317
70
192
0
VERTEX
8
MICR
10
94.878418
20
2.678710
30
172.953812
70
192
0
VERTEX
8
MICR
10
94.460602
20
3.111255
30
174.513062
70
192
0
VERTEX
8
MICR
10
94.042801
20
2.678710
30
176.072357
70
192
0
VERTEX
8
MICR
10
93.736946
20
1.496972
30
177.213837
70
192
0
VERTEX
8
MICR
10
93.624992
20
-0.117312
30
177.631653
70
192
0
VERTEX
8
MICR
10
93.736946
20
-1.731596
30
177.213837
70
192
0
VERTEX
8
MICR
10
94.042801
20
-2.913335
30
176.072357
70
192
0
VERTEX
8
MICR
10
94.460602
20
-3.345882
30
174.513077
70
192
0
VERTEX
8
MICR
10
94.878418
20
-2.913336
30
172.953827
70
192
0
VERTEX
8
MICR
10
95.184280
20
-1.731599
30
171.812332
70
192
0
VERTEX
8
MICR
10
95.688416
20
-0.117313
30
172.523300
70
192
0
VERTEX
8
MICR
10
95.610748
20
1.002597
30
172.813110
70
192
0
VERTEX
8
MICR
10
95.398560
20
1.822428
30
173.604996
70
192
0
VERTEX
8
MICR
10
95.108704
20
2.122506
30
174.686752
70
192
0
VERTEX
8
MICR
10
94.818855
20
1.822428
30
175.768524
70
192
0
VERTEX
8
MICR
10
94.606667
20
1.002597
30
176.560410
70
192
0
VERTEX
8
MICR
10
94.529007
20
-0.117312
30
176.850250
70
192
0
VERTEX
8
MICR
10
94.606667
20
-1.237222
30
176.560425
70
192
0
VERTEX
8
MICR
10
94.818855
20
-2.057053
30
175.768524
70
192
0
VERTEX
8
MICR
10
95.108704
20
-2.357132
30
174.686752
70
192
0
VERTEX
8
MICR
10
95.398560
20
-2.057054
30
173.605011
70
192
0
VERTEX
8
MICR
10
95.610748
20
-1.237224
30
172.813110
70
192
0
VERTEX
8
MICR
10
95.108704
20
-0.117313
30
174.686752
70
192
0
VERTEX
8
MICR
10
63.477413
20
-0.117316
30
166.211136
70
192
0
VERTEX
8
MICR
10
85.683578
20
-0.117316
30
170.515167
70
192
0
VERTEX
8
MICR
10
85.628448
20
0.677729
30
170.720901
70
192
0
VERTEX
8
MICR
10
85.477814
20
1.259724
30
171.283066
70
192
0
VERTEX
8
MICR
10
85.272041
20
1.472753
30
172.051025
70
192
0
VERTEX
8
MICR
10
85.066269
20
1.259724
30
172.818954
70
192
0
VERTEX
8
MICR
10
84.915634
20
0.677713
30
173.381149
70
192
0
VERTEX
8
MICR
10
84.860504
20
-0.117315
30
173.586914
70
192
0
VERTEX
8
MICR
10
84.915634
20
-0.912344
30
173.381149
70
192
0
VERTEX
8
MICR
10
85.066269
20
-1.494354
30
172.818954
70
192
0
VERTEX
8
MICR
10
85.272041
20
-1.707384
30
172.051025
70
192
0
VERTEX
8
MICR
10
85.477814
20
-1.494355
30
171.283081
70
192
0
VERTEX
8
MICR
10
85.628448
20
-0.912361
30
170.720917
70
192
0
VERTEX
8
MICR
10
84.427872
20
-0.117316
30
170.178696
70
192
0
VERTEX
8
MICR
10
84.372742
20
0.677729
30
170.384445
70
192
0
VERTEX
8
MICR
10
84.222107
20
1.259724
30
170.946594
70
192
0
VERTEX
8
MICR
10
84.016342
20
1.472753
30
171.714554
70
192
0
VERTEX
8
MICR
10
83.810570
20
1.259724
30
172.482483
70
192
0
VERTEX
8
MICR
10
83.659927
20
0.677713
30
173.044678
70
192
0
VERTEX
8
MICR
10
83.604797
20
-0.117315
30
173.250443
70
192
0
VERTEX
8
MICR
10
83.659927
20
-0.912344
30
173.044693
70
192
0
VERTEX
8
MICR
10
83.810570
20
-1.494354
30
172.482483
70
192
0
VERTEX
8
MICR
10
84.016342
20
-1.707384
30
171.714569
70
192
0
VERTEX
8
MICR
10
84.222107
20
-1.494355
30
170.946609
70
192
0
VERTEX
8
MICR
10
84.372742
20
-0.912361
30
170.384445
70
192
0
VERTEX
8
MICR
10
84.551331
20
-0.117316
30
169.717926
70
192
0
VERTEX
8
MICR
10
84.479668
20
0.916242
30
169.985397
70
192
0
VERTEX
8
MICR
10
84.283844
20
1.672836
30
170.716217
70
192
0
VERTEX
8
MICR
10
84.016342
20
1.949774
30
171.714554
70
192
0
VERTEX
8
MICR
10
83.748840
20
1.672836
30
172.712860
70
192
0
VERTEX
8
MICR
10
83.553009
20
0.916222
30
173.443710
70
192
0
VERTEX
8
MICR
10
83.481339
20
-0.117315
30
173.711212
70
192
0
VERTEX
8
MICR
10
83.553009
20
-1.150852
30
173.443710
70
192
0
VERTEX
8
MICR
10
83.748840
20
-1.907466
30
172.712860
70
192
0
VERTEX
8
MICR
10
84.016342
20
-2.184404
30
171.714554
70
192
0
VERTEX
8
MICR
10
84.283844
20
-1.907467
30
170.716217
70
192
0
VERTEX
8
MICR
10
84.479668
20
-1.150875
30
169.985413
70
192
0
VERTEX
8
MICR
10
79.045563
20
-0.117316
30
168.242661
70
192
0
VERTEX
8
MICR
10
78.973892
20
0.916242
30
168.510117
70
192
0
VERTEX
8
MICR
10
78.778076
20
1.672836
30
169.240936
70
192
0
VERTEX
8
MICR
10
78.510567
20
1.949774
30
170.239273
70
192
0
VERTEX
8
MICR
10
78.243073
20
1.672836
30
171.237579
70
192
0
VERTEX
8
MICR
10
78.047226
20
0.916222
30
171.968430
70
192
0
VERTEX
8
MICR
10
77.975555
20
-0.117315
30
172.235931
70
192
0
VERTEX
8
MICR
10
78.047226
20
-1.150852
30
171.968445
70
192
0
VERTEX
8
MICR
10
78.243073
20
-1.907466
30
171.237579
70
192
0
VERTEX
8
MICR
10
78.510567
20
-2.184404
30
170.239288
70
192
0
VERTEX
8
MICR
10
78.778076
20
-1.907467
30
169.240952
70
192
0
VERTEX
8
MICR
10
78.973892
20
-1.150875
30
168.510132
70
192
0
VERTEX
8
MICR
10
78.149353
20
-0.117316
30
168.496353
70
192
0
VERTEX
8
MICR
10
78.094223
20
0.677729
30
168.702103
70
192
0
VERTEX
8
MICR
10
77.943596
20
1.259724
30
169.264267
70
192
0
VERTEX
8
MICR
10
77.737823
20
1.472753
30
170.032211
70
192
0
VERTEX
8
MICR
10
77.532059
20
1.259724
30
170.800140
70
192
0
VERTEX
8
MICR
10
77.381409
20
0.677713
30
171.362335
70
192
0
VERTEX
8
MICR
10
77.326279
20
-0.117315
30
171.568115
70
192
0
VERTEX
8
MICR
10
77.381409
20
-0.912344
30
171.362350
70
192
0
VERTEX
8
MICR
10
77.532059
20
-1.494354
30
170.800140
70
192
0
VERTEX
8
MICR
10
77.737823
20
-1.707384
30
170.032227
70
192
0
VERTEX
8
MICR
10
77.943596
20
-1.494355
30
169.264267
70
192
0
VERTEX
8
MICR
10
78.094223
20
-0.912361
30
168.702103
70
192
0
VERTEX
8
MICR
10
67.524185
20
-0.117316
30
165.649323
70
192
0
VERTEX
8
MICR
10
67.469055
20
0.677729
30
165.855072
70
192
0
VERTEX
8
MICR
10
67.318420
20
1.259724
30
166.417236
70
192
0
VERTEX
8
MICR
10
67.112648
20
1.472753
30
167.185181
70
192
0
VERTEX
8
MICR
10
66.906876
20
1.259724
30
167.953110
70
192
0
VERTEX
8
MICR
10
66.756233
20
0.677713
30
168.515305
70
192
0
VERTEX
8
MICR
10
66.701103
20
-0.117315
30
168.721085
70
192
0
VERTEX
8
MICR
10
66.756233
20
-0.912344
30
168.515320
70
192
0
VERTEX
8
MICR
10
66.906876
20
-1.494354
30
167.953125
70
192
0
VERTEX
8
MICR
10
67.112648
20
-1.707384
30
167.185196
70
192
0
VERTEX
8
MICR
10
67.318420
20
-1.494355
30
166.417236
70
192
0
VERTEX
8
MICR
10
67.469055
20
-0.912361
30
165.855072
70
192
0
VERTEX
8
MICR
10
67.211159
20
-0.117316
30
165.071609
70
192
0
VERTEX
8
MICR
10
67.139488
20
0.916242
30
165.339081
70
192
0
VERTEX
8
MICR
10
66.943665
20
1.672836
30
166.069885
70
192
0
VERTEX
8
MICR
10
66.676163
20
1.949774
30
167.068222
70
192
0
VERTEX
8
MICR
10
66.408661
20
1.672836
30
168.066528
70
192
0
VERTEX
8
MICR
10
66.212830
20
0.916222
30
168.797379
70
192
0
VERTEX
8
MICR
10
66.141159
20
-0.117315
30
169.064880
70
192
0
VERTEX
8
MICR
10
66.212830
20
-1.150852
30
168.797394
70
192
0
VERTEX
8
MICR
10
66.408661
20
-1.907466
30
168.066544
70
192
0
VERTEX
8
MICR
10
66.676163
20
-2.184404
30
167.068237
70
192
0
VERTEX
8
MICR
10
66.943665
20
-1.907467
30
166.069901
70
192
0
VERTEX
8
MICR
10
67.139488
20
-1.150875
30
165.339081
70
192
0
VERTEX
8
MICR
10
65.762268
20
-0.117316
30
164.683380
70
192
0
VERTEX
8
MICR
10
65.690598
20
0.916242
30
164.950836
70
192
0
VERTEX
8
MICR
10
65.494781
20
1.672836
30
165.681656
70
192
0
VERTEX
8
MICR
10
65.227280
20
1.949773
30
166.679993
70
192
0
VERTEX
8
MICR
10
64.959778
20
1.672836
30
167.678299
70
192
0
VERTEX
8
MICR
10
64.763947
20
0.916222
30
168.409149
70
192
0
VERTEX
8
MICR
10
64.692276
20
-0.117315
30
168.676651
70
192
0
VERTEX
8
MICR
10
64.763947
20
-1.150852
30
168.409164
70
192
0
VERTEX
8
MICR
10
64.959778
20
-1.907466
30
167.678299
70
192
0
VERTEX
8
MICR
10
65.227280
20
-2.184404
30
166.679993
70
192
0
VERTEX
8
MICR
10
65.494781
20
-1.907467
30
165.681656
70
192
0
VERTEX
8
MICR
10
65.690598
20
-1.150875
30
164.950851
70
192
0
VERTEX
8
MICR
10
65.205956
20
-0.117316
30
165.028168
70
192
0
VERTEX
8
MICR
10
65.150826
20
0.677729
30
165.233902
70
192
0
VERTEX
8
MICR
10
65.000198
20
1.259724
30
165.796066
70
192
0
VERTEX
8
MICR
10
64.794418
20
1.472753
30
166.564026
70
192
0
VERTEX
8
MICR
10
64.588654
20
1.259724
30
167.331940
70
192
0
VERTEX
8
MICR
10
64.438011
20
0.677713
30
167.894150
70
192
0
VERTEX
8
MICR
10
64.382881
20
-0.117315
30
168.099915
70
192
0
VERTEX
8
MICR
10
64.438011
20
-0.912344
30
167.894150
70
192
0
VERTEX
8
MICR
10
64.588654
20
-1.494355
30
167.331955
70
192
0
VERTEX
8
MICR
10
64.794418
20
-1.707384
30
166.564026
70
192
0
VERTEX
8
MICR
10
65.000198
20
-1.494356
30
165.796066
70
192
0
VERTEX
8
MICR
10
65.150826
20
-0.912361
30
165.233917
70
192
0
VERTEX
8
MICR
10
64.046844
20
-0.117316
30
164.717575
70
192
0
VERTEX
8
MICR
10
63.991714
20
0.677729
30
164.923325
70
192
0
VERTEX
8
MICR
10
63.841084
20
1.259724
30
165.485474
70
192
0
VERTEX
8
MICR
10
63.635311
20
1.472753
30
166.253433
70
192
0
VERTEX
8
MICR
10
63.429543
20
1.259724
30
167.021362
70
192
0
VERTEX
8
MICR
10
63.278900
20
0.677713
30
167.583557
70
192
0
VERTEX
8
MICR
10
63.223770
20
-0.117315
30
167.789322
70
192
0
VERTEX
8
MICR
10
63.278900
20
-0.912344
30
167.583557
70
192
0
VERTEX
8
MICR
10
63.429543
20
-1.494355
30
167.021362
70
192
0
VERTEX
8
MICR
10
63.635311
20
-1.707384
30
166.253448
70
192
0
VERTEX
8
MICR
10
63.841084
20
-1.494355
30
165.485489
70
192
0
VERTEX
8
MICR
10
63.991714
20
-0.912361
30
164.923325
70
192
0
VERTEX
8
MICR
10
63.862152
20
-0.117316
30
164.775269
70
192
0
VERTEX
8
MICR
10
63.810616
20
0.625966
30
164.967621
70
192
0
VERTEX
8
MICR
10
63.669788
20
1.170066
30
165.493179
70
192
0
VERTEX
8
MICR
10
63.477413
20
1.369225
30
166.211136
70
192
0
VERTEX
8
MICR
10
63.285042
20
1.170066
30
166.929047
70
192
0
VERTEX
8
MICR
10
63.144203
20
0.625949
30
167.454651
70
192
0
VERTEX
8
MICR
10
63.092667
20
-0.117315
30
167.647034
70
192
0
VERTEX
8
MICR
10
63.144203
20
-0.860579
30
167.454651
70
192
0
VERTEX
8
MICR
10
63.285042
20
-1.404697
30
166.929062
70
192
0
VERTEX
8
MICR
10
63.477413
20
-1.603856
30
166.211136
70
192
0
VERTEX
8
MICR
10
63.669788
20
-1.404698
30
165.493179
70
192
0
VERTEX
8
MICR
10
63.810616
20
-0.860599
30
164.967621
70
192
0
VERTEX
8
MICR
10
2.000000
20
-0.000002
30
12.883217
70
192
0
VERTEX
8
MICR
10
1.732050
20
0.999998
30
12.883217
70
192
0
VERTEX
8
MICR
10
1.000000
20
1.732049
30
12.883217
70
192
0
VERTEX
8
MICR
10
0.000000
20
1.999998
30
12.883217
70
192
0
VERTEX
8
MICR
10
-1.000000
20
1.732049
30
12.883217
70
192
0
VERTEX
8
MICR
10
-1.732052
20
0.999999
30
12.883217
70
192
0
VERTEX
8
MICR
10
-2.000000
20
-0.000001
30
12.883217
70
192
0
VERTEX
8
MICR
10
-1.732052
20
-1.000001
30
12.883217
70
192
0
VERTEX
8
MICR
10
-1.000000
20
-1.732052
30
12.883217
70
192
0
VERTEX
8
MICR
10
0.000000
20
-2.000002
30
12.883217
70
192
0
VERTEX
8
MICR
10
0.999998
20
-1.732053
30
12.883217
70
192
0
VERTEX
8
MICR
10
1.732050
20
-1.000003
30
12.883217
70
192
0
VERTEX
8
MICR
10
2.000000
20
0.000000
30
19.883217
70
192
0
VERTEX
8
MICR
10
1.732050
20
1.000000
30
19.883217
70
192
0
VERTEX
8
MICR
10
1.000000
20
1.732051
30
19.883217
70
192
0
VERTEX
8
MICR
10
0.000000
20
2.000000
30
19.883217
70
192
0
VERTEX
8
MICR
10
-1.000000
20
1.732051
30
19.883217
70
192
0
VERTEX
8
MICR
10
-1.732052
20
1.000000
30
19.883217
70
192
0
VERTEX
8
MICR
10
-2.000000
20
0.000000
30
19.883217
70
192
0
VERTEX
8
MICR
10
-1.732052
20
-1.000000
30
19.883217
70
192
0
VERTEX
8
MICR
10
-1.000000
20
-1.732050
30
19.883217
70
192
0
VERTEX
8
MICR
10
0.000000
20
-2.000000
30
19.883217
70
192
0
VERTEX
8
MICR
10
0.999998
20
-1.732051
30
19.883217
70
192
0
VERTEX
8
MICR
10
1.732050
20
-1.000001
30
19.883217
70
192
0
VERTEX
8
MICR
10
0.000000
20
0.000000
30
19.883217
70
192
0
VERTEX
8
MICR
10
0.000000
20
-0.000002
30
12.883217
70
192
0
VERTEX
8
MICR
10
0
20
0
30
0
70
128
71
1
72
2
73
-3
0
VERTEX
8
MICR
10
0
20
0
30
0
70
128
71
-1
72
3
73
4
0
VERTEX
8
MICR
10
0
20
0
30
0
70
128
71
1
72
5
73
-6
0
VERTEX
8
MICR
10
0
20
0
30
0
70
128
71
-1
72
6
73
2
0
VERTEX
8
MICR
10
0
20
0
30
0
70
128
71
2
72
6
73
-7
0
VERTEX
8
MICR
10
0
20
0
30
0
70
128
71
-2
72
7
73
3
0
VERTEX
8
MICR
10
0
20
0
30
0
70
128
71
3
72
7
73
-8
0
VERTEX
8
MICR
10
0
20
0
30
0
70
128
71
-3
72
8
73
4
0
VERTEX
8
MICR
10
0
20
0
30
0
70
128
71
4
72
8
73
-5
0
VERTEX
8
MICR
10
0
20
0
30
0
70
128
71
-4
72
5
73
1
0
VERTEX
8
MICR
10
0
20
0
30
0
70
128
71
5
72
8
73
-7
0
VERTEX
8
MICR
10
0
20
0
30
0
70
128
71
-5
72
7
73
6
0
VERTEX
8
MICR
10
0
20
0
30
0
70
128
71
9
72
10
73
-11
0
VERTEX
8
MICR
10
0
20
0
30
0
70
128
71
-9
72
11
73
12
0
VERTEX
8
MICR
10
0
20
0
30
0
70
128
71
10
72
13
73
-14
0
VERTEX
8
MICR
10
0
20
0
30
0
70
128
71
-10
72
14
73
11
0
VERTEX
8
MICR
10
0
20
0
30
0
70
128
71
13
72
15
73
-16
0
VERTEX
8
MICR
10
0
20
0
30
0
70
128
71
-13
72
16
73
14
0
VERTEX
8
MICR
10
0
20
0
30
0
70
128
71
15
72
17
73
-18
0
VERTEX
8
MICR
10
0
20
0
30
0
70
128
71
-15
72
18
73
16
0
VERTEX
8
MICR
10
0
20
0
30
0
70
128
71
17
72
19
73
-20
0
VERTEX
8
MICR
10
0
20
0
30
0
70
128
71
-17
72
20
73
18
0
VERTEX
8
MICR
10
0
20
0
30
0
70
128
71
19
72
21
73
-22
0
VERTEX
8
MICR
10
0
20
0
30
0
70
128
71
-19
72
22
73
20
0
VERTEX
8
MICR
10
0
20
0
30
0
70
128
71
21
72
23
73
-24
0
VERTEX
8
MICR
10
0
20
0
30
0
70
128
71
-21
72
24
73
22
0
VERTEX
8
MICR
10
0
20
0
30
0
70
128
71
23
72
25
73
-26
0
VERTEX
8
MICR
10
0
20
0
30
0
70
128
71
-23
72
26
73
24
0
VERTEX
8
MICR
10
0
20
0
30
0
70
128
71
25
72
27
73
-28
0
VERTEX
8
MICR
10
0
20
0
30
0
70
128
71
-25
72
28
73
26
0
VERTEX
8
MICR
10
0
20
0
30
0
70
128
71
27
72
29
73
-30
0
VERTEX
8
MICR
10
0
20
0
30
0
70
128
71
-27
72
30
73
28
0
VERTEX
8
MICR
10
0
20
0
30
0
70
128
71
29
72
31
73
-32
0
VERTEX
8
MICR
10
0
20
0
30
0
70
128
71
-29
72
32
73
30
0
VERTEX
8
MICR
10
0
20
0
30
0
70
128
71
31
72
9
73
-12
0
VERTEX
8
MICR
10
0
20
0
30
0
70
128
71
-31
72
12
73
32
0
VERTEX
8
MICR
10
0
20
0
30
0
70
128
71
48
72
-47
73
-33
0
VERTEX
8
MICR
10
0
20
0
30
0
70
128
71
49
72
-48
73
-33
0
VERTEX
8
MICR
10
0
20
0
30
0
70
128
71
50
72
-49
73
-33
0
VERTEX
8
MICR
10
0
20
0
30
0
70
128
71
51
72
-50
73
-33
0
VERTEX
8
MICR
10
0
20
0
30
0
70
128
71
52
72
-51
73
-33
0
VERTEX
8
MICR
10
0
20
0
30
0
70
128
71
53
72
-52
73
-33
0
VERTEX
8
MICR
10
0
20
0
30
0
70
128
71
54
72
-53
73
-33
0
VERTEX
8
MICR
10
0
20
0
30
0
70
128
71
55
72
-54
73
-33
0
VERTEX
8
MICR
10
0
20
0
30
0
70
128
71
56
72
-55
73
-33
0
VERTEX
8
MICR
10
0
20
0
30
0
70
128
71
57
72
-56
73
-33
0
VERTEX
8
MICR
10
0
20
0
30
0
70
128
71
58
72
-57
73
-33
0
VERTEX
8
MICR
10
0
20
0
30
0
70
128
71
47
72
-58
73
-33
0
VERTEX
8
MICR
10
0
20
0
30
0
70
128
71
60
72
-59
73
-34
0
VERTEX
8
MICR
10
0
20
0
30
0
70
128
71
59
72
-61
73
-34
0
VERTEX
8
MICR
10
0
20
0
30
0
70
128
71
61
72
-62
73
-34
0
VERTEX
8
MICR
10
0
20
0
30
0
70
128
71
62
72
-63
73
-34
0
VERTEX
8
MICR
10
0
20
0
30
0
70
128
71
63
72
-64
73
-34
0
VERTEX
8
MICR
10
0
20
0
30
0
70
128
71
64
72
-65
73
-34
0
VERTEX
8
MICR
10
0
20
0
30
0
70
128
71
65
72
-66
73
-34
0
VERTEX
8
MICR
10
0
20
0
30
0
70
128
71
66
72
-67
73
-34
0
VERTEX
8
MICR
10
0
20
0
30
0
70
128
71
67
72
-68
73
-34
0
VERTEX
8
MICR
10
0
20
0
30
0
70
128
71
68
72
-69
73
-34
0
VERTEX
8
MICR
10
0
20
0
30
0
70
128
71
69
72
-70
73
-34
0
VERTEX
8
MICR
10
0
20
0
30
0
70
128
71
70
72
-60
73
-34
0
VERTEX
8
MICR
10
0
20
0
30
0
70
128
71
10
72
9
73
-35
0
VERTEX
8
MICR
10
0
20
0
30
0
70
128
71
35
72
36
73
-10
0
VERTEX
8
MICR
10
0
20
0
30
0
70
128
71
13
72
10
73
-36
0
VERTEX
8
MICR
10
0
20
0
30
0
70
128
71
36
72
37
73
-13
0
VERTEX
8
MICR
10
0
20
0
30
0
70
128
71
15
72
13
73
-37
0
VERTEX
8
MICR
10
0
20
0
30
0
70
128
71
37
72
38
73
-15
0
VERTEX
8
MICR
10
0
20
0
30
0
70
128
71
17
72
15
73
-38
0
VERTEX
8
MICR
10
0
20
0
30
0
70
128
71
38
72
39
73
-17
0
VERTEX
8
MICR
10
0
20
0
30
0
70
128
71
19
72
17
73
-39
0
VERTEX
8
MICR
10
0
20
0
30
0
70
128
71
39
72
40
73
-19
0
VERTEX
8
MICR
10
0
20
0
30
0
70
128
71
21
72
19
73
-40
0
VERTEX
8
MICR
10
0
20
0
30
0
70
128
71
40
72
41
73
-21
0
VERTEX
8
MICR
10
0
20
0
30
0
70
128
71
23
72
21
73
-41
0
VERTEX
8
MICR
10
0
20
0
30
0
70
128
71
41
72
42
73
-23
0
VERTEX
8
MICR
10
0
20
0
30
0
70
128
71
25
72
23
73
-42
0
VERTEX
8
MICR
10
0
20
0
30
0
70
128
71
42
72
43
73
-25
0
VERTEX
8
MICR
10
0
20
0
30
0
70
128
71
27
72
25
73
-43
0
VERTEX
8
MICR
10
0
20
0
30
0
70
128
71
43
72
44
73
-27
0
VERTEX
8
MICR
10
0
20
0
30
0
70
128
71
29
72
27
73
-44
0
VERTEX
8
MICR
10
0
20
0
30
0
70
128
71
44
72
45
73
-29
0
VERTEX
8
MICR
10
0
20
0
30
0
70
128
71
31
72
29
73
-45
0
VERTEX
8
MICR
10
0
20
0
30
0
70
128
71
45
72
46
73
-31
0
VERTEX
8
MICR
10
0
20
0
30
0
70
128
71
9
72
31
73
-46
0
VERTEX
8
MICR
10
0
20
0
30
0
70
128
71
46
72
35
73
-9
0
VERTEX
8
MICR
10
0
20
0
30
0
70
128
71
36
72
35
73
-47
0
VERTEX
8
MICR
10
0
20
0
30
0
70
128
71
47
72
48
73
-36
0
VERTEX
8
MICR
10
0
20
0
30
0
70
128
71
37
72
36
73
-48
0
VERTEX
8
MICR
10
0
20
0
30
0
70
128
71
48
72
49
73
-37
0
VERTEX
8
MICR
10
0
20
0
30
0
70
128
71
38
72
37
73
-49
0
VERTEX
8
MICR
10
0
20
0
30
0
70
128
71
49
72
50
73
-38
0
VERTEX
8
MICR
10
0
20
0
30
0
70
128
71
39
72
38
73
-50
0
VERTEX
8
MICR
10
0
20
0
30
0
70
128
71
50
72
51
73
-39
0
VERTEX
8
MICR
10
0
20
0
30
0
70
128
71
40
72
39
73
-51
0
VERTEX
8
MICR
10
0
20
0
30
0
70
128
71
51
72
52
73
-40
0
VERTEX
8
MICR
10
0
20
0
30
0
70
128
71
41
72
40
73
-52
0
VERTEX
8
MICR
10
0
20
0
30
0
70
128
71
52
72
53
73
-41
0
VERTEX
8
MICR
10
0
20
0
30
0
70
128
71
42
72
41
73
-53
0
VERTEX
8
MICR
10
0
20
0
30
0
70
128
71
53
72
54
73
-42
0
VERTEX
8
MICR
10
0
20
0
30
0
70
128
71
43
72
42
73
-54
0
VERTEX
8
MICR
10
0
20
0
30
0
70
128
71
54
72
55
73
-43
0
VERTEX
8
MICR
10
0
20
0
30
0
70
128
71
44
72
43
73
-55
0
VERTEX
8
MICR
10
0
20
0
30
0
70
128
71
55
72
56
73
-44
0
VERTEX
8
MICR
10
0
20
0
30
0
70
128
71
45
72
44
73
-56
0
VERTEX
8
MICR
10
0
20
0
30
0
70
128
71
56
72
57
73
-45
0
VERTEX
8
MICR
10
0
20
0
30
0
70
128
71
46
72
45
73
-57
0
VERTEX
8
MICR
10
0
20
0
30
0
70
128
71
57
72
58
73
-46
0
VERTEX
8
MICR
10
0
20
0
30
0
70
128
71
35
72
46
73
-58
0
VERTEX
8
MICR
10
0
20
0
30
0
70
128
71
58
72
47
73
-35
0
VERTEX
8
MICR
10
0
20
0
30
0
70
128
71
12
72
11
73
-59
0
VERTEX
8
MICR
10
0
20
0
30
0
70
128
71
59
72
60
73
-12
0
VERTEX
8
MICR
10
0
20
0
30
0
70
128
71
11
72
14
73
-61
0
VERTEX
8
MICR
10
0
20
0
30
0
70
128
71
61
72
59
73
-11
0
VERTEX
8
MICR
10
0
20
0
30
0
70
128
71
14
72
16
73
-62
0
VERTEX
8
MICR
10
0
20
0
30
0
70
128
71
62
72
61
73
-14
0
VERTEX
8
MICR
10
0
20
0
30
0
70
128
71
16
72
18
73
-63
0
VERTEX
8
MICR
10
0
20
0
30
0
70
128
71
63
72
62
73
-16
0
VERTEX
8
MICR
10
0
20
0
30
0
70
128
71
18
72
20
73
-64
0
VERTEX
8
MICR
10
0
20
0
30
0
70
128
71
64
72
63
73
-18
0
VERTEX
8
MICR
10
0
20
0
30
0
70
128
71
20
72
22
73
-65
0
VERTEX
8
MICR
10
0
20
0
30
0
70
128
71
65
72
64
73
-20
0
VERTEX
8
MICR
10
0
20
0
30
0
70
128
71
22
72
24
73
-66
0
VERTEX
8
MICR
10
0
20
0
30
0
70
128
71
66
72
65
73
-22
0
VERTEX
8
MICR
10
0
20
0
30
0
70
128
71
24
72
26
73
-67
0
VERTEX
8
MICR
10
0
20
0
30
0
70
128
71
67
72
66
73
-24
0
VERTEX
8
MICR
10
0
20
0
30
0
70
128
71
26
72
28
73
-68
0
VERTEX
8
MICR
10
0
20
0
30
0
70
128
71
68
72
67
73
-26
0
VERTEX
8
MICR
10
0
20
0
30
0
70
128
71
28
72
30
73
-69
0
VERTEX
8
MICR
10
0
20
0
30
0
70
128
71
69
72
68
73
-28
0
VERTEX
8
MICR
10
0
20
0
30
0
70
128
71
30
72
32
73
-70
0
VERTEX
8
MICR
10
0
20
0
30
0
70
128
71
70
72
69
73
-30
0
VERTEX
8
MICR
10
0
20
0
30
0
70
128
71
32
72
12
73
-60
0
VERTEX
8
MICR
10
0
20
0
30
0
70
128
71
60
72
70
73
-32
0
VERTEX
8
MICR
10
0
20
0
30
0
70
128
71
-71
72
73
73
72
0
VERTEX
8
MICR
10
0
20
0
30
0
70
128
71
71
72
74
73
-73
0
VERTEX
8
MICR
10
0
20
0
30
0
70
128
71
-71
72
76
73
75
0
VERTEX
8
MICR
10
0
20
0
30
0
70
128
71
71
72
72
73
-76
0
VERTEX
8
MICR
10
0
20
0
30
0
70
128
71
-72
72
77
73
76
0
VERTEX
8
MICR
10
0
20
0
30
0
70
128
71
72
72
73
73
-77
0
VERTEX
8
MICR
10
0
20
0
30
0
70
128
71
-73
72
78
73
77
0
VERTEX
8
MICR
10
0
20
0
30
0
70
128
71
73
72
74
73
-78
0
VERTEX
8
MICR
10
0
20
0
30
0
70
128
71
-74
72
75
73
78
0
VERTEX
8
MICR
10
0
20
0
30
0
70
128
71
74
72
71
73
-75
0
VERTEX
8
MICR
10
0
20
0
30
0
70
128
71
-75
72
77
73
78
0
VERTEX
8
MICR
10
0
20
0
30
0
70
128
71
75
72
76
73
-77
0
VERTEX
8
MICR
10
0
20
0
30
0
70
128
71
-79
72
81
73
80
0
VERTEX
8
MICR
10
0
20
0
30
0
70
128
71
79
72
82
73
-81
0
VERTEX
8
MICR
10
0
20
0
30
0
70
128
71
-80
72
84
73
83
0
VERTEX
8
MICR
10
0
20
0
30
0
70
128
71
80
72
81
73
-84
0
VERTEX
8
MICR
10
0
20
0
30
0
70
128
71
-83
72
86
73
85
0
VERTEX
8
MICR
10
0
20
0
30
0
70
128
71
83
72
84
73
-86
0
VERTEX
8
MICR
10
0
20
0
30
0
70
128
71
-85
72
88
73
87
0
VERTEX
8
MICR
10
0
20
0
30
0
70
128
71
85
72
86
73
-88
0
VERTEX
8
MICR
10
0
20
0
30
0
70
128
71
-87
72
90
73
89
0
VERTEX
8
MICR
10
0
20
0
30
0
70
128
71
87
72
88
73
-90
0
VERTEX
8
MICR
10
0
20
0
30
0
70
128
71
-89
72
92
73
91
0
VERTEX
8
MICR
10
0
20
0
30
0
70
128
71
89
72
90
73
-92
0
VERTEX
8
MICR
10
0
20
0
30
0
70
128
71
-91
72
94
73
93
0
VERTEX
8
MICR
10
0
20
0
30
0
70
128
71
91
72
92
73
-94
0
VERTEX
8
MICR
10
0
20
0
30
0
70
128
71
-93
72
96
73
95
0
VERTEX
8
MICR
10
0
20
0
30
0
70
128
71
93
72
94
73
-96
0
VERTEX
8
MICR
10
0
20
0
30
0
70
128
71
-95
72
98
73
97
0
VERTEX
8
MICR
10
0
20
0
30
0
70
128
71
95
72
96
73
-98
0
VERTEX
8
MICR
10
0
20
0
30
0
70
128
71
-97
72
100
73
99
0
VERTEX
8
MICR
10
0
20
0
30
0
70
128
71
97
72
98
73
-100
0
VERTEX
8
MICR
10
0
20
0
30
0
70
128
71
-99
72
102
73
101
0
VERTEX
8
MICR
10
0
20
0
30
0
70
128
71
99
72
100
73
-102
0
VERTEX
8
MICR
10
0
20
0
30
0
70
128
71
-101
72
82
73
79
0
VERTEX
8
MICR
10
0
20
0
30
0
70
128
71
101
72
102
73
-82
0
VERTEX
8
MICR
10
0
20
0
30
0
70
128
71
-118
72
-103
73
117
0
VERTEX
8
MICR
10
0
20
0
30
0
70
128
71
-119
72
-103
73
118
0
VERTEX
8
MICR
10
0
20
0
30
0
70
128
71
-120
72
-103
73
119
0
VERTEX
8
MICR
10
0
20
0
30
0
70
128
71
-121
72
-103
73
120
0
VERTEX
8
MICR
10
0
20
0
30
0
70
128
71
-122
72
-103
73
121
0
VERTEX
8
MICR
10
0
20
0
30
0
70
128
71
-123
72
-103
73
122
0
VERTEX
8
MICR
10
0
20
0
30
0
70
128
71
-124
72
-103
73
123
0
VERTEX
8
MICR
10
0
20
0
30
0
70
128
71
-125
72
-103
73
124
0
VERTEX
8
MICR
10
0
20
0
30
0
70
128
71
-126
72
-103
73
125
0
VERTEX
8
MICR
10
0
20
0
30
0
70
128
71
-127
72
-103
73
126
0
VERTEX
8
MICR
10
0
20
0
30
0
70
128
71
-128
72
-103
73
127
0
VERTEX
8
MICR
10
0
20
0
30
0
70
128
71
-117
72
-103
73
128
0
VERTEX
8
MICR
10
0
20
0
30
0
70
128
71
-130
72
-104
73
129
0
VERTEX
8
MICR
10
0
20
0
30
0
70
128
71
-129
72
-104
73
131
0
VERTEX
8
MICR
10
0
20
0
30
0
70
128
71
-131
72
-104
73
132
0
VERTEX
8
MICR
10
0
20
0
30
0
70
128
71
-132
72
-104
73
133
0
VERTEX
8
MICR
10
0
20
0
30
0
70
128
71
-133
72
-104
73
134
0
VERTEX
8
MICR
10
0
20
0
30
0
70
128
71
-134
72
-104
73
135
0
VERTEX
8
MICR
10
0
20
0
30
0
70
128
71
-135
72
-104
73
136
0
VERTEX
8
MICR
10
0
20
0
30
0
70
128
71
-136
72
-104
73
137
0
VERTEX
8
MICR
10
0
20
0
30
0
70
128
71
-137
72
-104
73
138
0
VERTEX
8
MICR
10
0
20
0
30
0
70
128
71
-138
72
-104
73
139
0
VERTEX
8
MICR
10
0
20
0
30
0
70
128
71
-139
72
-104
73
140
0
VERTEX
8
MICR
10
0
20
0
30
0
70
128
71
-140
72
-104
73
130
0
VERTEX
8
MICR
10
0
20
0
30
0
70
128
71
-80
72
105
73
79
0
VERTEX
8
MICR
10
0
20
0
30
0
70
128
71
-105
72
80
73
106
0
VERTEX
8
MICR
10
0
20
0
30
0
70
128
71
-83
72
106
73
80
0
VERTEX
8
MICR
10
0
20
0
30
0
70
128
71
-106
72
83
73
107
0
VERTEX
8
MICR
10
0
20
0
30
0
70
128
71
-85
72
107
73
83
0
VERTEX
8
MICR
10
0
20
0
30
0
70
128
71
-107
72
85
73
108
0
VERTEX
8
MICR
10
0
20
0
30
0
70
128
71
-87
72
108
73
85
0
VERTEX
8
MICR
10
0
20
0
30
0
70
128
71
-108
72
87
73
109
0
VERTEX
8
MICR
10
0
20
0
30
0
70
128
71
-89
72
109
73
87
0
VERTEX
8
MICR
10
0
20
0
30
0
70
128
71
-109
72
89
73
110
0
VERTEX
8
MICR
10
0
20
0
30
0
70
128
71
-91
72
110
73
89
0
VERTEX
8
MICR
10
0
20
0
30
0
70
128
71
-110
72
91
73
111
0
VERTEX
8
MICR
10
0
20
0
30
0
70
128
71
-93
72
111
73
91
0
VERTEX
8
MICR
10
0
20
0
30
0
70
128
71
-111
72
93
73
112
0
VERTEX
8
MICR
10
0
20
0
30
0
70
128
71
-95
72
112
73
93
0
VERTEX
8
MICR
10
0
20
0
30
0
70
128
71
-112
72
95
73
113
0
VERTEX
8
MICR
10
0
20
0
30
0
70
128
71
-97
72
113
73
95
0
VERTEX
8
MICR
10
0
20
0
30
0
70
128
71
-113
72
97
73
114
0
VERTEX
8
MICR
10
0
20
0
30
0
70
128
71
-99
72
114
73
97
0
VERTEX
8
MICR
10
0
20
0
30
0
70
128
71
-114
72
99
73
115
0
VERTEX
8
MICR
10
0
20
0
30
0
70
128
71
-101
72
115
73
99
0
VERTEX
8
MICR
10
0
20
0
30
0
70
128
71
-115
72
101
73
116
0
VERTEX
8
MICR
10
0
20
0
30
0
70
128
71
-79
72
116
73
101
0
VERTEX
8
MICR
10
0
20
0
30
0
70
128
71
-116
72
79
73
105
0
VERTEX
8
MICR
10
0
20
0
30
0
70
128
71
-106
72
117
73
105
0
VERTEX
8
MICR
10
0
20
0
30
0
70
128
71
-117
72
106
73
118
0
VERTEX
8
MICR
10
0
20
0
30
0
70
128
71
-107
72
118
73
106
0
VERTEX
8
MICR
10
0
20
0
30
0
70
128
71
-118
72
107
73
119
0
VERTEX
8
MICR
10
0
20
0
30
0
70
128
71
-108
72
119
73
107
0
VERTEX
8
MICR
10
0
20
0
30
0
70
128
71
-119
72
108
73
120
0
VERTEX
8
MICR
10
0
20
0
30
0
70
128
71
-109
72
120
73
108
0
VERTEX
8
MICR
10
0
20
0
30
0
70
128
71
-120
72
109
73
121
0
VERTEX
8
MICR
10
0
20
0
30
0
70
128
71
-110
72
121
73
109
0
VERTEX
8
MICR
10
0
20
0
30
0
70
128
71
-121
72
110
73
122
0
VERTEX
8
MICR
10
0
20
0
30
0
70
128
71
-111
72
122
73
110
0
VERTEX
8
MICR
10
0
20
0
30
0
70
128
71
-122
72
111
73
123
0
VERTEX
8
MICR
10
0
20
0
30
0
70
128
71
-112
72
123
73
111
0
VERTEX
8
MICR
10
0
20
0
30
0
70
128
71
-123
72
112
73
124
0
VERTEX
8
MICR
10
0
20
0
30
0
70
128
71
-113
72
124
73
112
0
VERTEX
8
MICR
10
0
20
0
30
0
70
128
71
-124
72
113
73
125
0
VERTEX
8
MICR
10
0
20
0
30
0
70
128
71
-114
72
125
73
113
0
VERTEX
8
MICR
10
0
20
0
30
0
70
128
71
-125
72
114
73
126
0
VERTEX
8
MICR
10
0
20
0
30
0
70
128
71
-115
72
126
73
114
0
VERTEX
8
MICR
10
0
20
0
30
0
70
128
71
-126
72
115
73
127
0
VERTEX
8
MICR
10
0
20
0
30
0
70
128
71
-116
72
127
73
115
0
VERTEX
8
MICR
10
0
20
0
30
0
70
128
71
-127
72
116
73
128
0
VERTEX
8
MICR
10
0
20
0
30
0
70
128
71
-105
72
128
73
116
0
VERTEX
8
MICR
10
0
20
0
30
0
70
128
71
-128
72
105
73
117
0
VERTEX
8
MICR
10
0
20
0
30
0
70
128
71
-82
72
129
73
81
0
VERTEX
8
MICR
10
0
20
0
30
0
70
128
71
-129
72
82
73
130
0
VERTEX
8
MICR
10
0
20
0
30
0
70
128
71
-81
72
131
73
84
0
VERTEX
8
MICR
10
0
20
0
30
0
70
128
71
-131
72
81
73
129
0
VERTEX
8
MICR
10
0
20
0
30
0
70
128
71
-84
72
132
73
86
0
VERTEX
8
MICR
10
0
20
0
30
0
70
128
71
-132
72
84
73
131
0
VERTEX
8
MICR
10
0
20
0
30
0
70
128
71
-86
72
133
73
88
0
VERTEX
8
MICR
10
0
20
0
30
0
70
128
71
-133
72
86
73
132
0
VERTEX
8
MICR
10
0
20
0
30
0
70
128
71
-88
72
134
73
90
0
VERTEX
8
MICR
10
0
20
0
30
0
70
128
71
-134
72
88
73
133
0
VERTEX
8
MICR
10
0
20
0
30
0
70
128
71
-90
72
135
73
92
0
VERTEX
8
MICR
10
0
20
0
30
0
70
128
71
-135
72
90
73
134
0
VERTEX
8
MICR
10
0
20
0
30
0
70
128
71
-92
72
136
73
94
0
VERTEX
8
MICR
10
0
20
0
30
0
70
128
71
-136
72
92
73
135
0
VERTEX
8
MICR
10
0
20
0
30
0
70
128
71
-94
72
137
73
96
0
VERTEX
8
MICR
10
0
20
0
30
0
70
128
71
-137
72
94
73
136
0
VERTEX
8
MICR
10
0
20
0
30
0
70
128
71
-96
72
138
73
98
0
VERTEX
8
MICR
10
0
20
0
30
0
70
128
71
-138
72
96
73
137
0
VERTEX
8
MICR
10
0
20
0
30
0
70
128
71
-98
72
139
73
100
0
VERTEX
8
MICR
10
0
20
0
30
0
70
128
71
-139
72
98
73
138
0
VERTEX
8
MICR
10
0
20
0
30
0
70
128
71
-100
72
140
73
102
0
VERTEX
8
MICR
10
0
20
0
30
0
70
128
71
-140
72
100
73
139
0
VERTEX
8
MICR
10
0
20
0
30
0
70
128
71
-102
72
130
73
82
0
VERTEX
8
MICR
10
0
20
0
30
0
70
128
71
-130
72
102
73
140
0
VERTEX
8
MICR
10
0
20
0
30
0
70
128
71
141
72
142
73
-143
0
VERTEX
8
MICR
10
0
20
0
30
0
70
128
71
-141
72
143
73
144
0
VERTEX
8
MICR
10
0
20
0
30
0
70
128
71
141
72
145
73
-146
0
VERTEX
8
MICR
10
0
20
0
30
0
70
128
71
-141
72
146
73
142
0
VERTEX
8
MICR
10
0
20
0
30
0
70
128
71
142
72
146
73
-147
0
VERTEX
8
MICR
10
0
20
0
30
0
70
128
71
-142
72
147
73
143
0
VERTEX
8
MICR
10
0
20
0
30
0
70
128
71
143
72
147
73
-148
0
VERTEX
8
MICR
10
0
20
0
30
0
70
128
71
-143
72
148
73
144
0
VERTEX
8
MICR
10
0
20
0
30
0
70
128
71
144
72
148
73
-145
0
VERTEX
8
MICR
10
0
20
0
30
0
70
128
71
-144
72
145
73
141
0
VERTEX
8
MICR
10
0
20
0
30
0
70
128
71
145
72
148
73
-147
0
VERTEX
8
MICR
10
0
20
0
30
0
70
128
71
-145
72
147
73
146
0
VERTEX
8
MICR
10
0
20
0
30
0
70
128
71
149
72
150
73
-151
0
VERTEX
8
MICR
10
0
20
0
30
0
70
128
71
-149
72
151
73
152
0
VERTEX
8
MICR
10
0
20
0
30
0
70
128
71
150
72
153
73
-154
0
VERTEX
8
MICR
10
0
20
0
30
0
70
128
71
-150
72
154
73
151
0
VERTEX
8
MICR
10
0
20
0
30
0
70
128
71
153
72
155
73
-156
0
VERTEX
8
MICR
10
0
20
0
30
0
70
128
71
-153
72
156
73
154
0
VERTEX
8
MICR
10
0
20
0
30
0
70
128
71
155
72
157
73
-158
0
VERTEX
8
MICR
10
0
20
0
30
0
70
128
71
-155
72
158
73
156
0
VERTEX
8
MICR
10
0
20
0
30
0
70
128
71
157
72
159
73
-160
0
VERTEX
8
MICR
10
0
20
0
30
0
70
128
71
-157
72
160
73
158
0
VERTEX
8
MICR
10
0
20
0
30
0
70
128
71
159
72
161
73
-162
0
VERTEX
8
MICR
10
0
20
0
30
0
70
128
71
-159
72
162
73
160
0
VERTEX
8
MICR
10
0
20
0
30
0
70
128
71
161
72
163
73
-164
0
VERTEX
8
MICR
10
0
20
0
30
0
70
128
71
-161
72
164
73
162
0
VERTEX
8
MICR
10
0
20
0
30
0
70
128
71
163
72
165
73
-166
0
VERTEX
8
MICR
10
0
20
0
30
0
70
128
71
-163
72
166
73
164
0
VERTEX
8
MICR
10
0
20
0
30
0
70
128
71
165
72
167
73
-168
0
VERTEX
8
MICR
10
0
20
0
30
0
70
128
71
-165
72
168
73
166
0
VERTEX
8
MICR
10
0
20
0
30
0
70
128
71
167
72
169
73
-170
0
VERTEX
8
MICR
10
0
20
0
30
0
70
128
71
-167
72
170
73
168
0
VERTEX
8
MICR
10
0
20
0
30
0
70
128
71
169
72
171
73
-172
0
VERTEX
8
MICR
10
0
20
0
30
0
70
128
71
-169
72
172
73
170
0
VERTEX
8
MICR
10
0
20
0
30
0
70
128
71
171
72
149
73
-152
0
VERTEX
8
MICR
10
0
20
0
30
0
70
128
71
-171
72
152
73
172
0
VERTEX
8
MICR
10
0
20
0
30
0
70
128
71
188
72
-187
73
-173
0
VERTEX
8
MICR
10
0
20
0
30
0
70
128
71
189
72
-188
73
-173
0
VERTEX
8
MICR
10
0
20
0
30
0
70
128
71
190
72
-189
73
-173
0
VERTEX
8
MICR
10
0
20
0
30
0
70
128
71
191
72
-190
73
-173
0
VERTEX
8
MICR
10
0
20
0
30
0
70
128
71
192
72
-191
73
-173
0
VERTEX
8
MICR
10
0
20
0
30
0
70
128
71
193
72
-192
73
-173
0
VERTEX
8
MICR
10
0
20
0
30
0
70
128
71
194
72
-193
73
-173
0
VERTEX
8
MICR
10
0
20
0
30
0
70
128
71
195
72
-194
73
-173
0
VERTEX
8
MICR
10
0
20
0
30
0
70
128
71
196
72
-195
73
-173
0
VERTEX
8
MICR
10
0
20
0
30
0
70
128
71
197
72
-196
73
-173
0
VERTEX
8
MICR
10
0
20
0
30
0
70
128
71
198
72
-197
73
-173
0
VERTEX
8
MICR
10
0
20
0
30
0
70
128
71
187
72
-198
73
-173
0
VERTEX
8
MICR
10
0
20
0
30
0
70
128
71
200
72
-199
73
-174
0
VERTEX
8
MICR
10
0
20
0
30
0
70
128
71
199
72
-201
73
-174
0
VERTEX
8
MICR
10
0
20
0
30
0
70
128
71
201
72
-202
73
-174
0
VERTEX
8
MICR
10
0
20
0
30
0
70
128
71
202
72
-203
73
-174
0
VERTEX
8
MICR
10
0
20
0
30
0
70
128
71
203
72
-204
73
-174
0
VERTEX
8
MICR
10
0
20
0
30
0
70
128
71
204
72
-205
73
-174
0
VERTEX
8
MICR
10
0
20
0
30
0
70
128
71
205
72
-206
73
-174
0
VERTEX
8
MICR
10
0
20
0
30
0
70
128
71
206
72
-207
73
-174
0
VERTEX
8
MICR
10
0
20
0
30
0
70
128
71
207
72
-208
73
-174
0
VERTEX
8
MICR
10
0
20
0
30
0
70
128
71
208
72
-209
73
-174
0
VERTEX
8
MICR
10
0
20
0
30
0
70
128
71
209
72
-210
73
-174
0
VERTEX
8
MICR
10
0
20
0
30
0
70
128
71
210
72
-200
73
-174
0
VERTEX
8
MICR
10
0
20
0
30
0
70
128
71
150
72
149
73
-175
0
VERTEX
8
MICR
10
0
20
0
30
0
70
128
71
175
72
176
73
-150
0
VERTEX
8
MICR
10
0
20
0
30
0
70
128
71
153
72
150
73
-176
0
VERTEX
8
MICR
10
0
20
0
30
0
70
128
71
176
72
177
73
-153
0
VERTEX
8
MICR
10
0
20
0
30
0
70
128
71
155
72
153
73
-177
0
VERTEX
8
MICR
10
0
20
0
30
0
70
128
71
177
72
178
73
-155
0
VERTEX
8
MICR
10
0
20
0
30
0
70
128
71
157
72
155
73
-178
0
VERTEX
8
MICR
10
0
20
0
30
0
70
128
71
178
72
179
73
-157
0
VERTEX
8
MICR
10
0
20
0
30
0
70
128
71
159
72
157
73
-179
0
VERTEX
8
MICR
10
0
20
0
30
0
70
128
71
179
72
180
73
-159
0
VERTEX
8
MICR
10
0
20
0
30
0
70
128
71
161
72
159
73
-180
0
VERTEX
8
MICR
10
0
20
0
30
0
70
128
71
180
72
181
73
-161
0
VERTEX
8
MICR
10
0
20
0
30
0
70
128
71
163
72
161
73
-181
0
VERTEX
8
MICR
10
0
20
0
30
0
70
128
71
181
72
182
73
-163
0
VERTEX
8
MICR
10
0
20
0
30
0
70
128
71
165
72
163
73
-182
0
VERTEX
8
MICR
10
0
20
0
30
0
70
128
71
182
72
183
73
-165
0
VERTEX
8
MICR
10
0
20
0
30
0
70
128
71
167
72
165
73
-183
0
VERTEX
8
MICR
10
0
20
0
30
0
70
128
71
183
72
184
73
-167
0
VERTEX
8
MICR
10
0
20
0
30
0
70
128
71
169
72
167
73
-184
0
VERTEX
8
MICR
10
0
20
0
30
0
70
128
71
184
72
185
73
-169
0
VERTEX
8
MICR
10
0
20
0
30
0
70
128
71
171
72
169
73
-185
0
VERTEX
8
MICR
10
0
20
0
30
0
70
128
71
185
72
186
73
-171
0
VERTEX
8
MICR
10
0
20
0
30
0
70
128
71
149
72
171
73
-186
0
VERTEX
8
MICR
10
0
20
0
30
0
70
128
71
186
72
175
73
-149
0
VERTEX
8
MICR
10
0
20
0
30
0
70
128
71
176
72
175
73
-187
0
VERTEX
8
MICR
10
0
20
0
30
0
70
128
71
187
72
188
73
-176
0
VERTEX
8
MICR
10
0
20
0
30
0
70
128
71
177
72
176
73
-188
0
VERTEX
8
MICR
10
0
20
0
30
0
70
128
71
188
72
189
73
-177
0
VERTEX
8
MICR
10
0
20
0
30
0
70
128
71
178
72
177
73
-189
0
VERTEX
8
MICR
10
0
20
0
30
0
70
128
71
189
72
190
73
-178
0
VERTEX
8
MICR
10
0
20
0
30
0
70
128
71
179
72
178
73
-190
0
VERTEX
8
MICR
10
0
20
0
30
0
70
128
71
190
72
191
73
-179
0
VERTEX
8
MICR
10
0
20
0
30
0
70
128
71
180
72
179
73
-191
0
VERTEX
8
MICR
10
0
20
0
30
0
70
128
71
191
72
192
73
-180
0
VERTEX
8
MICR
10
0
20
0
30
0
70
128
71
181
72
180
73
-192
0
VERTEX
8
MICR
10
0
20
0
30
0
70
128
71
192
72
193
73
-181
0
VERTEX
8
MICR
10
0
20
0
30
0
70
128
71
182
72
181
73
-193
0
VERTEX
8
MICR
10
0
20
0
30
0
70
128
71
193
72
194
73
-182
0
VERTEX
8
MICR
10
0
20
0
30
0
70
128
71
183
72
182
73
-194
0
VERTEX
8
MICR
10
0
20
0
30
0
70
128
71
194
72
195
73
-183
0
VERTEX
8
MICR
10
0
20
0
30
0
70
128
71
184
72
183
73
-195
0
VERTEX
8
MICR
10
0
20
0
30
0
70
128
71
195
72
196
73
-184
0
VERTEX
8
MICR
10
0
20
0
30
0
70
128
71
185
72
184
73
-196
0
VERTEX
8
MICR
10
0
20
0
30
0
70
128
71
196
72
197
73
-185
0
VERTEX
8
MICR
10
0
20
0
30
0
70
128
71
186
72
185
73
-197
0
VERTEX
8
MICR
10
0
20
0
30
0
70
128
71
197
72
198
73
-186
0
VERTEX
8
MICR
10
0
20
0
30
0
70
128
71
175
72
186
73
-198
0
VERTEX
8
MICR
10
0
20
0
30
0
70
128
71
198
72
187
73
-175
0
VERTEX
8
MICR
10
0
20
0
30
0
70
128
71
152
72
151
73
-199
0
VERTEX
8
MICR
10
0
20
0
30
0
70
128
71
199
72
200
73
-152
0
VERTEX
8
MICR
10
0
20
0
30
0
70
128
71
151
72
154
73
-201
0
VERTEX
8
MICR
10
0
20
0
30
0
70
128
71
201
72
199
73
-151
0
VERTEX
8
MICR
10
0
20
0
30
0
70
128
71
154
72
156
73
-202
0
VERTEX
8
MICR
10
0
20
0
30
0
70
128
71
202
72
201
73
-154
0
VERTEX
8
MICR
10
0
20
0
30
0
70
128
71
156
72
158
73
-203
0
VERTEX
8
MICR
10
0
20
0
30
0
70
128
71
203
72
202
73
-156
0
VERTEX
8
MICR
10
0
20
0
30
0
70
128
71
158
72
160
73
-204
0
VERTEX
8
MICR
10
0
20
0
30
0
70
128
71
204
72
203
73
-158
0
VERTEX
8
MICR
10
0
20
0
30
0
70
128
71
160
72
162
73
-205
0
VERTEX
8
MICR
10
0
20
0
30
0
70
128
71
205
72
204
73
-160
0
VERTEX
8
MICR
10
0
20
0
30
0
70
128
71
162
72
164
73
-206
0
VERTEX
8
MICR
10
0
20
0
30
0
70
128
71
206
72
205
73
-162
0
VERTEX
8
MICR
10
0
20
0
30
0
70
128
71
164
72
166
73
-207
0
VERTEX
8
MICR
10
0
20
0
30
0
70
128
71
207
72
206
73
-164
0
VERTEX
8
MICR
10
0
20
0
30
0
70
128
71
166
72
168
73
-208
0
VERTEX
8
MICR
10
0
20
0
30
0
70
128
71
208
72
207
73
-166
0
VERTEX
8
MICR
10
0
20
0
30
0
70
128
71
168
72
170
73
-209
0
VERTEX
8
MICR
10
0
20
0
30
0
70
128
71
209
72
208
73
-168
0
VERTEX
8
MICR
10
0
20
0
30
0
70
128
71
170
72
172
73
-210
0
VERTEX
8
MICR
10
0
20
0
30
0
70
128
71
210
72
209
73
-170
0
VERTEX
8
MICR
10
0
20
0
30
0
70
128
71
172
72
152
73
-200
0
VERTEX
8
MICR
10
0
20
0
30
0
70
128
71
200
72
210
73
-172
0
VERTEX
8
MICR
10
0
20
0
30
0
70
128
71
-211
72
213
73
212
0
VERTEX
8
MICR
10
0
20
0
30
0
70
128
71
211
72
214
73
-213
0
VERTEX
8
MICR
10
0
20
0
30
0
70
128
71
-211
72
216
73
215
0
VERTEX
8
MICR
10
0
20
0
30
0
70
128
71
211
72
212
73
-216
0
VERTEX
8
MICR
10
0
20
0
30
0
70
128
71
-212
72
217
73
216
0
VERTEX
8
MICR
10
0
20
0
30
0
70
128
71
212
72
213
73
-217
0
VERTEX
8
MICR
10
0
20
0
30
0
70
128
71
-213
72
218
73
217
0
VERTEX
8
MICR
10
0
20
0
30
0
70
128
71
213
72
214
73
-218
0
VERTEX
8
MICR
10
0
20
0
30
0
70
128
71
-214
72
215
73
218
0
VERTEX
8
MICR
10
0
20
0
30
0
70
128
71
214
72
211
73
-215
0
VERTEX
8
MICR
10
0
20
0
30
0
70
128
71
-215
72
217
73
218
0
VERTEX
8
MICR
10
0
20
0
30
0
70
128
71
215
72
216
73
-217
0
VERTEX
8
MICR
10
0
20
0
30
0
70
128
71
-219
72
221
73
220
0
VERTEX
8
MICR
10
0
20
0
30
0
70
128
71
219
72
222
73
-221
0
VERTEX
8
MICR
10
0
20
0
30
0
70
128
71
-220
72
224
73
223
0
VERTEX
8
MICR
10
0
20
0
30
0
70
128
71
220
72
221
73
-224
0
VERTEX
8
MICR
10
0
20
0
30
0
70
128
71
-223
72
226
73
225
0
VERTEX
8
MICR
10
0
20
0
30
0
70
128
71
223
72
224
73
-226
0
VERTEX
8
MICR
10
0
20
0
30
0
70
128
71
-225
72
228
73
227
0
VERTEX
8
MICR
10
0
20
0
30
0
70
128
71
225
72
226
73
-228
0
VERTEX
8
MICR
10
0
20
0
30
0
70
128
71
-227
72
230
73
229
0
VERTEX
8
MICR
10
0
20
0
30
0
70
128
71
227
72
228
73
-230
0
VERTEX
8
MICR
10
0
20
0
30
0
70
128
71
-229
72
232
73
231
0
VERTEX
8
MICR
10
0
20
0
30
0
70
128
71
229
72
230
73
-232
0
VERTEX
8
MICR
10
0
20
0
30
0
70
128
71
-231
72
234
73
233
0
VERTEX
8
MICR
10
0
20
0
30
0
70
128
71
231
72
232
73
-234
0
VERTEX
8
MICR
10
0
20
0
30
0
70
128
71
-233
72
236
73
235
0
VERTEX
8
MICR
10
0
20
0
30
0
70
128
71
233
72
234
73
-236
0
VERTEX
8
MICR
10
0
20
0
30
0
70
128
71
-235
72
238
73
237
0
VERTEX
8
MICR
10
0
20
0
30
0
70
128
71
235
72
236
73
-238
0
VERTEX
8
MICR
10
0
20
0
30
0
70
128
71
-237
72
240
73
239
0
VERTEX
8
MICR
10
0
20
0
30
0
70
128
71
237
72
238
73
-240
0
VERTEX
8
MICR
10
0
20
0
30
0
70
128
71
-239
72
242
73
241
0
VERTEX
8
MICR
10
0
20
0
30
0
70
128
71
239
72
240
73
-242
0
VERTEX
8
MICR
10
0
20
0
30
0
70
128
71
-241
72
222
73
219
0
VERTEX
8
MICR
10
0
20
0
30
0
70
128
71
241
72
242
73
-222
0
VERTEX
8
MICR
10
0
20
0
30
0
70
128
71
-258
72
-243
73
257
0
VERTEX
8
MICR
10
0
20
0
30
0
70
128
71
-259
72
-243
73
258
0
VERTEX
8
MICR
10
0
20
0
30
0
70
128
71
-260
72
-243
73
259
0
VERTEX
8
MICR
10
0
20
0
30
0
70
128
71
-261
72
-243
73
260
0
VERTEX
8
MICR
10
0
20
0
30
0
70
128
71
-262
72
-243
73
261
0
VERTEX
8
MICR
10
0
20
0
30
0
70
128
71
-263
72
-243
73
262
0
VERTEX
8
MICR
10
0
20
0
30
0
70
128
71
-264
72
-243
73
263
0
VERTEX
8
MICR
10
0
20
0
30
0
70
128
71
-265
72
-243
73
264
0
VERTEX
8
MICR
10
0
20
0
30
0
70
128
71
-266
72
-243
73
265
0
VERTEX
8
MICR
10
0
20
0
30
0
70
128
71
-267
72
-243
73
266
0
VERTEX
8
MICR
10
0
20
0
30
0
70
128
71
-268
72
-243
73
267
0
VERTEX
8
MICR
10
0
20
0
30
0
70
128
71
-257
72
-243
73
268
0
VERTEX
8
MICR
10
0
20
0
30
0
70
128
71
-270
72
-244
73
269
0
VERTEX
8
MICR
10
0
20
0
30
0
70
128
71
-269
72
-244
73
271
0
VERTEX
8
MICR
10
0
20
0
30
0
70
128
71
-271
72
-244
73
272
0
VERTEX
8
MICR
10
0
20
0
30
0
70
128
71
-272
72
-244
73
273
0
VERTEX
8
MICR
10
0
20
0
30
0
70
128
71
-273
72
-244
73
274
0
VERTEX
8
MICR
10
0
20
0
30
0
70
128
71
-274
72
-244
73
275
0
VERTEX
8
MICR
10
0
20
0
30
0
70
128
71
-275
72
-244
73
276
0
VERTEX
8
MICR
10
0
20
0
30
0
70
128
71
-276
72
-244
73
277
0
VERTEX
8
MICR
10
0
20
0
30
0
70
128
71
-277
72
-244
73
278
0
VERTEX
8
MICR
10
0
20
0
30
0
70
128
71
-278
72
-244
73
279
0
VERTEX
8
MICR
10
0
20
0
30
0
70
128
71
-279
72
-244
73
280
0
VERTEX
8
MICR
10
0
20
0
30
0
70
128
71
-280
72
-244
73
270
0
VERTEX
8
MICR
10
0
20
0
30
0
70
128
71
-220
72
245
73
219
0
VERTEX
8
MICR
10
0
20
0
30
0
70
128
71
-245
72
220
73
246
0
VERTEX
8
MICR
10
0
20
0
30
0
70
128
71
-223
72
246
73
220
0
VERTEX
8
MICR
10
0
20
0
30
0
70
128
71
-246
72
223
73
247
0
VERTEX
8
MICR
10
0
20
0
30
0
70
128
71
-225
72
247
73
223
0
VERTEX
8
MICR
10
0
20
0
30
0
70
128
71
-247
72
225
73
248
0
VERTEX
8
MICR
10
0
20
0
30
0
70
128
71
-227
72
248
73
225
0
VERTEX
8
MICR
10
0
20
0
30
0
70
128
71
-248
72
227
73
249
0
VERTEX
8
MICR
10
0
20
0
30
0
70
128
71
-229
72
249
73
227
0
VERTEX
8
MICR
10
0
20
0
30
0
70
128
71
-249
72
229
73
250
0
VERTEX
8
MICR
10
0
20
0
30
0
70
128
71
-231
72
250
73
229
0
VERTEX
8
MICR
10
0
20
0
30
0
70
128
71
-250
72
231
73
251
0
VERTEX
8
MICR
10
0
20
0
30
0
70
128
71
-233
72
251
73
231
0
VERTEX
8
MICR
10
0
20
0
30
0
70
128
71
-251
72
233
73
252
0
VERTEX
8
MICR
10
0
20
0
30
0
70
128
71
-235
72
252
73
233
0
VERTEX
8
MICR
10
0
20
0
30
0
70
128
71
-252
72
235
73
253
0
VERTEX
8
MICR
10
0
20
0
30
0
70
128
71
-237
72
253
73
235
0
VERTEX
8
MICR
10
0
20
0
30
0
70
128
71
-253
72
237
73
254
0
VERTEX
8
MICR
10
0
20
0
30
0
70
128
71
-239
72
254
73
237
0
VERTEX
8
MICR
10
0
20
0
30
0
70
128
71
-254
72
239
73
255
0
VERTEX
8
MICR
10
0
20
0
30
0
70
128
71
-241
72
255
73
239
0
VERTEX
8
MICR
10
0
20
0
30
0
70
128
71
-255
72
241
73
256
0
VERTEX
8
MICR
10
0
20
0
30
0
70
128
71
-219
72
256
73
241
0
VERTEX
8
MICR
10
0
20
0
30
0
70
128
71
-256
72
219
73
245
0
VERTEX
8
MICR
10
0
20
0
30
0
70
128
71
-246
72
257
73
245
0
VERTEX
8
MICR
10
0
20
0
30
0
70
128
71
-257
72
246
73
258
0
VERTEX
8
MICR
10
0
20
0
30
0
70
128
71
-247
72
258
73
246
0
VERTEX
8
MICR
10
0
20
0
30
0
70
128
71
-258
72
247
73
259
0
VERTEX
8
MICR
10
0
20
0
30
0
70
128
71
-248
72
259
73
247
0
VERTEX
8
MICR
10
0
20
0
30
0
70
128
71
-259
72
248
73
260
0
VERTEX
8
MICR
10
0
20
0
30
0
70
128
71
-249
72
260
73
248
0
VERTEX
8
MICR
10
0
20
0
30
0
70
128
71
-260
72
249
73
261
0
VERTEX
8
MICR
10
0
20
0
30
0
70
128
71
-250
72
261
73
249
0
VERTEX
8
MICR
10
0
20
0
30
0
70
128
71
-261
72
250
73
262
0
VERTEX
8
MICR
10
0
20
0
30
0
70
128
71
-251
72
262
73
250
0
VERTEX
8
MICR
10
0
20
0
30
0
70
128
71
-262
72
251
73
263
0
VERTEX
8
MICR
10
0
20
0
30
0
70
128
71
-252
72
263
73
251
0
VERTEX
8
MICR
10
0
20
0
30
0
70
128
71
-263
72
252
73
264
0
VERTEX
8
MICR
10
0
20
0
30
0
70
128
71
-253
72
264
73
252
0
VERTEX
8
MICR
10
0
20
0
30
0
70
128
71
-264
72
253
73
265
0
VERTEX
8
MICR
10
0
20
0
30
0
70
128
71
-254
72
265
73
253
0
VERTEX
8
MICR
10
0
20
0
30
0
70
128
71
-265
72
254
73
266
0
VERTEX
8
MICR
10
0
20
0
30
0
70
128
71
-255
72
266
73
254
0
VERTEX
8
MICR
10
0
20
0
30
0
70
128
71
-266
72
255
73
267
0
VERTEX
8
MICR
10
0
20
0
30
0
70
128
71
-256
72
267
73
255
0
VERTEX
8
MICR
10
0
20
0
30
0
70
128
71
-267
72
256
73
268
0
VERTEX
8
MICR
10
0
20
0
30
0
70
128
71
-245
72
268
73
256
0
VERTEX
8
MICR
10
0
20
0
30
0
70
128
71
-268
72
245
73
257
0
VERTEX
8
MICR
10
0
20
0
30
0
70
128
71
-222
72
269
73
221
0
VERTEX
8
MICR
10
0
20
0
30
0
70
128
71
-269
72
222
73
270
0
VERTEX
8
MICR
10
0
20
0
30
0
70
128
71
-221
72
271
73
224
0
VERTEX
8
MICR
10
0
20
0
30
0
70
128
71
-271
72
221
73
269
0
VERTEX
8
MICR
10
0
20
0
30
0
70
128
71
-224
72
272
73
226
0
VERTEX
8
MICR
10
0
20
0
30
0
70
128
71
-272
72
224
73
271
0
VERTEX
8
MICR
10
0
20
0
30
0
70
128
71
-226
72
273
73
228
0
VERTEX
8
MICR
10
0
20
0
30
0
70
128
71
-273
72
226
73
272
0
VERTEX
8
MICR
10
0
20
0
30
0
70
128
71
-228
72
274
73
230
0
VERTEX
8
MICR
10
0
20
0
30
0
70
128
71
-274
72
228
73
273
0
VERTEX
8
MICR
10
0
20
0
30
0
70
128
71
-230
72
275
73
232
0
VERTEX
8
MICR
10
0
20
0
30
0
70
128
71
-275
72
230
73
274
0
VERTEX
8
MICR
10
0
20
0
30
0
70
128
71
-232
72
276
73
234
0
VERTEX
8
MICR
10
0
20
0
30
0
70
128
71
-276
72
232
73
275
0
VERTEX
8
MICR
10
0
20
0
30
0
70
128
71
-234
72
277
73
236
0
VERTEX
8
MICR
10
0
20
0
30
0
70
128
71
-277
72
234
73
276
0
VERTEX
8
MICR
10
0
20
0
30
0
70
128
71
-236
72
278
73
238
0
VERTEX
8
MICR
10
0
20
0
30
0
70
128
71
-278
72
236
73
277
0
VERTEX
8
MICR
10
0
20
0
30
0
70
128
71
-238
72
279
73
240
0
VERTEX
8
MICR
10
0
20
0
30
0
70
128
71
-279
72
238
73
278
0
VERTEX
8
MICR
10
0
20
0
30
0
70
128
71
-240
72
280
73
242
0
VERTEX
8
MICR
10
0
20
0
30
0
70
128
71
-280
72
240
73
279
0
VERTEX
8
MICR
10
0
20
0
30
0
70
128
71
-242
72
270
73
222
0
VERTEX
8
MICR
10
0
20
0
30
0
70
128
71
-270
72
242
73
280
0
VERTEX
8
MICR
10
0
20
0
30
0
70
128
71
281
72
282
73
-294
0
VERTEX
8
MICR
10
0
20
0
30
0
70
128
71
-281
72
294
73
293
0
VERTEX
8
MICR
10
0
20
0
30
0
70
128
71
282
72
283
73
-295
0
VERTEX
8
MICR
10
0
20
0
30
0
70
128
71
-282
72
295
73
294
0
VERTEX
8
MICR
10
0
20
0
30
0
70
128
71
283
72
284
73
-296
0
VERTEX
8
MICR
10
0
20
0
30
0
70
128
71
-283
72
296
73
295
0
VERTEX
8
MICR
10
0
20
0
30
0
70
128
71
284
72
285
73
-297
0
VERTEX
8
MICR
10
0
20
0
30
0
70
128
71
-284
72
297
73
296
0
VERTEX
8
MICR
10
0
20
0
30
0
70
128
71
285
72
286
73
-298
0
VERTEX
8
MICR
10
0
20
0
30
0
70
128
71
-285
72
298
73
297
0
VERTEX
8
MICR
10
0
20
0
30
0
70
128
71
286
72
287
73
-299
0
VERTEX
8
MICR
10
0
20
0
30
0
70
128
71
-286
72
299
73
298
0
VERTEX
8
MICR
10
0
20
0
30
0
70
128
71
287
72
288
73
-300
0
VERTEX
8
MICR
10
0
20
0
30
0
70
128
71
-287
72
300
73
299
0
VERTEX
8
MICR
10
0
20
0
30
0
70
128
71
288
72
289
73
-301
0
VERTEX
8
MICR
10
0
20
0
30
0
70
128
71
-288
72
301
73
300
0
VERTEX
8
MICR
10
0
20
0
30
0
70
128
71
289
72
290
73
-302
0
VERTEX
8
MICR
10
0
20
0
30
0
70
128
71
-289
72
302
73
301
0
VERTEX
8
MICR
10
0
20
0
30
0
70
128
71
290
72
291
73
-303
0
VERTEX
8
MICR
10
0
20
0
30
0
70
128
71
-290
72
303
73
302
0
VERTEX
8
MICR
10
0
20
0
30
0
70
128
71
291
72
292
73
-304
0
VERTEX
8
MICR
10
0
20
0
30
0
70
128
71
-291
72
304
73
303
0
VERTEX
8
MICR
10
0
20
0
30
0
70
128
71
292
72
281
73
-293
0
VERTEX
8
MICR
10
0
20
0
30
0
70
128
71
-292
72
293
73
304
0
VERTEX
8
MICR
10
0
20
0
30
0
70
128
71
282
72
-281
73
-306
0
VERTEX
8
MICR
10
0
20
0
30
0
70
128
71
283
72
-282
73
-306
0
VERTEX
8
MICR
10
0
20
0
30
0
70
128
71
284
72
-283
73
-306
0
VERTEX
8
MICR
10
0
20
0
30
0
70
128
71
285
72
-284
73
-306
0
VERTEX
8
MICR
10
0
20
0
30
0
70
128
71
286
72
-285
73
-306
0
VERTEX
8
MICR
10
0
20
0
30
0
70
128
71
287
72
-286
73
-306
0
VERTEX
8
MICR
10
0
20
0
30
0
70
128
71
288
72
-287
73
-306
0
VERTEX
8
MICR
10
0
20
0
30
0
70
128
71
289
72
-288
73
-306
0
VERTEX
8
MICR
10
0
20
0
30
0
70
128
71
290
72
-289
73
-306
0
VERTEX
8
MICR
10
0
20
0
30
0
70
128
71
291
72
-290
73
-306
0
VERTEX
8
MICR
10
0
20
0
30
0
70
128
71
292
72
-291
73
-306
0
VERTEX
8
MICR
10
0
20
0
30
0
70
128
71
281
72
-292
73
-306
0
VERTEX
8
MICR
10
0
20
0
30
0
70
128
71
293
72
-294
73
-305
0
VERTEX
8
MICR
10
0
20
0
30
0
70
128
71
294
72
-295
73
-305
0
VERTEX
8
MICR
10
0
20
0
30
0
70
128
71
295
72
-296
73
-305
0
VERTEX
8
MICR
10
0
20
0
30
0
70
128
71
296
72
-297
73
-305
0
VERTEX
8
MICR
10
0
20
0
30
0
70
128
71
297
72
-298
73
-305
0
VERTEX
8
MICR
10
0
20
0
30
0
70
128
71
298
72
-299
73
-305
0
VERTEX
8
MICR
10
0
20
0
30
0
70
128
71
299
72
-300
73
-305
0
VERTEX
8
MICR
10
0
20
0
30
0
70
128
71
300
72
-301
73
-305
0
VERTEX
8
MICR
10
0
20
0
30
0
70
128
71
301
72
-302
73
-305
0
VERTEX
8
MICR
10
0
20
0
30
0
70
128
71
302
72
-303
73
-305
0
VERTEX
8
MICR
10
0
20
0
30
0
70
128
71
303
72
-304
73
-305
0
VERTEX
8
MICR
10
0
20
0
30
0
70
128
71
304
72
-293
73
-305
0
VERTEX
8
MICR
10
0
20
0
30
0
70
128
71
307
72
308
73
-320
0
VERTEX
8
MICR
10
0
20
0
30
0
70
128
71
-307
72
320
73
319
0
VERTEX
8
MICR
10
0
20
0
30
0
70
128
71
308
72
309
73
-321
0
VERTEX
8
MICR
10
0
20
0
30
0
70
128
71
-308
72
321
73
320
0
VERTEX
8
MICR
10
0
20
0
30
0
70
128
71
309
72
310
73
-322
0
VERTEX
8
MICR
10
0
20
0
30
0
70
128
71
-309
72
322
73
321
0
VERTEX
8
MICR
10
0
20
0
30
0
70
128
71
310
72
311
73
-323
0
VERTEX
8
MICR
10
0
20
0
30
0
70
128
71
-310
72
323
73
322
0
VERTEX
8
MICR
10
0
20
0
30
0
70
128
71
311
72
312
73
-324
0
VERTEX
8
MICR
10
0
20
0
30
0
70
128
71
-311
72
324
73
323
0
VERTEX
8
MICR
10
0
20
0
30
0
70
128
71
312
72
313
73
-325
0
VERTEX
8
MICR
10
0
20
0
30
0
70
128
71
-312
72
325
73
324
0
VERTEX
8
MICR
10
0
20
0
30
0
70
128
71
313
72
314
73
-326
0
VERTEX
8
MICR
10
0
20
0
30
0
70
128
71
-313
72
326
73
325
0
VERTEX
8
MICR
10
0
20
0
30
0
70
128
71
314
72
315
73
-327
0
VERTEX
8
MICR
10
0
20
0
30
0
70
128
71
-314
72
327
73
326
0
VERTEX
8
MICR
10
0
20
0
30
0
70
128
71
315
72
316
73
-328
0
VERTEX
8
MICR
10
0
20
0
30
0
70
128
71
-315
72
328
73
327
0
VERTEX
8
MICR
10
0
20
0
30
0
70
128
71
316
72
317
73
-329
0
VERTEX
8
MICR
10
0
20
0
30
0
70
128
71
-316
72
329
73
328
0
VERTEX
8
MICR
10
0
20
0
30
0
70
128
71
317
72
318
73
-330
0
VERTEX
8
MICR
10
0
20
0
30
0
70
128
71
-317
72
330
73
329
0
VERTEX
8
MICR
10
0
20
0
30
0
70
128
71
318
72
307
73
-319
0
VERTEX
8
MICR
10
0
20
0
30
0
70
128
71
-318
72
319
73
330
0
VERTEX
8
MICR
10
0
20
0
30
0
70
128
71
308
72
-307
73
-332
0
VERTEX
8
MICR
10
0
20
0
30
0
70
128
71
309
72
-308
73
-332
0
VERTEX
8
MICR
10
0
20
0
30
0
70
128
71
310
72
-309
73
-332
0
VERTEX
8
MICR
10
0
20
0
30
0
70
128
71
311
72
-310
73
-332
0
VERTEX
8
MICR
10
0
20
0
30
0
70
128
71
312
72
-311
73
-332
0
VERTEX
8
MICR
10
0
20
0
30
0
70
128
71
313
72
-312
73
-332
0
VERTEX
8
MICR
10
0
20
0
30
0
70
128
71
314
72
-313
73
-332
0
VERTEX
8
MICR
10
0
20
0
30
0
70
128
71
315
72
-314
73
-332
0
VERTEX
8
MICR
10
0
20
0
30
0
70
128
71
316
72
-315
73
-332
0
VERTEX
8
MICR
10
0
20
0
30
0
70
128
71
317
72
-316
73
-332
0
VERTEX
8
MICR
10
0
20
0
30
0
70
128
71
318
72
-317
73
-332
0
VERTEX
8
MICR
10
0
20
0
30
0
70
128
71
307
72
-318
73
-332
0
VERTEX
8
MICR
10
0
20
0
30
0
70
128
71
319
72
-320
73
-331
0
VERTEX
8
MICR
10
0
20
0
30
0
70
128
71
320
72
-321
73
-331
0
VERTEX
8
MICR
10
0
20
0
30
0
70
128
71
321
72
-322
73
-331
0
VERTEX
8
MICR
10
0
20
0
30
0
70
128
71
322
72
-323
73
-331
0
VERTEX
8
MICR
10
0
20
0
30
0
70
128
71
323
72
-324
73
-331
0
VERTEX
8
MICR
10
0
20
0
30
0
70
128
71
324
72
-325
73
-331
0
VERTEX
8
MICR
10
0
20
0
30
0
70
128
71
325
72
-326
73
-331
0
VERTEX
8
MICR
10
0
20
0
30
0
70
128
71
326
72
-327
73
-331
0
VERTEX
8
MICR
10
0
20
0
30
0
70
128
71
327
72
-328
73
-331
0
VERTEX
8
MICR
10
0
20
0
30
0
70
128
71
328
72
-329
73
-331
0
VERTEX
8
MICR
10
0
20
0
30
0
70
128
71
329
72
-330
73
-331
0
VERTEX
8
MICR
10
0
20
0
30
0
70
128
71
330
72
-319
73
-331
0
VERTEX
8
MICR
10
0
20
0
30
0
70
128
71
333
72
334
73
-346
0
VERTEX
8
MICR
10
0
20
0
30
0
70
128
71
-333
72
346
73
345
0
VERTEX
8
MICR
10
0
20
0
30
0
70
128
71
334
72
335
73
-347
0
VERTEX
8
MICR
10
0
20
0
30
0
70
128
71
-334
72
347
73
346
0
VERTEX
8
MICR
10
0
20
0
30
0
70
128
71
335
72
336
73
-348
0
VERTEX
8
MICR
10
0
20
0
30
0
70
128
71
-335
72
348
73
347
0
VERTEX
8
MICR
10
0
20
0
30
0
70
128
71
336
72
337
73
-349
0
VERTEX
8
MICR
10
0
20
0
30
0
70
128
71
-336
72
349
73
348
0
VERTEX
8
MICR
10
0
20
0
30
0
70
128
71
337
72
338
73
-350
0
VERTEX
8
MICR
10
0
20
0
30
0
70
128
71
-337
72
350
73
349
0
VERTEX
8
MICR
10
0
20
0
30
0
70
128
71
338
72
339
73
-351
0
VERTEX
8
MICR
10
0
20
0
30
0
70
128
71
-338
72
351
73
350
0
VERTEX
8
MICR
10
0
20
0
30
0
70
128
71
339
72
340
73
-352
0
VERTEX
8
MICR
10
0
20
0
30
0
70
128
71
-339
72
352
73
351
0
VERTEX
8
MICR
10
0
20
0
30
0
70
128
71
340
72
341
73
-353
0
VERTEX
8
MICR
10
0
20
0
30
0
70
128
71
-340
72
353
73
352
0
VERTEX
8
MICR
10
0
20
0
30
0
70
128
71
341
72
342
73
-354
0
VERTEX
8
MICR
10
0
20
0
30
0
70
128
71
-341
72
354
73
353
0
VERTEX
8
MICR
10
0
20
0
30
0
70
128
71
342
72
343
73
-355
0
VERTEX
8
MICR
10
0
20
0
30
0
70
128
71
-342
72
355
73
354
0
VERTEX
8
MICR
10
0
20
0
30
0
70
128
71
343
72
344
73
-356
0
VERTEX
8
MICR
10
0
20
0
30
0
70
128
71
-343
72
356
73
355
0
VERTEX
8
MICR
10
0
20
0
30
0
70
128
71
344
72
333
73
-345
0
VERTEX
8
MICR
10
0
20
0
30
0
70
128
71
-344
72
345
73
356
0
VERTEX
8
MICR
10
0
20
0
30
0
70
128
71
345
72
346
73
-358
0
VERTEX
8
MICR
10
0
20
0
30
0
70
128
71
-345
72
358
73
357
0
VERTEX
8
MICR
10
0
20
0
30
0
70
128
71
346
72
347
73
-359
0
VERTEX
8
MICR
10
0
20
0
30
0
70
128
71
-346
72
359
73
358
0
VERTEX
8
MICR
10
0
20
0
30
0
70
128
71
347
72
348
73
-360
0
VERTEX
8
MICR
10
0
20
0
30
0
70
128
71
-347
72
360
73
359
0
VERTEX
8
MICR
10
0
20
0
30
0
70
128
71
348
72
349
73
-361
0
VERTEX
8
MICR
10
0
20
0
30
0
70
128
71
-348
72
361
73
360
0
VERTEX
8
MICR
10
0
20
0
30
0
70
128
71
349
72
350
73
-362
0
VERTEX
8
MICR
10
0
20
0
30
0
70
128
71
-349
72
362
73
361
0
VERTEX
8
MICR
10
0
20
0
30
0
70
128
71
350
72
351
73
-363
0
VERTEX
8
MICR
10
0
20
0
30
0
70
128
71
-350
72
363
73
362
0
VERTEX
8
MICR
10
0
20
0
30
0
70
128
71
351
72
352
73
-364
0
VERTEX
8
MICR
10
0
20
0
30
0
70
128
71
-351
72
364
73
363
0
VERTEX
8
MICR
10
0
20
0
30
0
70
128
71
352
72
353
73
-365
0
VERTEX
8
MICR
10
0
20
0
30
0
70
128
71
-352
72
365
73
364
0
VERTEX
8
MICR
10
0
20
0
30
0
70
128
71
353
72
354
73
-366
0
VERTEX
8
MICR
10
0
20
0
30
0
70
128
71
-353
72
366
73
365
0
VERTEX
8
MICR
10
0
20
0
30
0
70
128
71
354
72
355
73
-367
0
VERTEX
8
MICR
10
0
20
0
30
0
70
128
71
-354
72
367
73
366
0
VERTEX
8
MICR
10
0
20
0
30
0
70
128
71
355
72
356
73
-368
0
VERTEX
8
MICR
10
0
20
0
30
0
70
128
71
-355
72
368
73
367
0
VERTEX
8
MICR
10
0
20
0
30
0
70
128
71
356
72
345
73
-357
0
VERTEX
8
MICR
10
0
20
0
30
0
70
128
71
-356
72
357
73
368
0
VERTEX
8
MICR
10
0
20
0
30
0
70
128
71
357
72
358
73
-370
0
VERTEX
8
MICR
10
0
20
0
30
0
70
128
71
-357
72
370
73
369
0
VERTEX
8
MICR
10
0
20
0
30
0
70
128
71
358
72
359
73
-371
0
VERTEX
8
MICR
10
0
20
0
30
0
70
128
71
-358
72
371
73
370
0
VERTEX
8
MICR
10
0
20
0
30
0
70
128
71
359
72
360
73
-372
0
VERTEX
8
MICR
10
0
20
0
30
0
70
128
71
-359
72
372
73
371
0
VERTEX
8
MICR
10
0
20
0
30
0
70
128
71
360
72
361
73
-373
0
VERTEX
8
MICR
10
0
20
0
30
0
70
128
71
-360
72
373
73
372
0
VERTEX
8
MICR
10
0
20
0
30
0
70
128
71
361
72
362
73
-374
0
VERTEX
8
MICR
10
0
20
0
30
0
70
128
71
-361
72
374
73
373
0
VERTEX
8
MICR
10
0
20
0
30
0
70
128
71
362
72
363
73
-375
0
VERTEX
8
MICR
10
0
20
0
30
0
70
128
71
-362
72
375
73
374
0
VERTEX
8
MICR
10
0
20
0
30
0
70
128
71
363
72
364
73
-376
0
VERTEX
8
MICR
10
0
20
0
30
0
70
128
71
-363
72
376
73
375
0
VERTEX
8
MICR
10
0
20
0
30
0
70
128
71
364
72
365
73
-377
0
VERTEX
8
MICR
10
0
20
0
30
0
70
128
71
-364
72
377
73
376
0
VERTEX
8
MICR
10
0
20
0
30
0
70
128
71
365
72
366
73
-378
0
VERTEX
8
MICR
10
0
20
0
30
0
70
128
71
-365
72
378
73
377
0
VERTEX
8
MICR
10
0
20
0
30
0
70
128
71
366
72
367
73
-379
0
VERTEX
8
MICR
10
0
20
0
30
0
70
128
71
-366
72
379
73
378
0
VERTEX
8
MICR
10
0
20
0
30
0
70
128
71
367
72
368
73
-380
0
VERTEX
8
MICR
10
0
20
0
30
0
70
128
71
-367
72
380
73
379
0
VERTEX
8
MICR
10
0
20
0
30
0
70
128
71
368
72
357
73
-369
0
VERTEX
8
MICR
10
0
20
0
30
0
70
128
71
-368
72
369
73
380
0
VERTEX
8
MICR
10
0
20
0
30
0
70
128
71
334
72
-333
73
-382
0
VERTEX
8
MICR
10
0
20
0
30
0
70
128
71
335
72
-334
73
-382
0
VERTEX
8
MICR
10
0
20
0
30
0
70
128
71
336
72
-335
73
-382
0
VERTEX
8
MICR
10
0
20
0
30
0
70
128
71
337
72
-336
73
-382
0
VERTEX
8
MICR
10
0
20
0
30
0
70
128
71
338
72
-337
73
-382
0
VERTEX
8
MICR
10
0
20
0
30
0
70
128
71
339
72
-338
73
-382
0
VERTEX
8
MICR
10
0
20
0
30
0
70
128
71
340
72
-339
73
-382
0
VERTEX
8
MICR
10
0
20
0
30
0
70
128
71
341
72
-340
73
-382
0
VERTEX
8
MICR
10
0
20
0
30
0
70
128
71
342
72
-341
73
-382
0
VERTEX
8
MICR
10
0
20
0
30
0
70
128
71
343
72
-342
73
-382
0
VERTEX
8
MICR
10
0
20
0
30
0
70
128
71
344
72
-343
73
-382
0
VERTEX
8
MICR
10
0
20
0
30
0
70
128
71
333
72
-344
73
-382
0
VERTEX
8
MICR
10
0
20
0
30
0
70
128
71
369
72
-370
73
-381
0
VERTEX
8
MICR
10
0
20
0
30
0
70
128
71
370
72
-371
73
-381
0
VERTEX
8
MICR
10
0
20
0
30
0
70
128
71
371
72
-372
73
-381
0
VERTEX
8
MICR
10
0
20
0
30
0
70
128
71
372
72
-373
73
-381
0
VERTEX
8
MICR
10
0
20
0
30
0
70
128
71
373
72
-374
73
-381
0
VERTEX
8
MICR
10
0
20
0
30
0
70
128
71
374
72
-375
73
-381
0
VERTEX
8
MICR
10
0
20
0
30
0
70
128
71
375
72
-376
73
-381
0
VERTEX
8
MICR
10
0
20
0
30
0
70
128
71
376
72
-377
73
-381
0
VERTEX
8
MICR
10
0
20
0
30
0
70
128
71
377
72
-378
73
-381
0
VERTEX
8
MICR
10
0
20
0
30
0
70
128
71
378
72
-379
73
-381
0
VERTEX
8
MICR
10
0
20
0
30
0
70
128
71
379
72
-380
73
-381
0
VERTEX
8
MICR
10
0
20
0
30
0
70
128
71
380
72
-369
73
-381
0
VERTEX
8
MICR
10
0
20
0
30
0
70
128
71
383
72
384
73
-396
0
VERTEX
8
MICR
10
0
20
0
30
0
70
128
71
-383
72
396
73
395
0
VERTEX
8
MICR
10
0
20
0
30
0
70
128
71
384
72
385
73
-397
0
VERTEX
8
MICR
10
0
20
0
30
0
70
128
71
-384
72
397
73
396
0
VERTEX
8
MICR
10
0
20
0
30
0
70
128
71
385
72
386
73
-398
0
VERTEX
8
MICR
10
0
20
0
30
0
70
128
71
-385
72
398
73
397
0
VERTEX
8
MICR
10
0
20
0
30
0
70
128
71
386
72
387
73
-399
0
VERTEX
8
MICR
10
0
20
0
30
0
70
128
71
-386
72
399
73
398
0
VERTEX
8
MICR
10
0
20
0
30
0
70
128
71
387
72
388
73
-400
0
VERTEX
8
MICR
10
0
20
0
30
0
70
128
71
-387
72
400
73
399
0
VERTEX
8
MICR
10
0
20
0
30
0
70
128
71
388
72
389
73
-401
0
VERTEX
8
MICR
10
0
20
0
30
0
70
128
71
-388
72
401
73
400
0
VERTEX
8
MICR
10
0
20
0
30
0
70
128
71
389
72
390
73
-402
0
VERTEX
8
MICR
10
0
20
0
30
0
70
128
71
-389
72
402
73
401
0
VERTEX
8
MICR
10
0
20
0
30
0
70
128
71
390
72
391
73
-403
0
VERTEX
8
MICR
10
0
20
0
30
0
70
128
71
-390
72
403
73
402
0
VERTEX
8
MICR
10
0
20
0
30
0
70
128
71
391
72
392
73
-404
0
VERTEX
8
MICR
10
0
20
0
30
0
70
128
71
-391
72
404
73
403
0
VERTEX
8
MICR
10
0
20
0
30
0
70
128
71
392
72
393
73
-405
0
VERTEX
8
MICR
10
0
20
0
30
0
70
128
71
-392
72
405
73
404
0
VERTEX
8
MICR
10
0
20
0
30
0
70
128
71
393
72
394
73
-406
0
VERTEX
8
MICR
10
0
20
0
30
0
70
128
71
-393
72
406
73
405
0
VERTEX
8
MICR
10
0
20
0
30
0
70
128
71
394
72
383
73
-395
0
VERTEX
8
MICR
10
0
20
0
30
0
70
128
71
-394
72
395
73
406
0
VERTEX
8
MICR
10
0
20
0
30
0
70
128
71
384
72
-383
73
-408
0
VERTEX
8
MICR
10
0
20
0
30
0
70
128
71
385
72
-384
73
-408
0
VERTEX
8
MICR
10
0
20
0
30
0
70
128
71
386
72
-385
73
-408
0
VERTEX
8
MICR
10
0
20
0
30
0
70
128
71
387
72
-386
73
-408
0
VERTEX
8
MICR
10
0
20
0
30
0
70
128
71
388
72
-387
73
-408
0
VERTEX
8
MICR
10
0
20
0
30
0
70
128
71
389
72
-388
73
-408
0
VERTEX
8
MICR
10
0
20
0
30
0
70
128
71
390
72
-389
73
-408
0
VERTEX
8
MICR
10
0
20
0
30
0
70
128
71
391
72
-390
73
-408
0
VERTEX
8
MICR
10
0
20
0
30
0
70
128
71
392
72
-391
73
-408
0
VERTEX
8
MICR
10
0
20
0
30
0
70
128
71
393
72
-392
73
-408
0
VERTEX
8
MICR
10
0
20
0
30
0
70
128
71
394
72
-393
73
-408
0
VERTEX
8
MICR
10
0
20
0
30
0
70
128
71
383
72
-394
73
-408
0
VERTEX
8
MICR
10
0
20
0
30
0
70
128
71
395
72
-396
73
-407
0
VERTEX
8
MICR
10
0
20
0
30
0
70
128
71
396
72
-397
73
-407
0
VERTEX
8
MICR
10
0
20
0
30
0
70
128
71
397
72
-398
73
-407
0
VERTEX
8
MICR
10
0
20
0
30
0
70
128
71
398
72
-399
73
-407
0
VERTEX
8
MICR
10
0
20
0
30
0
70
128
71
399
72
-400
73
-407
0
VERTEX
8
MICR
10
0
20
0
30
0
70
128
71
400
72
-401
73
-407
0
VERTEX
8
MICR
10
0
20
0
30
0
70
128
71
401
72
-402
73
-407
0
VERTEX
8
MICR
10
0
20
0
30
0
70
128
71
402
72
-403
73
-407
0
VERTEX
8
MICR
10
0
20
0
30
0
70
128
71
403
72
-404
73
-407
0
VERTEX
8
MICR
10
0
20
0
30
0
70
128
71
404
72
-405
73
-407
0
VERTEX
8
MICR
10
0
20
0
30
0
70
128
71
405
72
-406
73
-407
0
VERTEX
8
MICR
10
0
20
0
30
0
70
128
71
406
72
-395
73
-407
0
VERTEX
8
MICR
10
0
20
0
30
0
70
128
71
409
72
410
73
-422
0
VERTEX
8
MICR
10
0
20
0
30
0
70
128
71
-409
72
422
73
421
0
VERTEX
8
MICR
10
0
20
0
30
0
70
128
71
410
72
411
73
-423
0
VERTEX
8
MICR
10
0
20
0
30
0
70
128
71
-410
72
423
73
422
0
VERTEX
8
MICR
10
0
20
0
30
0
70
128
71
411
72
412
73
-424
0
VERTEX
8
MICR
10
0
20
0
30
0
70
128
71
-411
72
424
73
423
0
VERTEX
8
MICR
10
0
20
0
30
0
70
128
71
412
72
413
73
-425
0
VERTEX
8
MICR
10
0
20
0
30
0
70
128
71
-412
72
425
73
424
0
VERTEX
8
MICR
10
0
20
0
30
0
70
128
71
413
72
414
73
-426
0
VERTEX
8
MICR
10
0
20
0
30
0
70
128
71
-413
72
426
73
425
0
VERTEX
8
MICR
10
0
20
0
30
0
70
128
71
414
72
415
73
-427
0
VERTEX
8
MICR
10
0
20
0
30
0
70
128
71
-414
72
427
73
426
0
VERTEX
8
MICR
10
0
20
0
30
0
70
128
71
415
72
416
73
-428
0
VERTEX
8
MICR
10
0
20
0
30
0
70
128
71
-415
72
428
73
427
0
VERTEX
8
MICR
10
0
20
0
30
0
70
128
71
416
72
417
73
-429
0
VERTEX
8
MICR
10
0
20
0
30
0
70
128
71
-416
72
429
73
428
0
VERTEX
8
MICR
10
0
20
0
30
0
70
128
71
417
72
418
73
-430
0
VERTEX
8
MICR
10
0
20
0
30
0
70
128
71
-417
72
430
73
429
0
VERTEX
8
MICR
10
0
20
0
30
0
70
128
71
418
72
419
73
-431
0
VERTEX
8
MICR
10
0
20
0
30
0
70
128
71
-418
72
431
73
430
0
VERTEX
8
MICR
10
0
20
0
30
0
70
128
71
419
72
420
73
-432
0
VERTEX
8
MICR
10
0
20
0
30
0
70
128
71
-419
72
432
73
431
0
VERTEX
8
MICR
10
0
20
0
30
0
70
128
71
420
72
409
73
-421
0
VERTEX
8
MICR
10
0
20
0
30
0
70
128
71
-420
72
421
73
432
0
VERTEX
8
MICR
10
0
20
0
30
0
70
128
71
410
72
-409
73
-434
0
VERTEX
8
MICR
10
0
20
0
30
0
70
128
71
411
72
-410
73
-434
0
VERTEX
8
MICR
10
0
20
0
30
0
70
128
71
412
72
-411
73
-434
0
VERTEX
8
MICR
10
0
20
0
30
0
70
128
71
413
72
-412
73
-434
0
VERTEX
8
MICR
10
0
20
0
30
0
70
128
71
414
72
-413
73
-434
0
VERTEX
8
MICR
10
0
20
0
30
0
70
128
71
415
72
-414
73
-434
0
VERTEX
8
MICR
10
0
20
0
30
0
70
128
71
416
72
-415
73
-434
0
VERTEX
8
MICR
10
0
20
0
30
0
70
128
71
417
72
-416
73
-434
0
VERTEX
8
MICR
10
0
20
0
30
0
70
128
71
418
72
-417
73
-434
0
VERTEX
8
MICR
10
0
20
0
30
0
70
128
71
419
72
-418
73
-434
0
VERTEX
8
MICR
10
0
20
0
30
0
70
128
71
420
72
-419
73
-434
0
VERTEX
8
MICR
10
0
20
0
30
0
70
128
71
409
72
-420
73
-434
0
VERTEX
8
MICR
10
0
20
0
30
0
70
128
71
421
72
-422
73
-433
0
VERTEX
8
MICR
10
0
20
0
30
0
70
128
71
422
72
-423
73
-433
0
VERTEX
8
MICR
10
0
20
0
30
0
70
128
71
423
72
-424
73
-433
0
VERTEX
8
MICR
10
0
20
0
30
0
70
128
71
424
72
-425
73
-433
0
VERTEX
8
MICR
10
0
20
0
30
0
70
128
71
425
72
-426
73
-433
0
VERTEX
8
MICR
10
0
20
0
30
0
70
128
71
426
72
-427
73
-433
0
VERTEX
8
MICR
10
0
20
0
30
0
70
128
71
427
72
-428
73
-433
0
VERTEX
8
MICR
10
0
20
0
30
0
70
128
71
428
72
-429
73
-433
0
VERTEX
8
MICR
10
0
20
0
30
0
70
128
71
429
72
-430
73
-433
0
VERTEX
8
MICR
10
0
20
0
30
0
70
128
71
430
72
-431
73
-433
0
VERTEX
8
MICR
10
0
20
0
30
0
70
128
71
431
72
-432
73
-433
0
VERTEX
8
MICR
10
0
20
0
30
0
70
128
71
432
72
-421
73
-433
0
VERTEX
8
MICR
10
0
20
0
30
0
70
128
71
435
72
436
73
-448
0
VERTEX
8
MICR
10
0
20
0
30
0
70
128
71
-435
72
448
73
447
0
VERTEX
8
MICR
10
0
20
0
30
0
70
128
71
436
72
437
73
-449
0
VERTEX
8
MICR
10
0
20
0
30
0
70
128
71
-436
72
449
73
448
0
VERTEX
8
MICR
10
0
20
0
30
0
70
128
71
437
72
438
73
-450
0
VERTEX
8
MICR
10
0
20
0
30
0
70
128
71
-437
72
450
73
449
0
VERTEX
8
MICR
10
0
20
0
30
0
70
128
71
438
72
439
73
-451
0
VERTEX
8
MICR
10
0
20
0
30
0
70
128
71
-438
72
451
73
450
0
VERTEX
8
MICR
10
0
20
0
30
0
70
128
71
439
72
440
73
-452
0
VERTEX
8
MICR
10
0
20
0
30
0
70
128
71
-439
72
452
73
451
0
VERTEX
8
MICR
10
0
20
0
30
0
70
128
71
440
72
441
73
-453
0
VERTEX
8
MICR
10
0
20
0
30
0
70
128
71
-440
72
453
73
452
0
VERTEX
8
MICR
10
0
20
0
30
0
70
128
71
441
72
442
73
-454
0
VERTEX
8
MICR
10
0
20
0
30
0
70
128
71
-441
72
454
73
453
0
VERTEX
8
MICR
10
0
20
0
30
0
70
128
71
442
72
443
73
-455
0
VERTEX
8
MICR
10
0
20
0
30
0
70
128
71
-442
72
455
73
454
0
VERTEX
8
MICR
10
0
20
0
30
0
70
128
71
443
72
444
73
-456
0
VERTEX
8
MICR
10
0
20
0
30
0
70
128
71
-443
72
456
73
455
0
VERTEX
8
MICR
10
0
20
0
30
0
70
128
71
444
72
445
73
-457
0
VERTEX
8
MICR
10
0
20
0
30
0
70
128
71
-444
72
457
73
456
0
VERTEX
8
MICR
10
0
20
0
30
0
70
128
71
445
72
446
73
-458
0
VERTEX
8
MICR
10
0
20
0
30
0
70
128
71
-445
72
458
73
457
0
VERTEX
8
MICR
10
0
20
0
30
0
70
128
71
446
72
435
73
-447
0
VERTEX
8
MICR
10
0
20
0
30
0
70
128
71
-446
72
447
73
458
0
VERTEX
8
MICR
10
0
20
0
30
0
70
128
71
447
72
448
73
-460
0
VERTEX
8
MICR
10
0
20
0
30
0
70
128
71
-447
72
460
73
459
0
VERTEX
8
MICR
10
0
20
0
30
0
70
128
71
448
72
449
73
-461
0
VERTEX
8
MICR
10
0
20
0
30
0
70
128
71
-448
72
461
73
460
0
VERTEX
8
MICR
10
0
20
0
30
0
70
128
71
449
72
450
73
-462
0
VERTEX
8
MICR
10
0
20
0
30
0
70
128
71
-449
72
462
73
461
0
VERTEX
8
MICR
10
0
20
0
30
0
70
128
71
450
72
451
73
-463
0
VERTEX
8
MICR
10
0
20
0
30
0
70
128
71
-450
72
463
73
462
0
VERTEX
8
MICR
10
0
20
0
30
0
70
128
71
451
72
452
73
-464
0
VERTEX
8
MICR
10
0
20
0
30
0
70
128
71
-451
72
464
73
463
0
VERTEX
8
MICR
10
0
20
0
30
0
70
128
71
452
72
453
73
-465
0
VERTEX
8
MICR
10
0
20
0
30
0
70
128
71
-452
72
465
73
464
0
VERTEX
8
MICR
10
0
20
0
30
0
70
128
71
453
72
454
73
-466
0
VERTEX
8
MICR
10
0
20
0
30
0
70
128
71
-453
72
466
73
465
0
VERTEX
8
MICR
10
0
20
0
30
0
70
128
71
454
72
455
73
-467
0
VERTEX
8
MICR
10
0
20
0
30
0
70
128
71
-454
72
467
73
466
0
VERTEX
8
MICR
10
0
20
0
30
0
70
128
71
455
72
456
73
-468
0
VERTEX
8
MICR
10
0
20
0
30
0
70
128
71
-455
72
468
73
467
0
VERTEX
8
MICR
10
0
20
0
30
0
70
128
71
456
72
457
73
-469
0
VERTEX
8
MICR
10
0
20
0
30
0
70
128
71
-456
72
469
73
468
0
VERTEX
8
MICR
10
0
20
0
30
0
70
128
71
457
72
458
73
-470
0
VERTEX
8
MICR
10
0
20
0
30
0
70
128
71
-457
72
470
73
469
0
VERTEX
8
MICR
10
0
20
0
30
0
70
128
71
458
72
447
73
-459
0
VERTEX
8
MICR
10
0
20
0
30
0
70
128
71
-458
72
459
73
470
0
VERTEX
8
MICR
10
0
20
0
30
0
70
128
71
459
72
460
73
-472
0
VERTEX
8
MICR
10
0
20
0
30
0
70
128
71
-459
72
472
73
471
0
VERTEX
8
MICR
10
0
20
0
30
0
70
128
71
460
72
461
73
-473
0
VERTEX
8
MICR
10
0
20
0
30
0
70
128
71
-460
72
473
73
472
0
VERTEX
8
MICR
10
0
20
0
30
0
70
128
71
461
72
462
73
-474
0
VERTEX
8
MICR
10
0
20
0
30
0
70
128
71
-461
72
474
73
473
0
VERTEX
8
MICR
10
0
20
0
30
0
70
128
71
462
72
463
73
-475
0
VERTEX
8
MICR
10
0
20
0
30
0
70
128
71
-462
72
475
73
474
0
VERTEX
8
MICR
10
0
20
0
30
0
70
128
71
463
72
464
73
-476
0
VERTEX
8
MICR
10
0
20
0
30
0
70
128
71
-463
72
476
73
475
0
VERTEX
8
MICR
10
0
20
0
30
0
70
128
71
464
72
465
73
-477
0
VERTEX
8
MICR
10
0
20
0
30
0
70
128
71
-464
72
477
73
476
0
VERTEX
8
MICR
10
0
20
0
30
0
70
128
71
465
72
466
73
-478
0
VERTEX
8
MICR
10
0
20
0
30
0
70
128
71
-465
72
478
73
477
0
VERTEX
8
MICR
10
0
20
0
30
0
70
128
71
466
72
467
73
-479
0
VERTEX
8
MICR
10
0
20
0
30
0
70
128
71
-466
72
479
73
478
0
VERTEX
8
MICR
10
0
20
0
30
0
70
128
71
467
72
468
73
-480
0
VERTEX
8
MICR
10
0
20
0
30
0
70
128
71
-467
72
480
73
479
0
VERTEX
8
MICR
10
0
20
0
30
0
70
128
71
468
72
469
73
-481
0
VERTEX
8
MICR
10
0
20
0
30
0
70
128
71
-468
72
481
73
480
0
VERTEX
8
MICR
10
0
20
0
30
0
70
128
71
469
72
470
73
-482
0
VERTEX
8
MICR
10
0
20
0
30
0
70
128
71
-469
72
482
73
481
0
VERTEX
8
MICR
10
0
20
0
30
0
70
128
71
470
72
459
73
-471
0
VERTEX
8
MICR
10
0
20
0
30
0
70
128
71
-470
72
471
73
482
0
VERTEX
8
MICR
10
0
20
0
30
0
70
128
71
436
72
-435
73
-484
0
VERTEX
8
MICR
10
0
20
0
30
0
70
128
71
437
72
-436
73
-484
0
VERTEX
8
MICR
10
0
20
0
30
0
70
128
71
438
72
-437
73
-484
0
VERTEX
8
MICR
10
0
20
0
30
0
70
128
71
439
72
-438
73
-484
0
VERTEX
8
MICR
10
0
20
0
30
0
70
128
71
440
72
-439
73
-484
0
VERTEX
8
MICR
10
0
20
0
30
0
70
128
71
441
72
-440
73
-484
0
VERTEX
8
MICR
10
0
20
0
30
0
70
128
71
442
72
-441
73
-484
0
VERTEX
8
MICR
10
0
20
0
30
0
70
128
71
443
72
-442
73
-484
0
VERTEX
8
MICR
10
0
20
0
30
0
70
128
71
444
72
-443
73
-484
0
VERTEX
8
MICR
10
0
20
0
30
0
70
128
71
445
72
-444
73
-484
0
VERTEX
8
MICR
10
0
20
0
30
0
70
128
71
446
72
-445
73
-484
0
VERTEX
8
MICR
10
0
20
0
30
0
70
128
71
435
72
-446
73
-484
0
VERTEX
8
MICR
10
0
20
0
30
0
70
128
71
471
72
-472
73
-483
0
VERTEX
8
MICR
10
0
20
0
30
0
70
128
71
472
72
-473
73
-483
0
VERTEX
8
MICR
10
0
20
0
30
0
70
128
71
473
72
-474
73
-483
0
VERTEX
8
MICR
10
0
20
0
30
0
70
128
71
474
72
-475
73
-483
0
VERTEX
8
MICR
10
0
20
0
30
0
70
128
71
475
72
-476
73
-483
0
VERTEX
8
MICR
10
0
20
0
30
0
70
128
71
476
72
-477
73
-483
0
VERTEX
8
MICR
10
0
20
0
30
0
70
128
71
477
72
-478
73
-483
0
VERTEX
8
MICR
10
0
20
0
30
0
70
128
71
478
72
-479
73
-483
0
VERTEX
8
MICR
10
0
20
0
30
0
70
128
71
479
72
-480
73
-483
0
VERTEX
8
MICR
10
0
20
0
30
0
70
128
71
480
72
-481
73
-483
0
VERTEX
8
MICR
10
0
20
0
30
0
70
128
71
481
72
-482
73
-483
0
VERTEX
8
MICR
10
0
20
0
30
0
70
128
71
482
72
-471
73
-483
0
VERTEX
8
MICR
10
0
20
0
30
0
70
128
71
-485
72
490
73
489
0
VERTEX
8
MICR
10
0
20
0
30
0
70
128
71
485
72
486
73
-490
0
VERTEX
8
MICR
10
0
20
0
30
0
70
128
71
-486
72
491
73
490
0
VERTEX
8
MICR
10
0
20
0
30
0
70
128
71
486
72
487
73
-491
0
VERTEX
8
MICR
10
0
20
0
30
0
70
128
71
-487
72
492
73
491
0
VERTEX
8
MICR
10
0
20
0
30
0
70
128
71
487
72
488
73
-492
0
VERTEX
8
MICR
10
0
20
0
30
0
70
128
71
-488
72
489
73
492
0
VERTEX
8
MICR
10
0
20
0
30
0
70
128
71
488
72
485
73
-489
0
VERTEX
8
MICR
10
0
20
0
30
0
70
128
71
-489
72
494
73
493
0
VERTEX
8
MICR
10
0
20
0
30
0
70
128
71
489
72
490
73
-494
0
VERTEX
8
MICR
10
0
20
0
30
0
70
128
71
-490
72
495
73
494
0
VERTEX
8
MICR
10
0
20
0
30
0
70
128
71
490
72
491
73
-495
0
VERTEX
8
MICR
10
0
20
0
30
0
70
128
71
-491
72
496
73
495
0
VERTEX
8
MICR
10
0
20
0
30
0
70
128
71
491
72
492
73
-496
0
VERTEX
8
MICR
10
0
20
0
30
0
70
128
71
-492
72
493
73
496
0
VERTEX
8
MICR
10
0
20
0
30
0
70
128
71
492
72
489
73
-493
0
VERTEX
8
MICR
10
0
20
0
30
0
70
128
71
-493
72
498
73
497
0
VERTEX
8
MICR
10
0
20
0
30
0
70
128
71
493
72
494
73
-498
0
VERTEX
8
MICR
10
0
20
0
30
0
70
128
71
-494
72
499
73
498
0
VERTEX
8
MICR
10
0
20
0
30
0
70
128
71
494
72
495
73
-499
0
VERTEX
8
MICR
10
0
20
0
30
0
70
128
71
-495
72
500
73
499
0
VERTEX
8
MICR
10
0
20
0
30
0
70
128
71
495
72
496
73
-500
0
VERTEX
8
MICR
10
0
20
0
30
0
70
128
71
-496
72
497
73
500
0
VERTEX
8
MICR
10
0
20
0
30
0
70
128
71
496
72
493
73
-497
0
VERTEX
8
MICR
10
0
20
0
30
0
70
128
71
-497
72
502
73
501
0
VERTEX
8
MICR
10
0
20
0
30
0
70
128
71
497
72
498
73
-502
0
VERTEX
8
MICR
10
0
20
0
30
0
70
128
71
-498
72
503
73
502
0
VERTEX
8
MICR
10
0
20
0
30
0
70
128
71
498
72
499
73
-503
0
VERTEX
8
MICR
10
0
20
0
30
0
70
128
71
-499
72
504
73
503
0
VERTEX
8
MICR
10
0
20
0
30
0
70
128
71
499
72
500
73
-504
0
VERTEX
8
MICR
10
0
20
0
30
0
70
128
71
-500
72
501
73
504
0
VERTEX
8
MICR
10
0
20
0
30
0
70
128
71
500
72
497
73
-501
0
VERTEX
8
MICR
10
0
20
0
30
0
70
128
71
-501
72
506
73
505
0
VERTEX
8
MICR
10
0
20
0
30
0
70
128
71
501
72
502
73
-506
0
VERTEX
8
MICR
10
0
20
0
30
0
70
128
71
-502
72
507
73
506
0
VERTEX
8
MICR
10
0
20
0
30
0
70
128
71
502
72
503
73
-507
0
VERTEX
8
MICR
10
0
20
0
30
0
70
128
71
-503
72
508
73
507
0
VERTEX
8
MICR
10
0
20
0
30
0
70
128
71
503
72
504
73
-508
0
VERTEX
8
MICR
10
0
20
0
30
0
70
128
71
-504
72
505
73
508
0
VERTEX
8
MICR
10
0
20
0
30
0
70
128
71
504
72
501
73
-505
0
VERTEX
8
MICR
10
0
20
0
30
0
70
128
71
-505
72
510
73
509
0
VERTEX
8
MICR
10
0
20
0
30
0
70
128
71
505
72
506
73
-510
0
VERTEX
8
MICR
10
0
20
0
30
0
70
128
71
-506
72
511
73
510
0
VERTEX
8
MICR
10
0
20
0
30
0
70
128
71
506
72
507
73
-511
0
VERTEX
8
MICR
10
0
20
0
30
0
70
128
71
-507
72
512
73
511
0
VERTEX
8
MICR
10
0
20
0
30
0
70
128
71
507
72
508
73
-512
0
VERTEX
8
MICR
10
0
20
0
30
0
70
128
71
-508
72
509
73
512
0
VERTEX
8
MICR
10
0
20
0
30
0
70
128
71
508
72
505
73
-509
0
VERTEX
8
MICR
10
0
20
0
30
0
70
128
71
-509
72
514
73
513
0
VERTEX
8
MICR
10
0
20
0
30
0
70
128
71
509
72
510
73
-514
0
VERTEX
8
MICR
10
0
20
0
30
0
70
128
71
-510
72
515
73
514
0
VERTEX
8
MICR
10
0
20
0
30
0
70
128
71
510
72
511
73
-515
0
VERTEX
8
MICR
10
0
20
0
30
0
70
128
71
-511
72
516
73
515
0
VERTEX
8
MICR
10
0
20
0
30
0
70
128
71
511
72
512
73
-516
0
VERTEX
8
MICR
10
0
20
0
30
0
70
128
71
-512
72
513
73
516
0
VERTEX
8
MICR
10
0
20
0
30
0
70
128
71
512
72
509
73
-513
0
VERTEX
8
MICR
10
0
20
0
30
0
70
128
71
-513
72
518
73
517
0
VERTEX
8
MICR
10
0
20
0
30
0
70
128
71
513
72
514
73
-518
0
VERTEX
8
MICR
10
0
20
0
30
0
70
128
71
-514
72
519
73
518
0
VERTEX
8
MICR
10
0
20
0
30
0
70
128
71
514
72
515
73
-519
0
VERTEX
8
MICR
10
0
20
0
30
0
70
128
71
-515
72
520
73
519
0
VERTEX
8
MICR
10
0
20
0
30
0
70
128
71
515
72
516
73
-520
0
VERTEX
8
MICR
10
0
20
0
30
0
70
128
71
-516
72
517
73
520
0
VERTEX
8
MICR
10
0
20
0
30
0
70
128
71
516
72
513
73
-517
0
VERTEX
8
MICR
10
0
20
0
30
0
70
128
71
-517
72
522
73
521
0
VERTEX
8
MICR
10
0
20
0
30
0
70
128
71
517
72
518
73
-522
0
VERTEX
8
MICR
10
0
20
0
30
0
70
128
71
-518
72
523
73
522
0
VERTEX
8
MICR
10
0
20
0
30
0
70
128
71
518
72
519
73
-523
0
VERTEX
8
MICR
10
0
20
0
30
0
70
128
71
-519
72
524
73
523
0
VERTEX
8
MICR
10
0
20
0
30
0
70
128
71
519
72
520
73
-524
0
VERTEX
8
MICR
10
0
20
0
30
0
70
128
71
-520
72
521
73
524
0
VERTEX
8
MICR
10
0
20
0
30
0
70
128
71
520
72
517
73
-521
0
VERTEX
8
MICR
10
0
20
0
30
0
70
128
71
-521
72
526
73
525
0
VERTEX
8
MICR
10
0
20
0
30
0
70
128
71
521
72
522
73
-526
0
VERTEX
8
MICR
10
0
20
0
30
0
70
128
71
-522
72
527
73
526
0
VERTEX
8
MICR
10
0
20
0
30
0
70
128
71
522
72
523
73
-527
0
VERTEX
8
MICR
10
0
20
0
30
0
70
128
71
-523
72
528
73
527
0
VERTEX
8
MICR
10
0
20
0
30
0
70
128
71
523
72
524
73
-528
0
VERTEX
8
MICR
10
0
20
0
30
0
70
128
71
-524
72
525
73
528
0
VERTEX
8
MICR
10
0
20
0
30
0
70
128
71
524
72
521
73
-525
0
VERTEX
8
MICR
10
0
20
0
30
0
70
128
71
-525
72
530
73
529
0
VERTEX
8
MICR
10
0
20
0
30
0
70
128
71
525
72
526
73
-530
0
VERTEX
8
MICR
10
0
20
0
30
0
70
128
71
-526
72
531
73
530
0
VERTEX
8
MICR
10
0
20
0
30
0
70
128
71
526
72
527
73
-531
0
VERTEX
8
MICR
10
0
20
0
30
0
70
128
71
-527
72
532
73
531
0
VERTEX
8
MICR
10
0
20
0
30
0
70
128
71
527
72
528
73
-532
0
VERTEX
8
MICR
10
0
20
0
30
0
70
128
71
-528
72
529
73
532
0
VERTEX
8
MICR
10
0
20
0
30
0
70
128
71
528
72
525
73
-529
0
VERTEX
8
MICR
10
0
20
0
30
0
70
128
71
-529
72
534
73
533
0
VERTEX
8
MICR
10
0
20
0
30
0
70
128
71
529
72
530
73
-534
0
VERTEX
8
MICR
10
0
20
0
30
0
70
128
71
-530
72
535
73
534
0
VERTEX
8
MICR
10
0
20
0
30
0
70
128
71
530
72
531
73
-535
0
VERTEX
8
MICR
10
0
20
0
30
0
70
128
71
-531
72
536
73
535
0
VERTEX
8
MICR
10
0
20
0
30
0
70
128
71
531
72
532
73
-536
0
VERTEX
8
MICR
10
0
20
0
30
0
70
128
71
-532
72
533
73
536
0
VERTEX
8
MICR
10
0
20
0
30
0
70
128
71
532
72
529
73
-533
0
VERTEX
8
MICR
10
0
20
0
30
0
70
128
71
-533
72
538
73
537
0
VERTEX
8
MICR
10
0
20
0
30
0
70
128
71
533
72
534
73
-538
0
VERTEX
8
MICR
10
0
20
0
30
0
70
128
71
-534
72
539
73
538
0
VERTEX
8
MICR
10
0
20
0
30
0
70
128
71
534
72
535
73
-539
0
VERTEX
8
MICR
10
0
20
0
30
0
70
128
71
-535
72
540
73
539
0
VERTEX
8
MICR
10
0
20
0
30
0
70
128
71
535
72
536
73
-540
0
VERTEX
8
MICR
10
0
20
0
30
0
70
128
71
-536
72
537
73
540
0
VERTEX
8
MICR
10
0
20
0
30
0
70
128
71
536
72
533
73
-537
0
VERTEX
8
MICR
10
0
20
0
30
0
70
128
71
-537
72
542
73
541
0
VERTEX
8
MICR
10
0
20
0
30
0
70
128
71
537
72
538
73
-542
0
VERTEX
8
MICR
10
0
20
0
30
0
70
128
71
-538
72
543
73
542
0
VERTEX
8
MICR
10
0
20
0
30
0
70
128
71
538
72
539
73
-543
0
VERTEX
8
MICR
10
0
20
0
30
0
70
128
71
-539
72
544
73
543
0
VERTEX
8
MICR
10
0
20
0
30
0
70
128
71
539
72
540
73
-544
0
VERTEX
8
MICR
10
0
20
0
30
0
70
128
71
-540
72
541
73
544
0
VERTEX
8
MICR
10
0
20
0
30
0
70
128
71
540
72
537
73
-541
0
VERTEX
8
MICR
10
0
20
0
30
0
70
128
71
-541
72
546
73
545
0
VERTEX
8
MICR
10
0
20
0
30
0
70
128
71
541
72
542
73
-546
0
VERTEX
8
MICR
10
0
20
0
30
0
70
128
71
-542
72
547
73
546
0
VERTEX
8
MICR
10
0
20
0
30
0
70
128
71
542
72
543
73
-547
0
VERTEX
8
MICR
10
0
20
0
30
0
70
128
71
-543
72
548
73
547
0
VERTEX
8
MICR
10
0
20
0
30
0
70
128
71
543
72
544
73
-548
0
VERTEX
8
MICR
10
0
20
0
30
0
70
128
71
-544
72
545
73
548
0
VERTEX
8
MICR
10
0
20
0
30
0
70
128
71
544
72
541
73
-545
0
VERTEX
8
MICR
10
0
20
0
30
0
70
128
71
-545
72
550
73
549
0
VERTEX
8
MICR
10
0
20
0
30
0
70
128
71
545
72
546
73
-550
0
VERTEX
8
MICR
10
0
20
0
30
0
70
128
71
-546
72
551
73
550
0
VERTEX
8
MICR
10
0
20
0
30
0
70
128
71
546
72
547
73
-551
0
VERTEX
8
MICR
10
0
20
0
30
0
70
128
71
-547
72
552
73
551
0
VERTEX
8
MICR
10
0
20
0
30
0
70
128
71
547
72
548
73
-552
0
VERTEX
8
MICR
10
0
20
0
30
0
70
128
71
-548
72
549
73
552
0
VERTEX
8
MICR
10
0
20
0
30
0
70
128
71
548
72
545
73
-549
0
VERTEX
8
MICR
10
0
20
0
30
0
70
128
71
-549
72
554
73
553
0
VERTEX
8
MICR
10
0
20
0
30
0
70
128
71
549
72
550
73
-554
0
VERTEX
8
MICR
10
0
20
0
30
0
70
128
71
-550
72
555
73
554
0
VERTEX
8
MICR
10
0
20
0
30
0
70
128
71
550
72
551
73
-555
0
VERTEX
8
MICR
10
0
20
0
30
0
70
128
71
-551
72
556
73
555
0
VERTEX
8
MICR
10
0
20
0
30
0
70
128
71
551
72
552
73
-556
0
VERTEX
8
MICR
10
0
20
0
30
0
70
128
71
-552
72
553
73
556
0
VERTEX
8
MICR
10
0
20
0
30
0
70
128
71
552
72
549
73
-553
0
VERTEX
8
MICR
10
0
20
0
30
0
70
128
71
-553
72
558
73
557
0
VERTEX
8
MICR
10
0
20
0
30
0
70
128
71
553
72
554
73
-558
0
VERTEX
8
MICR
10
0
20
0
30
0
70
128
71
-554
72
559
73
558
0
VERTEX
8
MICR
10
0
20
0
30
0
70
128
71
554
72
555
73
-559
0
VERTEX
8
MICR
10
0
20
0
30
0
70
128
71
-555
72
560
73
559
0
VERTEX
8
MICR
10
0
20
0
30
0
70
128
71
555
72
556
73
-560
0
VERTEX
8
MICR
10
0
20
0
30
0
70
128
71
-556
72
557
73
560
0
VERTEX
8
MICR
10
0
20
0
30
0
70
128
71
556
72
553
73
-557
0
VERTEX
8
MICR
10
0
20
0
30
0
70
128
71
-557
72
562
73
561
0
VERTEX
8
MICR
10
0
20
0
30
0
70
128
71
557
72
558
73
-562
0
VERTEX
8
MICR
10
0
20
0
30
0
70
128
71
-558
72
563
73
562
0
VERTEX
8
MICR
10
0
20
0
30
0
70
128
71
558
72
559
73
-563
0
VERTEX
8
MICR
10
0
20
0
30
0
70
128
71
-559
72
564
73
563
0
VERTEX
8
MICR
10
0
20
0
30
0
70
128
71
559
72
560
73
-564
0
VERTEX
8
MICR
10
0
20
0
30
0
70
128
71
-560
72
561
73
564
0
VERTEX
8
MICR
10
0
20
0
30
0
70
128
71
560
72
557
73
-561
0
VERTEX
8
MICR
10
0
20
0
30
0
70
128
71
-561
72
566
73
565
0
VERTEX
8
MICR
10
0
20
0
30
0
70
128
71
561
72
562
73
-566
0
VERTEX
8
MICR
10
0
20
0
30
0
70
128
71
-562
72
567
73
566
0
VERTEX
8
MICR
10
0
20
0
30
0
70
128
71
562
72
563
73
-567
0
VERTEX
8
MICR
10
0
20
0
30
0
70
128
71
-563
72
568
73
567
0
VERTEX
8
MICR
10
0
20
0
30
0
70
128
71
563
72
564
73
-568
0
VERTEX
8
MICR
10
0
20
0
30
0
70
128
71
-564
72
565
73
568
0
VERTEX
8
MICR
10
0
20
0
30
0
70
128
71
564
72
561
73
-565
0
VERTEX
8
MICR
10
0
20
0
30
0
70
128
71
-565
72
570
73
569
0
VERTEX
8
MICR
10
0
20
0
30
0
70
128
71
565
72
566
73
-570
0
VERTEX
8
MICR
10
0
20
0
30
0
70
128
71
-566
72
571
73
570
0
VERTEX
8
MICR
10
0
20
0
30
0
70
128
71
566
72
567
73
-571
0
VERTEX
8
MICR
10
0
20
0
30
0
70
128
71
-567
72
572
73
571
0
VERTEX
8
MICR
10
0
20
0
30
0
70
128
71
567
72
568
73
-572
0
VERTEX
8
MICR
10
0
20
0
30
0
70
128
71
-568
72
569
73
572
0
VERTEX
8
MICR
10
0
20
0
30
0
70
128
71
568
72
565
73
-569
0
VERTEX
8
MICR
10
0
20
0
30
0
70
128
71
-569
72
574
73
573
0
VERTEX
8
MICR
10
0
20
0
30
0
70
128
71
569
72
570
73
-574
0
VERTEX
8
MICR
10
0
20
0
30
0
70
128
71
-570
72
575
73
574
0
VERTEX
8
MICR
10
0
20
0
30
0
70
128
71
570
72
571
73
-575
0
VERTEX
8
MICR
10
0
20
0
30
0
70
128
71
-571
72
576
73
575
0
VERTEX
8
MICR
10
0
20
0
30
0
70
128
71
571
72
572
73
-576
0
VERTEX
8
MICR
10
0
20
0
30
0
70
128
71
-572
72
573
73
576
0
VERTEX
8
MICR
10
0
20
0
30
0
70
128
71
572
72
569
73
-573
0
VERTEX
8
MICR
10
0
20
0
30
0
70
128
71
-573
72
578
73
577
0
VERTEX
8
MICR
10
0
20
0
30
0
70
128
71
573
72
574
73
-578
0
VERTEX
8
MICR
10
0
20
0
30
0
70
128
71
-574
72
579
73
578
0
VERTEX
8
MICR
10
0
20
0
30
0
70
128
71
574
72
575
73
-579
0
VERTEX
8
MICR
10
0
20
0
30
0
70
128
71
-575
72
580
73
579
0
VERTEX
8
MICR
10
0
20
0
30
0
70
128
71
575
72
576
73
-580
0
VERTEX
8
MICR
10
0
20
0
30
0
70
128
71
-576
72
577
73
580
0
VERTEX
8
MICR
10
0
20
0
30
0
70
128
71
576
72
573
73
-577
0
VERTEX
8
MICR
10
0
20
0
30
0
70
128
71
-577
72
486
73
485
0
VERTEX
8
MICR
10
0
20
0
30
0
70
128
71
577
72
578
73
-486
0
VERTEX
8
MICR
10
0
20
0
30
0
70
128
71
-578
72
487
73
486
0
VERTEX
8
MICR
10
0
20
0
30
0
70
128
71
578
72
579
73
-487
0
VERTEX
8
MICR
10
0
20
0
30
0
70
128
71
-579
72
488
73
487
0
VERTEX
8
MICR
10
0
20
0
30
0
70
128
71
579
72
580
73
-488
0
VERTEX
8
MICR
10
0
20
0
30
0
70
128
71
-580
72
485
73
488
0
VERTEX
8
MICR
10
0
20
0
30
0
70
128
71
580
72
577
73
-485
0
VERTEX
8
MICR
10
0
20
0
30
0
70
128
71
-581
72
586
73
585
0
VERTEX
8
MICR
10
0
20
0
30
0
70
128
71
581
72
582
73
-586
0
VERTEX
8
MICR
10
0
20
0
30
0
70
128
71
-582
72
587
73
586
0
VERTEX
8
MICR
10
0
20
0
30
0
70
128
71
582
72
583
73
-587
0
VERTEX
8
MICR
10
0
20
0
30
0
70
128
71
-583
72
588
73
587
0
VERTEX
8
MICR
10
0
20
0
30
0
70
128
71
583
72
584
73
-588
0
VERTEX
8
MICR
10
0
20
0
30
0
70
128
71
-584
72
585
73
588
0
VERTEX
8
MICR
10
0
20
0
30
0
70
128
71
584
72
581
73
-585
0
VERTEX
8
MICR
10
0
20
0
30
0
70
128
71
-585
72
590
73
589
0
VERTEX
8
MICR
10
0
20
0
30
0
70
128
71
585
72
586
73
-590
0
VERTEX
8
MICR
10
0
20
0
30
0
70
128
71
-586
72
591
73
590
0
VERTEX
8
MICR
10
0
20
0
30
0
70
128
71
586
72
587
73
-591
0
VERTEX
8
MICR
10
0
20
0
30
0
70
128
71
-587
72
592
73
591
0
VERTEX
8
MICR
10
0
20
0
30
0
70
128
71
587
72
588
73
-592
0
VERTEX
8
MICR
10
0
20
0
30
0
70
128
71
-588
72
589
73
592
0
VERTEX
8
MICR
10
0
20
0
30
0
70
128
71
588
72
585
73
-589
0
VERTEX
8
MICR
10
0
20
0
30
0
70
128
71
-589
72
594
73
593
0
VERTEX
8
MICR
10
0
20
0
30
0
70
128
71
589
72
590
73
-594
0
VERTEX
8
MICR
10
0
20
0
30
0
70
128
71
-590
72
595
73
594
0
VERTEX
8
MICR
10
0
20
0
30
0
70
128
71
590
72
591
73
-595
0
VERTEX
8
MICR
10
0
20
0
30
0
70
128
71
-591
72
596
73
595
0
VERTEX
8
MICR
10
0
20
0
30
0
70
128
71
591
72
592
73
-596
0
VERTEX
8
MICR
10
0
20
0
30
0
70
128
71
-592
72
593
73
596
0
VERTEX
8
MICR
10
0
20
0
30
0
70
128
71
592
72
589
73
-593
0
VERTEX
8
MICR
10
0
20
0
30
0
70
128
71
-593
72
598
73
597
0
VERTEX
8
MICR
10
0
20
0
30
0
70
128
71
593
72
594
73
-598
0
VERTEX
8
MICR
10
0
20
0
30
0
70
128
71
-594
72
599
73
598
0
VERTEX
8
MICR
10
0
20
0
30
0
70
128
71
594
72
595
73
-599
0
VERTEX
8
MICR
10
0
20
0
30
0
70
128
71
-595
72
600
73
599
0
VERTEX
8
MICR
10
0
20
0
30
0
70
128
71
595
72
596
73
-600
0
VERTEX
8
MICR
10
0
20
0
30
0
70
128
71
-596
72
597
73
600
0
VERTEX
8
MICR
10
0
20
0
30
0
70
128
71
596
72
593
73
-597
0
VERTEX
8
MICR
10
0
20
0
30
0
70
128
71
-597
72
602
73
601
0
VERTEX
8
MICR
10
0
20
0
30
0
70
128
71
597
72
598
73
-602
0
VERTEX
8
MICR
10
0
20
0
30
0
70
128
71
-598
72
603
73
602
0
VERTEX
8
MICR
10
0
20
0
30
0
70
128
71
598
72
599
73
-603
0
VERTEX
8
MICR
10
0
20
0
30
0
70
128
71
-599
72
604
73
603
0
VERTEX
8
MICR
10
0
20
0
30
0
70
128
71
599
72
600
73
-604
0
VERTEX
8
MICR
10
0
20
0
30
0
70
128
71
-600
72
601
73
604
0
VERTEX
8
MICR
10
0
20
0
30
0
70
128
71
600
72
597
73
-601
0
VERTEX
8
MICR
10
0
20
0
30
0
70
128
71
-601
72
606
73
605
0
VERTEX
8
MICR
10
0
20
0
30
0
70
128
71
601
72
602
73
-606
0
VERTEX
8
MICR
10
0
20
0
30
0
70
128
71
-602
72
607
73
606
0
VERTEX
8
MICR
10
0
20
0
30
0
70
128
71
602
72
603
73
-607
0
VERTEX
8
MICR
10
0
20
0
30
0
70
128
71
-603
72
608
73
607
0
VERTEX
8
MICR
10
0
20
0
30
0
70
128
71
603
72
604
73
-608
0
VERTEX
8
MICR
10
0
20
0
30
0
70
128
71
-604
72
605
73
608
0
VERTEX
8
MICR
10
0
20
0
30
0
70
128
71
604
72
601
73
-605
0
VERTEX
8
MICR
10
0
20
0
30
0
70
128
71
-605
72
610
73
609
0
VERTEX
8
MICR
10
0
20
0
30
0
70
128
71
605
72
606
73
-610
0
VERTEX
8
MICR
10
0
20
0
30
0
70
128
71
-606
72
611
73
610
0
VERTEX
8
MICR
10
0
20
0
30
0
70
128
71
606
72
607
73
-611
0
VERTEX
8
MICR
10
0
20
0
30
0
70
128
71
-607
72
612
73
611
0
VERTEX
8
MICR
10
0
20
0
30
0
70
128
71
607
72
608
73
-612
0
VERTEX
8
MICR
10
0
20
0
30
0
70
128
71
-608
72
609
73
612
0
VERTEX
8
MICR
10
0
20
0
30
0
70
128
71
608
72
605
73
-609
0
VERTEX
8
MICR
10
0
20
0
30
0
70
128
71
-609
72
614
73
613
0
VERTEX
8
MICR
10
0
20
0
30
0
70
128
71
609
72
610
73
-614
0
VERTEX
8
MICR
10
0
20
0
30
0
70
128
71
-610
72
615
73
614
0
VERTEX
8
MICR
10
0
20
0
30
0
70
128
71
610
72
611
73
-615
0
VERTEX
8
MICR
10
0
20
0
30
0
70
128
71
-611
72
616
73
615
0
VERTEX
8
MICR
10
0
20
0
30
0
70
128
71
611
72
612
73
-616
0
VERTEX
8
MICR
10
0
20
0
30
0
70
128
71
-612
72
613
73
616
0
VERTEX
8
MICR
10
0
20
0
30
0
70
128
71
612
72
609
73
-613
0
VERTEX
8
MICR
10
0
20
0
30
0
70
128
71
-613
72
618
73
617
0
VERTEX
8
MICR
10
0
20
0
30
0
70
128
71
613
72
614
73
-618
0
VERTEX
8
MICR
10
0
20
0
30
0
70
128
71
-614
72
619
73
618
0
VERTEX
8
MICR
10
0
20
0
30
0
70
128
71
614
72
615
73
-619
0
VERTEX
8
MICR
10
0
20
0
30
0
70
128
71
-615
72
620
73
619
0
VERTEX
8
MICR
10
0
20
0
30
0
70
128
71
615
72
616
73
-620
0
VERTEX
8
MICR
10
0
20
0
30
0
70
128
71
-616
72
617
73
620
0
VERTEX
8
MICR
10
0
20
0
30
0
70
128
71
616
72
613
73
-617
0
VERTEX
8
MICR
10
0
20
0
30
0
70
128
71
-617
72
622
73
621
0
VERTEX
8
MICR
10
0
20
0
30
0
70
128
71
617
72
618
73
-622
0
VERTEX
8
MICR
10
0
20
0
30
0
70
128
71
-618
72
623
73
622
0
VERTEX
8
MICR
10
0
20
0
30
0
70
128
71
618
72
619
73
-623
0
VERTEX
8
MICR
10
0
20
0
30
0
70
128
71
-619
72
624
73
623
0
VERTEX
8
MICR
10
0
20
0
30
0
70
128
71
619
72
620
73
-624
0
VERTEX
8
MICR
10
0
20
0
30
0
70
128
71
-620
72
621
73
624
0
VERTEX
8
MICR
10
0
20
0
30
0
70
128
71
620
72
617
73
-621
0
VERTEX
8
MICR
10
0
20
0
30
0
70
128
71
-621
72
626
73
625
0
VERTEX
8
MICR
10
0
20
0
30
0
70
128
71
621
72
622
73
-626
0
VERTEX
8
MICR
10
0
20
0
30
0
70
128
71
-622
72
627
73
626
0
VERTEX
8
MICR
10
0
20
0
30
0
70
128
71
622
72
623
73
-627
0
VERTEX
8
MICR
10
0
20
0
30
0
70
128
71
-623
72
628
73
627
0
VERTEX
8
MICR
10
0
20
0
30
0
70
128
71
623
72
624
73
-628
0
VERTEX
8
MICR
10
0
20
0
30
0
70
128
71
-624
72
625
73
628
0
VERTEX
8
MICR
10
0
20
0
30
0
70
128
71
624
72
621
73
-625
0
VERTEX
8
MICR
10
0
20
0
30
0
70
128
71
-625
72
630
73
629
0
VERTEX
8
MICR
10
0
20
0
30
0
70
128
71
625
72
626
73
-630
0
VERTEX
8
MICR
10
0
20
0
30
0
70
128
71
-626
72
631
73
630
0
VERTEX
8
MICR
10
0
20
0
30
0
70
128
71
626
72
627
73
-631
0
VERTEX
8
MICR
10
0
20
0
30
0
70
128
71
-627
72
632
73
631
0
VERTEX
8
MICR
10
0
20
0
30
0
70
128
71
627
72
628
73
-632
0
VERTEX
8
MICR
10
0
20
0
30
0
70
128
71
-628
72
629
73
632
0
VERTEX
8
MICR
10
0
20
0
30
0
70
128
71
628
72
625
73
-629
0
VERTEX
8
MICR
10
0
20
0
30
0
70
128
71
-629
72
634
73
633
0
VERTEX
8
MICR
10
0
20
0
30
0
70
128
71
629
72
630
73
-634
0
VERTEX
8
MICR
10
0
20
0
30
0
70
128
71
-630
72
635
73
634
0
VERTEX
8
MICR
10
0
20
0
30
0
70
128
71
630
72
631
73
-635
0
VERTEX
8
MICR
10
0
20
0
30
0
70
128
71
-631
72
636
73
635
0
VERTEX
8
MICR
10
0
20
0
30
0
70
128
71
631
72
632
73
-636
0
VERTEX
8
MICR
10
0
20
0
30
0
70
128
71
-632
72
633
73
636
0
VERTEX
8
MICR
10
0
20
0
30
0
70
128
71
632
72
629
73
-633
0
VERTEX
8
MICR
10
0
20
0
30
0
70
128
71
-633
72
638
73
637
0
VERTEX
8
MICR
10
0
20
0
30
0
70
128
71
633
72
634
73
-638
0
VERTEX
8
MICR
10
0
20
0
30
0
70
128
71
-634
72
639
73
638
0
VERTEX
8
MICR
10
0
20
0
30
0
70
128
71
634
72
635
73
-639
0
VERTEX
8
MICR
10
0
20
0
30
0
70
128
71
-635
72
640
73
639
0
VERTEX
8
MICR
10
0
20
0
30
0
70
128
71
635
72
636
73
-640
0
VERTEX
8
MICR
10
0
20
0
30
0
70
128
71
-636
72
637
73
640
0
VERTEX
8
MICR
10
0
20
0
30
0
70
128
71
636
72
633
73
-637
0
VERTEX
8
MICR
10
0
20
0
30
0
70
128
71
-637
72
642
73
641
0
VERTEX
8
MICR
10
0
20
0
30
0
70
128
71
637
72
638
73
-642
0
VERTEX
8
MICR
10
0
20
0
30
0
70
128
71
-638
72
643
73
642
0
VERTEX
8
MICR
10
0
20
0
30
0
70
128
71
638
72
639
73
-643
0
VERTEX
8
MICR
10
0
20
0
30
0
70
128
71
-639
72
644
73
643
0
VERTEX
8
MICR
10
0
20
0
30
0
70
128
71
639
72
640
73
-644
0
VERTEX
8
MICR
10
0
20
0
30
0
70
128
71
-640
72
641
73
644
0
VERTEX
8
MICR
10
0
20
0
30
0
70
128
71
640
72
637
73
-641
0
VERTEX
8
MICR
10
0
20
0
30
0
70
128
71
-641
72
646
73
645
0
VERTEX
8
MICR
10
0
20
0
30
0
70
128
71
641
72
642
73
-646
0
VERTEX
8
MICR
10
0
20
0
30
0
70
128
71
-642
72
647
73
646
0
VERTEX
8
MICR
10
0
20
0
30
0
70
128
71
642
72
643
73
-647
0
VERTEX
8
MICR
10
0
20
0
30
0
70
128
71
-643
72
648
73
647
0
VERTEX
8
MICR
10
0
20
0
30
0
70
128
71
643
72
644
73
-648
0
VERTEX
8
MICR
10
0
20
0
30
0
70
128
71
-644
72
645
73
648
0
VERTEX
8
MICR
10
0
20
0
30
0
70
128
71
644
72
641
73
-645
0
VERTEX
8
MICR
10
0
20
0
30
0
70
128
71
-645
72
650
73
649
0
VERTEX
8
MICR
10
0
20
0
30
0
70
128
71
645
72
646
73
-650
0
VERTEX
8
MICR
10
0
20
0
30
0
70
128
71
-646
72
651
73
650
0
VERTEX
8
MICR
10
0
20
0
30
0
70
128
71
646
72
647
73
-651
0
VERTEX
8
MICR
10
0
20
0
30
0
70
128
71
-647
72
652
73
651
0
VERTEX
8
MICR
10
0
20
0
30
0
70
128
71
647
72
648
73
-652
0
VERTEX
8
MICR
10
0
20
0
30
0
70
128
71
-648
72
649
73
652
0
VERTEX
8
MICR
10
0
20
0
30
0
70
128
71
648
72
645
73
-649
0
VERTEX
8
MICR
10
0
20
0
30
0
70
128
71
-649
72
654
73
653
0
VERTEX
8
MICR
10
0
20
0
30
0
70
128
71
649
72
650
73
-654
0
VERTEX
8
MICR
10
0
20
0
30
0
70
128
71
-650
72
655
73
654
0
VERTEX
8
MICR
10
0
20
0
30
0
70
128
71
650
72
651
73
-655
0
VERTEX
8
MICR
10
0
20
0
30
0
70
128
71
-651
72
656
73
655
0
VERTEX
8
MICR
10
0
20
0
30
0
70
128
71
651
72
652
73
-656
0
VERTEX
8
MICR
10
0
20
0
30
0
70
128
71
-652
72
653
73
656
0
VERTEX
8
MICR
10
0
20
0
30
0
70
128
71
652
72
649
73
-653
0
VERTEX
8
MICR
10
0
20
0
30
0
70
128
71
-653
72
658
73
657
0
VERTEX
8
MICR
10
0
20
0
30
0
70
128
71
653
72
654
73
-658
0
VERTEX
8
MICR
10
0
20
0
30
0
70
128
71
-654
72
659
73
658
0
VERTEX
8
MICR
10
0
20
0
30
0
70
128
71
654
72
655
73
-659
0
VERTEX
8
MICR
10
0
20
0
30
0
70
128
71
-655
72
660
73
659
0
VERTEX
8
MICR
10
0
20
0
30
0
70
128
71
655
72
656
73
-660
0
VERTEX
8
MICR
10
0
20
0
30
0
70
128
71
-656
72
657
73
660
0
VERTEX
8
MICR
10
0
20
0
30
0
70
128
71
656
72
653
73
-657
0
VERTEX
8
MICR
10
0
20
0
30
0
70
128
71
-657
72
662
73
661
0
VERTEX
8
MICR
10
0
20
0
30
0
70
128
71
657
72
658
73
-662
0
VERTEX
8
MICR
10
0
20
0
30
0
70
128
71
-658
72
663
73
662
0
VERTEX
8
MICR
10
0
20
0
30
0
70
128
71
658
72
659
73
-663
0
VERTEX
8
MICR
10
0
20
0
30
0
70
128
71
-659
72
664
73
663
0
VERTEX
8
MICR
10
0
20
0
30
0
70
128
71
659
72
660
73
-664
0
VERTEX
8
MICR
10
0
20
0
30
0
70
128
71
-660
72
661
73
664
0
VERTEX
8
MICR
10
0
20
0
30
0
70
128
71
660
72
657
73
-661
0
VERTEX
8
MICR
10
0
20
0
30
0
70
128
71
-661
72
666
73
665
0
VERTEX
8
MICR
10
0
20
0
30
0
70
128
71
661
72
662
73
-666
0
VERTEX
8
MICR
10
0
20
0
30
0
70
128
71
-662
72
667
73
666
0
VERTEX
8
MICR
10
0
20
0
30
0
70
128
71
662
72
663
73
-667
0
VERTEX
8
MICR
10
0
20
0
30
0
70
128
71
-663
72
668
73
667
0
VERTEX
8
MICR
10
0
20
0
30
0
70
128
71
663
72
664
73
-668
0
VERTEX
8
MICR
10
0
20
0
30
0
70
128
71
-664
72
665
73
668
0
VERTEX
8
MICR
10
0
20
0
30
0
70
128
71
664
72
661
73
-665
0
VERTEX
8
MICR
10
0
20
0
30
0
70
128
71
-665
72
670
73
669
0
VERTEX
8
MICR
10
0
20
0
30
0
70
128
71
665
72
666
73
-670
0
VERTEX
8
MICR
10
0
20
0
30
0
70
128
71
-666
72
671
73
670
0
VERTEX
8
MICR
10
0
20
0
30
0
70
128
71
666
72
667
73
-671
0
VERTEX
8
MICR
10
0
20
0
30
0
70
128
71
-667
72
672
73
671
0
VERTEX
8
MICR
10
0
20
0
30
0
70
128
71
667
72
668
73
-672
0
VERTEX
8
MICR
10
0
20
0
30
0
70
128
71
-668
72
669
73
672
0
VERTEX
8
MICR
10
0
20
0
30
0
70
128
71
668
72
665
73
-669
0
VERTEX
8
MICR
10
0
20
0
30
0
70
128
71
-669
72
674
73
673
0
VERTEX
8
MICR
10
0
20
0
30
0
70
128
71
669
72
670
73
-674
0
VERTEX
8
MICR
10
0
20
0
30
0
70
128
71
-670
72
675
73
674
0
VERTEX
8
MICR
10
0
20
0
30
0
70
128
71
670
72
671
73
-675
0
VERTEX
8
MICR
10
0
20
0
30
0
70
128
71
-671
72
676
73
675
0
VERTEX
8
MICR
10
0
20
0
30
0
70
128
71
671
72
672
73
-676
0
VERTEX
8
MICR
10
0
20
0
30
0
70
128
71
-672
72
673
73
676
0
VERTEX
8
MICR
10
0
20
0
30
0
70
128
71
672
72
669
73
-673
0
VERTEX
8
MICR
10
0
20
0
30
0
70
128
71
-673
72
582
73
581
0
VERTEX
8
MICR
10
0
20
0
30
0
70
128
71
673
72
674
73
-582
0
VERTEX
8
MICR
10
0
20
0
30
0
70
128
71
-674
72
583
73
582
0
VERTEX
8
MICR
10
0
20
0
30
0
70
128
71
674
72
675
73
-583
0
VERTEX
8
MICR
10
0
20
0
30
0
70
128
71
-675
72
584
73
583
0
VERTEX
8
MICR
10
0
20
0
30
0
70
128
71
675
72
676
73
-584
0
VERTEX
8
MICR
10
0
20
0
30
0
70
128
71
-676
72
581
73
584
0
VERTEX
8
MICR
10
0
20
0
30
0
70
128
71
676
72
673
73
-581
0
VERTEX
8
MICR
10
0
20
0
30
0
70
128
71
-677
72
752
73
-751
0
VERTEX
8
MICR
10
0
20
0
30
0
70
128
71
-677
72
753
73
-752
0
VERTEX
8
MICR
10
0
20
0
30
0
70
128
71
-677
72
754
73
-753
0
VERTEX
8
MICR
10
0
20
0
30
0
70
128
71
-677
72
755
73
-754
0
VERTEX
8
MICR
10
0
20
0
30
0
70
128
71
-677
72
756
73
-755
0
VERTEX
8
MICR
10
0
20
0
30
0
70
128
71
-677
72
757
73
-756
0
VERTEX
8
MICR
10
0
20
0
30
0
70
128
71
-677
72
758
73
-757
0
VERTEX
8
MICR
10
0
20
0
30
0
70
128
71
-677
72
759
73
-758
0
VERTEX
8
MICR
10
0
20
0
30
0
70
128
71
-677
72
760
73
-759
0
VERTEX
8
MICR
10
0
20
0
30
0
70
128
71
-677
72
761
73
-760
0
VERTEX
8
MICR
10
0
20
0
30
0
70
128
71
-677
72
762
73
-761
0
VERTEX
8
MICR
10
0
20
0
30
0
70
128
71
-677
72
751
73
-762
0
VERTEX
8
MICR
10
0
20
0
30
0
70
128
71
-678
72
691
73
690
0
VERTEX
8
MICR
10
0
20
0
30
0
70
128
71
678
72
679
73
-691
0
VERTEX
8
MICR
10
0
20
0
30
0
70
128
71
-679
72
692
73
691
0
VERTEX
8
MICR
10
0
20
0
30
0
70
128
71
679
72
680
73
-692
0
VERTEX
8
MICR
10
0
20
0
30
0
70
128
71
-680
72
693
73
692
0
VERTEX
8
MICR
10
0
20
0
30
0
70
128
71
680
72
681
73
-693
0
VERTEX
8
MICR
10
0
20
0
30
0
70
128
71
-681
72
694
73
693
0
VERTEX
8
MICR
10
0
20
0
30
0
70
128
71
681
72
682
73
-694
0
VERTEX
8
MICR
10
0
20
0
30
0
70
128
71
-682
72
695
73
694
0
VERTEX
8
MICR
10
0
20
0
30
0
70
128
71
682
72
683
73
-695
0
VERTEX
8
MICR
10
0
20
0
30
0
70
128
71
-683
72
696
73
695
0
VERTEX
8
MICR
10
0
20
0
30
0
70
128
71
683
72
684
73
-696
0
VERTEX
8
MICR
10
0
20
0
30
0
70
128
71
-684
72
697
73
696
0
VERTEX
8
MICR
10
0
20
0
30
0
70
128
71
684
72
685
73
-697
0
VERTEX
8
MICR
10
0
20
0
30
0
70
128
71
-685
72
698
73
697
0
VERTEX
8
MICR
10
0
20
0
30
0
70
128
71
685
72
686
73
-698
0
VERTEX
8
MICR
10
0
20
0
30
0
70
128
71
-686
72
699
73
698
0
VERTEX
8
MICR
10
0
20
0
30
0
70
128
71
686
72
687
73
-699
0
VERTEX
8
MICR
10
0
20
0
30
0
70
128
71
-687
72
700
73
699
0
VERTEX
8
MICR
10
0
20
0
30
0
70
128
71
687
72
688
73
-700
0
VERTEX
8
MICR
10
0
20
0
30
0
70
128
71
-688
72
701
73
700
0
VERTEX
8
MICR
10
0
20
0
30
0
70
128
71
688
72
689
73
-701
0
VERTEX
8
MICR
10
0
20
0
30
0
70
128
71
-689
72
690
73
701
0
VERTEX
8
MICR
10
0
20
0
30
0
70
128
71
689
72
678
73
-690
0
VERTEX
8
MICR
10
0
20
0
30
0
70
128
71
-702
72
763
73
-764
0
VERTEX
8
MICR
10
0
20
0
30
0
70
128
71
-702
72
764
73
-765
0
VERTEX
8
MICR
10
0
20
0
30
0
70
128
71
-702
72
765
73
-766
0
VERTEX
8
MICR
10
0
20
0
30
0
70
128
71
-702
72
766
73
-767
0
VERTEX
8
MICR
10
0
20
0
30
0
70
128
71
-702
72
767
73
-768
0
VERTEX
8
MICR
10
0
20
0
30
0
70
128
71
-702
72
768
73
-769
0
VERTEX
8
MICR
10
0
20
0
30
0
70
128
71
-702
72
769
73
-770
0
VERTEX
8
MICR
10
0
20
0
30
0
70
128
71
-702
72
770
73
-771
0
VERTEX
8
MICR
10
0
20
0
30
0
70
128
71
-702
72
771
73
-772
0
VERTEX
8
MICR
10
0
20
0
30
0
70
128
71
-702
72
772
73
-773
0
VERTEX
8
MICR
10
0
20
0
30
0
70
128
71
-702
72
773
73
-774
0
VERTEX
8
MICR
10
0
20
0
30
0
70
128
71
-702
72
774
73
-763
0
VERTEX
8
MICR
10
0
20
0
30
0
70
128
71
679
72
678
73
-703
0
VERTEX
8
MICR
10
0
20
0
30
0
70
128
71
703
72
704
73
-679
0
VERTEX
8
MICR
10
0
20
0
30
0
70
128
71
680
72
679
73
-704
0
VERTEX
8
MICR
10
0
20
0
30
0
70
128
71
704
72
705
73
-680
0
VERTEX
8
MICR
10
0
20
0
30
0
70
128
71
681
72
680
73
-705
0
VERTEX
8
MICR
10
0
20
0
30
0
70
128
71
705
72
706
73
-681
0
VERTEX
8
MICR
10
0
20
0
30
0
70
128
71
682
72
681
73
-706
0
VERTEX
8
MICR
10
0
20
0
30
0
70
128
71
706
72
707
73
-682
0
VERTEX
8
MICR
10
0
20
0
30
0
70
128
71
683
72
682
73
-707
0
VERTEX
8
MICR
10
0
20
0
30
0
70
128
71
707
72
708
73
-683
0
VERTEX
8
MICR
10
0
20
0
30
0
70
128
71
684
72
683
73
-708
0
VERTEX
8
MICR
10
0
20
0
30
0
70
128
71
708
72
709
73
-684
0
VERTEX
8
MICR
10
0
20
0
30
0
70
128
71
685
72
684
73
-709
0
VERTEX
8
MICR
10
0
20
0
30
0
70
128
71
709
72
710
73
-685
0
VERTEX
8
MICR
10
0
20
0
30
0
70
128
71
686
72
685
73
-710
0
VERTEX
8
MICR
10
0
20
0
30
0
70
128
71
710
72
711
73
-686
0
VERTEX
8
MICR
10
0
20
0
30
0
70
128
71
687
72
686
73
-711
0
VERTEX
8
MICR
10
0
20
0
30
0
70
128
71
711
72
712
73
-687
0
VERTEX
8
MICR
10
0
20
0
30
0
70
128
71
688
72
687
73
-712
0
VERTEX
8
MICR
10
0
20
0
30
0
70
128
71
712
72
713
73
-688
0
VERTEX
8
MICR
10
0
20
0
30
0
70
128
71
689
72
688
73
-713
0
VERTEX
8
MICR
10
0
20
0
30
0
70
128
71
713
72
714
73
-689
0
VERTEX
8
MICR
10
0
20
0
30
0
70
128
71
678
72
689
73
-714
0
VERTEX
8
MICR
10
0
20
0
30
0
70
128
71
714
72
703
73
-678
0
VERTEX
8
MICR
10
0
20
0
30
0
70
128
71
690
72
691
73
-716
0
VERTEX
8
MICR
10
0
20
0
30
0
70
128
71
716
72
715
73
-690
0
VERTEX
8
MICR
10
0
20
0
30
0
70
128
71
691
72
692
73
-717
0
VERTEX
8
MICR
10
0
20
0
30
0
70
128
71
717
72
716
73
-691
0
VERTEX
8
MICR
10
0
20
0
30
0
70
128
71
692
72
693
73
-718
0
VERTEX
8
MICR
10
0
20
0
30
0
70
128
71
718
72
717
73
-692
0
VERTEX
8
MICR
10
0
20
0
30
0
70
128
71
693
72
694
73
-719
0
VERTEX
8
MICR
10
0
20
0
30
0
70
128
71
719
72
718
73
-693
0
VERTEX
8
MICR
10
0
20
0
30
0
70
128
71
694
72
695
73
-720
0
VERTEX
8
MICR
10
0
20
0
30
0
70
128
71
720
72
719
73
-694
0
VERTEX
8
MICR
10
0
20
0
30
0
70
128
71
695
72
696
73
-721
0
VERTEX
8
MICR
10
0
20
0
30
0
70
128
71
721
72
720
73
-695
0
VERTEX
8
MICR
10
0
20
0
30
0
70
128
71
696
72
697
73
-722
0
VERTEX
8
MICR
10
0
20
0
30
0
70
128
71
722
72
721
73
-696
0
VERTEX
8
MICR
10
0
20
0
30
0
70
128
71
697
72
698
73
-723
0
VERTEX
8
MICR
10
0
20
0
30
0
70
128
71
723
72
722
73
-697
0
VERTEX
8
MICR
10
0
20
0
30
0
70
128
71
698
72
699
73
-724
0
VERTEX
8
MICR
10
0
20
0
30
0
70
128
71
724
72
723
73
-698
0
VERTEX
8
MICR
10
0
20
0
30
0
70
128
71
699
72
700
73
-725
0
VERTEX
8
MICR
10
0
20
0
30
0
70
128
71
725
72
724
73
-699
0
VERTEX
8
MICR
10
0
20
0
30
0
70
128
71
700
72
701
73
-726
0
VERTEX
8
MICR
10
0
20
0
30
0
70
128
71
726
72
725
73
-700
0
VERTEX
8
MICR
10
0
20
0
30
0
70
128
71
701
72
690
73
-715
0
VERTEX
8
MICR
10
0
20
0
30
0
70
128
71
715
72
726
73
-701
0
VERTEX
8
MICR
10
0
20
0
30
0
70
128
71
704
72
703
73
-727
0
VERTEX
8
MICR
10
0
20
0
30
0
70
128
71
727
72
728
73
-704
0
VERTEX
8
MICR
10
0
20
0
30
0
70
128
71
705
72
704
73
-728
0
VERTEX
8
MICR
10
0
20
0
30
0
70
128
71
728
72
729
73
-705
0
VERTEX
8
MICR
10
0
20
0
30
0
70
128
71
706
72
705
73
-729
0
VERTEX
8
MICR
10
0
20
0
30
0
70
128
71
729
72
730
73
-706
0
VERTEX
8
MICR
10
0
20
0
30
0
70
128
71
707
72
706
73
-730
0
VERTEX
8
MICR
10
0
20
0
30
0
70
128
71
730
72
731
73
-707
0
VERTEX
8
MICR
10
0
20
0
30
0
70
128
71
708
72
707
73
-731
0
VERTEX
8
MICR
10
0
20
0
30
0
70
128
71
731
72
732
73
-708
0
VERTEX
8
MICR
10
0
20
0
30
0
70
128
71
709
72
708
73
-732
0
VERTEX
8
MICR
10
0
20
0
30
0
70
128
71
732
72
733
73
-709
0
VERTEX
8
MICR
10
0
20
0
30
0
70
128
71
710
72
709
73
-733
0
VERTEX
8
MICR
10
0
20
0
30
0
70
128
71
733
72
734
73
-710
0
VERTEX
8
MICR
10
0
20
0
30
0
70
128
71
711
72
710
73
-734
0
VERTEX
8
MICR
10
0
20
0
30
0
70
128
71
734
72
735
73
-711
0
VERTEX
8
MICR
10
0
20
0
30
0
70
128
71
712
72
711
73
-735
0
VERTEX
8
MICR
10
0
20
0
30
0
70
128
71
735
72
736
73
-712
0
VERTEX
8
MICR
10
0
20
0
30
0
70
128
71
713
72
712
73
-736
0
VERTEX
8
MICR
10
0
20
0
30
0
70
128
71
736
72
737
73
-713
0
VERTEX
8
MICR
10
0
20
0
30
0
70
128
71
714
72
713
73
-737
0
VERTEX
8
MICR
10
0
20
0
30
0
70
128
71
737
72
738
73
-714
0
VERTEX
8
MICR
10
0
20
0
30
0
70
128
71
703
72
714
73
-738
0
VERTEX
8
MICR
10
0
20
0
30
0
70
128
71
738
72
727
73
-703
0
VERTEX
8
MICR
10
0
20
0
30
0
70
128
71
715
72
716
73
-740
0
VERTEX
8
MICR
10
0
20
0
30
0
70
128
71
740
72
739
73
-715
0
VERTEX
8
MICR
10
0
20
0
30
0
70
128
71
716
72
717
73
-741
0
VERTEX
8
MICR
10
0
20
0
30
0
70
128
71
741
72
740
73
-716
0
VERTEX
8
MICR
10
0
20
0
30
0
70
128
71
717
72
718
73
-742
0
VERTEX
8
MICR
10
0
20
0
30
0
70
128
71
742
72
741
73
-717
0
VERTEX
8
MICR
10
0
20
0
30
0
70
128
71
718
72
719
73
-743
0
VERTEX
8
MICR
10
0
20
0
30
0
70
128
71
743
72
742
73
-718
0
VERTEX
8
MICR
10
0
20
0
30
0
70
128
71
719
72
720
73
-744
0
VERTEX
8
MICR
10
0
20
0
30
0
70
128
71
744
72
743
73
-719
0
VERTEX
8
MICR
10
0
20
0
30
0
70
128
71
720
72
721
73
-745
0
VERTEX
8
MICR
10
0
20
0
30
0
70
128
71
745
72
744
73
-720
0
VERTEX
8
MICR
10
0
20
0
30
0
70
128
71
721
72
722
73
-746
0
VERTEX
8
MICR
10
0
20
0
30
0
70
128
71
746
72
745
73
-721
0
VERTEX
8
MICR
10
0
20
0
30
0
70
128
71
722
72
723
73
-747
0
VERTEX
8
MICR
10
0
20
0
30
0
70
128
71
747
72
746
73
-722
0
VERTEX
8
MICR
10
0
20
0
30
0
70
128
71
723
72
724
73
-748
0
VERTEX
8
MICR
10
0
20
0
30
0
70
128
71
748
72
747
73
-723
0
VERTEX
8
MICR
10
0
20
0
30
0
70
128
71
724
72
725
73
-749
0
VERTEX
8
MICR
10
0
20
0
30
0
70
128
71
749
72
748
73
-724
0
VERTEX
8
MICR
10
0
20
0
30
0
70
128
71
725
72
726
73
-750
0
VERTEX
8
MICR
10
0
20
0
30
0
70
128
71
750
72
749
73
-725
0
VERTEX
8
MICR
10
0
20
0
30
0
70
128
71
726
72
715
73
-739
0
VERTEX
8
MICR
10
0
20
0
30
0
70
128
71
739
72
750
73
-726
0
VERTEX
8
MICR
10
0
20
0
30
0
70
128
71
728
72
727
73
-751
0
VERTEX
8
MICR
10
0
20
0
30
0
70
128
71
751
72
752
73
-728
0
VERTEX
8
MICR
10
0
20
0
30
0
70
128
71
729
72
728
73
-752
0
VERTEX
8
MICR
10
0
20
0
30
0
70
128
71
752
72
753
73
-729
0
VERTEX
8
MICR
10
0
20
0
30
0
70
128
71
730
72
729
73
-753
0
VERTEX
8
MICR
10
0
20
0
30
0
70
128
71
753
72
754
73
-730
0
VERTEX
8
MICR
10
0
20
0
30
0
70
128
71
731
72
730
73
-754
0
VERTEX
8
MICR
10
0
20
0
30
0
70
128
71
754
72
755
73
-731
0
VERTEX
8
MICR
10
0
20
0
30
0
70
128
71
732
72
731
73
-755
0
VERTEX
8
MICR
10
0
20
0
30
0
70
128
71
755
72
756
73
-732
0
VERTEX
8
MICR
10
0
20
0
30
0
70
128
71
733
72
732
73
-756
0
VERTEX
8
MICR
10
0
20
0
30
0
70
128
71
756
72
757
73
-733
0
VERTEX
8
MICR
10
0
20
0
30
0
70
128
71
734
72
733
73
-757
0
VERTEX
8
MICR
10
0
20
0
30
0
70
128
71
757
72
758
73
-734
0
VERTEX
8
MICR
10
0
20
0
30
0
70
128
71
735
72
734
73
-758
0
VERTEX
8
MICR
10
0
20
0
30
0
70
128
71
758
72
759
73
-735
0
VERTEX
8
MICR
10
0
20
0
30
0
70
128
71
736
72
735
73
-759
0
VERTEX
8
MICR
10
0
20
0
30
0
70
128
71
759
72
760
73
-736
0
VERTEX
8
MICR
10
0
20
0
30
0
70
128
71
737
72
736
73
-760
0
VERTEX
8
MICR
10
0
20
0
30
0
70
128
71
760
72
761
73
-737
0
VERTEX
8
MICR
10
0
20
0
30
0
70
128
71
738
72
737
73
-761
0
VERTEX
8
MICR
10
0
20
0
30
0
70
128
71
761
72
762
73
-738
0
VERTEX
8
MICR
10
0
20
0
30
0
70
128
71
727
72
738
73
-762
0
VERTEX
8
MICR
10
0
20
0
30
0
70
128
71
762
72
751
73
-727
0
VERTEX
8
MICR
10
0
20
0
30
0
70
128
71
739
72
740
73
-764
0
VERTEX
8
MICR
10
0
20
0
30
0
70
128
71
764
72
763
73
-739
0
VERTEX
8
MICR
10
0
20
0
30
0
70
128
71
740
72
741
73
-765
0
VERTEX
8
MICR
10
0
20
0
30
0
70
128
71
765
72
764
73
-740
0
VERTEX
8
MICR
10
0
20
0
30
0
70
128
71
741
72
742
73
-766
0
VERTEX
8
MICR
10
0
20
0
30
0
70
128
71
766
72
765
73
-741
0
VERTEX
8
MICR
10
0
20
0
30
0
70
128
71
742
72
743
73
-767
0
VERTEX
8
MICR
10
0
20
0
30
0
70
128
71
767
72
766
73
-742
0
VERTEX
8
MICR
10
0
20
0
30
0
70
128
71
743
72
744
73
-768
0
VERTEX
8
MICR
10
0
20
0
30
0
70
128
71
768
72
767
73
-743
0
VERTEX
8
MICR
10
0
20
0
30
0
70
128
71
744
72
745
73
-769
0
VERTEX
8
MICR
10
0
20
0
30
0
70
128
71
769
72
768
73
-744
0
VERTEX
8
MICR
10
0
20
0
30
0
70
128
71
745
72
746
73
-770
0
VERTEX
8
MICR
10
0
20
0
30
0
70
128
71
770
72
769
73
-745
0
VERTEX
8
MICR
10
0
20
0
30
0
70
128
71
746
72
747
73
-771
0
VERTEX
8
MICR
10
0
20
0
30
0
70
128
71
771
72
770
73
-746
0
VERTEX
8
MICR
10
0
20
0
30
0
70
128
71
747
72
748
73
-772
0
VERTEX
8
MICR
10
0
20
0
30
0
70
128
71
772
72
771
73
-747
0
VERTEX
8
MICR
10
0
20
0
30
0
70
128
71
748
72
749
73
-773
0
VERTEX
8
MICR
10
0
20
0
30
0
70
128
71
773
72
772
73
-748
0
VERTEX
8
MICR
10
0
20
0
30
0
70
128
71
749
72
750
73
-774
0
VERTEX
8
MICR
10
0
20
0
30
0
70
128
71
774
72
773
73
-749
0
VERTEX
8
MICR
10
0
20
0
30
0
70
128
71
750
72
739
73
-763
0
VERTEX
8
MICR
10
0
20
0
30
0
70
128
71
763
72
774
73
-750
0
VERTEX
8
MICR
10
0
20
0
30
0
70
128
71
775
72
776
73
-777
0
VERTEX
8
MICR
10
0
20
0
30
0
70
128
71
-775
72
-791
73
792
0
VERTEX
8
MICR
10
0
20
0
30
0
70
128
71
775
72
779
73
-780
0
VERTEX
8
MICR
10
0
20
0
30
0
70
128
71
-775
72
780
73
776
0
VERTEX
8
MICR
10
0
20
0
30
0
70
128
71
776
72
780
73
-793
0
VERTEX
8
MICR
10
0
20
0
30
0
70
128
71
-776
72
793
73
777
0
VERTEX
8
MICR
10
0
20
0
30
0
70
128
71
801
72
800
73
-802
0
VERTEX
8
MICR
10
0
20
0
30
0
70
128
71
-801
72
802
73
799
0
VERTEX
8
MICR
10
0
20
0
30
0
70
128
71
792
72
790
73
-779
0
VERTEX
8
MICR
10
0
20
0
30
0
70
128
71
-792
72
779
73
775
0
VERTEX
8
MICR
10
0
20
0
30
0
70
128
71
-779
72
794
73
-789
0
VERTEX
8
MICR
10
0
20
0
30
0
70
128
71
-779
72
793
73
780
0
VERTEX
8
MICR
10
0
20
0
30
0
70
128
71
-784
72
-791
73
778
0
VERTEX
8
MICR
10
0
20
0
30
0
70
128
71
-779
72
782
73
-786
0
VERTEX
8
MICR
10
0
20
0
30
0
70
128
71
-775
72
787
73
-783
0
VERTEX
8
MICR
10
0
20
0
30
0
70
128
71
783
72
-787
73
781
0
VERTEX
8
MICR
10
0
20
0
30
0
70
128
71
785
72
-781
73
787
0
VERTEX
8
MICR
10
0
20
0
30
0
70
128
71
784
72
-778
73
782
0
VERTEX
8
MICR
10
0
20
0
30
0
70
128
71
786
72
-782
73
778
0
VERTEX
8
MICR
10
0
20
0
30
0
70
128
71
-779
72
781
73
-785
0
VERTEX
8
MICR
10
0
20
0
30
0
70
128
71
-778
72
791
73
788
0
VERTEX
8
MICR
10
0
20
0
30
0
70
128
71
779
72
790
73
-782
0
VERTEX
8
MICR
10
0
20
0
30
0
70
128
71
-775
72
777
73
-787
0
VERTEX
8
MICR
10
0
20
0
30
0
70
128
71
-775
72
783
73
-791
0
VERTEX
8
MICR
10
0
20
0
30
0
70
128
71
-791
72
784
73
-792
0
VERTEX
8
MICR
10
0
20
0
30
0
70
128
71
787
72
-777
73
785
0
VERTEX
8
MICR
10
0
20
0
30
0
70
128
71
793
72
-785
73
777
0
VERTEX
8
MICR
10
0
20
0
30
0
70
128
71
781
72
-789
73
783
0
VERTEX
8
MICR
10
0
20
0
30
0
70
128
71
791
72
-783
73
789
0
VERTEX
8
MICR
10
0
20
0
30
0
70
128
71
778
72
-788
73
786
0
VERTEX
8
MICR
10
0
20
0
30
0
70
128
71
794
72
-786
73
788
0
VERTEX
8
MICR
10
0
20
0
30
0
70
128
71
782
72
-790
73
784
0
VERTEX
8
MICR
10
0
20
0
30
0
70
128
71
792
72
-784
73
790
0
VERTEX
8
MICR
10
0
20
0
30
0
70
128
71
-779
72
786
73
-794
0
VERTEX
8
MICR
10
0
20
0
30
0
70
128
71
-779
72
789
73
-781
0
VERTEX
8
MICR
10
0
20
0
30
0
70
128
71
-779
72
785
73
-793
0
VERTEX
8
MICR
10
0
20
0
30
0
70
128
71
791
72
789
73
-796
0
VERTEX
8
MICR
10
0
20
0
30
0
70
128
71
796
72
797
73
-791
0
VERTEX
8
MICR
10
0
20
0
30
0
70
128
71
789
72
794
73
-798
0
VERTEX
8
MICR
10
0
20
0
30
0
70
128
71
798
72
796
73
-789
0
VERTEX
8
MICR
10
0
20
0
30
0
70
128
71
794
72
788
73
-795
0
VERTEX
8
MICR
10
0
20
0
30
0
70
128
71
795
72
798
73
-794
0
VERTEX
8
MICR
10
0
20
0
30
0
70
128
71
788
72
791
73
-797
0
VERTEX
8
MICR
10
0
20
0
30
0
70
128
71
797
72
795
73
-788
0
VERTEX
8
MICR
10
0
20
0
30
0
70
128
71
797
72
796
73
-800
0
VERTEX
8
MICR
10
0
20
0
30
0
70
128
71
800
72
801
73
-797
0
VERTEX
8
MICR
10
0
20
0
30
0
70
128
71
796
72
798
73
-802
0
VERTEX
8
MICR
10
0
20
0
30
0
70
128
71
802
72
800
73
-796
0
VERTEX
8
MICR
10
0
20
0
30
0
70
128
71
798
72
795
73
-799
0
VERTEX
8
MICR
10
0
20
0
30
0
70
128
71
799
72
802
73
-798
0
VERTEX
8
MICR
10
0
20
0
30
0
70
128
71
795
72
797
73
-801
0
VERTEX
8
MICR
10
0
20
0
30
0
70
128
71
801
72
799
73
-795
0
VERTEX
8
MICR
10
0
20
0
30
0
70
128
71
-803
72
808
73
807
0
VERTEX
8
MICR
10
0
20
0
30
0
70
128
71
803
72
804
73
-808
0
VERTEX
8
MICR
10
0
20
0
30
0
70
128
71
-804
72
809
73
808
0
VERTEX
8
MICR
10
0
20
0
30
0
70
128
71
804
72
805
73
-809
0
VERTEX
8
MICR
10
0
20
0
30
0
70
128
71
-805
72
810
73
809
0
VERTEX
8
MICR
10
0
20
0
30
0
70
128
71
805
72
806
73
-810
0
VERTEX
8
MICR
10
0
20
0
30
0
70
128
71
-806
72
807
73
810
0
VERTEX
8
MICR
10
0
20
0
30
0
70
128
71
806
72
803
73
-807
0
VERTEX
8
MICR
10
0
20
0
30
0
70
128
71
-807
72
812
73
811
0
VERTEX
8
MICR
10
0
20
0
30
0
70
128
71
807
72
808
73
-812
0
VERTEX
8
MICR
10
0
20
0
30
0
70
128
71
-808
72
813
73
812
0
VERTEX
8
MICR
10
0
20
0
30
0
70
128
71
808
72
809
73
-813
0
VERTEX
8
MICR
10
0
20
0
30
0
70
128
71
-809
72
814
73
813
0
VERTEX
8
MICR
10
0
20
0
30
0
70
128
71
809
72
810
73
-814
0
VERTEX
8
MICR
10
0
20
0
30
0
70
128
71
-810
72
811
73
814
0
VERTEX
8
MICR
10
0
20
0
30
0
70
128
71
810
72
807
73
-811
0
VERTEX
8
MICR
10
0
20
0
30
0
70
128
71
-811
72
816
73
815
0
VERTEX
8
MICR
10
0
20
0
30
0
70
128
71
811
72
812
73
-816
0
VERTEX
8
MICR
10
0
20
0
30
0
70
128
71
-812
72
817
73
816
0
VERTEX
8
MICR
10
0
20
0
30
0
70
128
71
812
72
813
73
-817
0
VERTEX
8
MICR
10
0
20
0
30
0
70
128
71
-813
72
818
73
817
0
VERTEX
8
MICR
10
0
20
0
30
0
70
128
71
813
72
814
73
-818
0
VERTEX
8
MICR
10
0
20
0
30
0
70
128
71
-814
72
815
73
818
0
VERTEX
8
MICR
10
0
20
0
30
0
70
128
71
814
72
811
73
-815
0
VERTEX
8
MICR
10
0
20
0
30
0
70
128
71
-815
72
820
73
819
0
VERTEX
8
MICR
10
0
20
0
30
0
70
128
71
815
72
816
73
-820
0
VERTEX
8
MICR
10
0
20
0
30
0
70
128
71
-816
72
821
73
820
0
VERTEX
8
MICR
10
0
20
0
30
0
70
128
71
816
72
817
73
-821
0
VERTEX
8
MICR
10
0
20
0
30
0
70
128
71
-817
72
822
73
821
0
VERTEX
8
MICR
10
0
20
0
30
0
70
128
71
817
72
818
73
-822
0
VERTEX
8
MICR
10
0
20
0
30
0
70
128
71
-818
72
819
73
822
0
VERTEX
8
MICR
10
0
20
0
30
0
70
128
71
818
72
815
73
-819
0
VERTEX
8
MICR
10
0
20
0
30
0
70
128
71
-819
72
824
73
823
0
VERTEX
8
MICR
10
0
20
0
30
0
70
128
71
819
72
820
73
-824
0
VERTEX
8
MICR
10
0
20
0
30
0
70
128
71
-820
72
825
73
824
0
VERTEX
8
MICR
10
0
20
0
30
0
70
128
71
820
72
821
73
-825
0
VERTEX
8
MICR
10
0
20
0
30
0
70
128
71
-821
72
826
73
825
0
VERTEX
8
MICR
10
0
20
0
30
0
70
128
71
821
72
822
73
-826
0
VERTEX
8
MICR
10
0
20
0
30
0
70
128
71
-822
72
823
73
826
0
VERTEX
8
MICR
10
0
20
0
30
0
70
128
71
822
72
819
73
-823
0
VERTEX
8
MICR
10
0
20
0
30
0
70
128
71
-823
72
828
73
827
0
VERTEX
8
MICR
10
0
20
0
30
0
70
128
71
823
72
824
73
-828
0
VERTEX
8
MICR
10
0
20
0
30
0
70
128
71
-824
72
829
73
828
0
VERTEX
8
MICR
10
0
20
0
30
0
70
128
71
824
72
825
73
-829
0
VERTEX
8
MICR
10
0
20
0
30
0
70
128
71
-825
72
830
73
829
0
VERTEX
8
MICR
10
0
20
0
30
0
70
128
71
825
72
826
73
-830
0
VERTEX
8
MICR
10
0
20
0
30
0
70
128
71
-826
72
827
73
830
0
VERTEX
8
MICR
10
0
20
0
30
0
70
128
71
826
72
823
73
-827
0
VERTEX
8
MICR
10
0
20
0
30
0
70
128
71
-827
72
832
73
831
0
VERTEX
8
MICR
10
0
20
0
30
0
70
128
71
827
72
828
73
-832
0
VERTEX
8
MICR
10
0
20
0
30
0
70
128
71
-828
72
833
73
832
0
VERTEX
8
MICR
10
0
20
0
30
0
70
128
71
828
72
829
73
-833
0
VERTEX
8
MICR
10
0
20
0
30
0
70
128
71
-829
72
834
73
833
0
VERTEX
8
MICR
10
0
20
0
30
0
70
128
71
829
72
830
73
-834
0
VERTEX
8
MICR
10
0
20
0
30
0
70
128
71
-830
72
831
73
834
0
VERTEX
8
MICR
10
0
20
0
30
0
70
128
71
830
72
827
73
-831
0
VERTEX
8
MICR
10
0
20
0
30
0
70
128
71
-831
72
836
73
835
0
VERTEX
8
MICR
10
0
20
0
30
0
70
128
71
831
72
832
73
-836
0
VERTEX
8
MICR
10
0
20
0
30
0
70
128
71
-832
72
837
73
836
0
VERTEX
8
MICR
10
0
20
0
30
0
70
128
71
832
72
833
73
-837
0
VERTEX
8
MICR
10
0
20
0
30
0
70
128
71
-833
72
838
73
837
0
VERTEX
8
MICR
10
0
20
0
30
0
70
128
71
833
72
834
73
-838
0
VERTEX
8
MICR
10
0
20
0
30
0
70
128
71
-834
72
835
73
838
0
VERTEX
8
MICR
10
0
20
0
30
0
70
128
71
834
72
831
73
-835
0
VERTEX
8
MICR
10
0
20
0
30
0
70
128
71
-835
72
840
73
839
0
VERTEX
8
MICR
10
0
20
0
30
0
70
128
71
835
72
836
73
-840
0
VERTEX
8
MICR
10
0
20
0
30
0
70
128
71
-836
72
841
73
840
0
VERTEX
8
MICR
10
0
20
0
30
0
70
128
71
836
72
837
73
-841
0
VERTEX
8
MICR
10
0
20
0
30
0
70
128
71
-837
72
842
73
841
0
VERTEX
8
MICR
10
0
20
0
30
0
70
128
71
837
72
838
73
-842
0
VERTEX
8
MICR
10
0
20
0
30
0
70
128
71
-838
72
839
73
842
0
VERTEX
8
MICR
10
0
20
0
30
0
70
128
71
838
72
835
73
-839
0
VERTEX
8
MICR
10
0
20
0
30
0
70
128
71
-839
72
844
73
843
0
VERTEX
8
MICR
10
0
20
0
30
0
70
128
71
839
72
840
73
-844
0
VERTEX
8
MICR
10
0
20
0
30
0
70
128
71
-840
72
845
73
844
0
VERTEX
8
MICR
10
0
20
0
30
0
70
128
71
840
72
841
73
-845
0
VERTEX
8
MICR
10
0
20
0
30
0
70
128
71
-841
72
846
73
845
0
VERTEX
8
MICR
10
0
20
0
30
0
70
128
71
841
72
842
73
-846
0
VERTEX
8
MICR
10
0
20
0
30
0
70
128
71
-842
72
843
73
846
0
VERTEX
8
MICR
10
0
20
0
30
0
70
128
71
842
72
839
73
-843
0
VERTEX
8
MICR
10
0
20
0
30
0
70
128
71
805
72
-804
73
806
0
VERTEX
8
MICR
10
0
20
0
30
0
70
128
71
846
72
-843
73
845
0
VERTEX
8
MICR
10
0
20
0
30
0
70
128
71
803
72
-806
73
804
0
VERTEX
8
MICR
10
0
20
0
30
0
70
128
71
844
72
-845
73
843
0
VERTEX
8
MICR
10
0
20
0
30
0
70
128
71
847
72
848
73
-860
0
VERTEX
8
MICR
10
0
20
0
30
0
70
128
71
-847
72
860
73
859
0
VERTEX
8
MICR
10
0
20
0
30
0
70
128
71
848
72
849
73
-861
0
VERTEX
8
MICR
10
0
20
0
30
0
70
128
71
-848
72
861
73
860
0
VERTEX
8
MICR
10
0
20
0
30
0
70
128
71
849
72
850
73
-862
0
VERTEX
8
MICR
10
0
20
0
30
0
70
128
71
-849
72
862
73
861
0
VERTEX
8
MICR
10
0
20
0
30
0
70
128
71
850
72
851
73
-863
0
VERTEX
8
MICR
10
0
20
0
30
0
70
128
71
-850
72
863
73
862
0
VERTEX
8
MICR
10
0
20
0
30
0
70
128
71
851
72
852
73
-864
0
VERTEX
8
MICR
10
0
20
0
30
0
70
128
71
-851
72
864
73
863
0
VERTEX
8
MICR
10
0
20
0
30
0
70
128
71
852
72
853
73
-865
0
VERTEX
8
MICR
10
0
20
0
30
0
70
128
71
-852
72
865
73
864
0
VERTEX
8
MICR
10
0
20
0
30
0
70
128
71
853
72
854
73
-866
0
VERTEX
8
MICR
10
0
20
0
30
0
70
128
71
-853
72
866
73
865
0
VERTEX
8
MICR
10
0
20
0
30
0
70
128
71
854
72
855
73
-867
0
VERTEX
8
MICR
10
0
20
0
30
0
70
128
71
-854
72
867
73
866
0
VERTEX
8
MICR
10
0
20
0
30
0
70
128
71
855
72
856
73
-868
0
VERTEX
8
MICR
10
0
20
0
30
0
70
128
71
-855
72
868
73
867
0
VERTEX
8
MICR
10
0
20
0
30
0
70
128
71
856
72
857
73
-869
0
VERTEX
8
MICR
10
0
20
0
30
0
70
128
71
-856
72
869
73
868
0
VERTEX
8
MICR
10
0
20
0
30
0
70
128
71
857
72
858
73
-870
0
VERTEX
8
MICR
10
0
20
0
30
0
70
128
71
-857
72
870
73
869
0
VERTEX
8
MICR
10
0
20
0
30
0
70
128
71
858
72
847
73
-859
0
VERTEX
8
MICR
10
0
20
0
30
0
70
128
71
-858
72
859
73
870
0
VERTEX
8
MICR
10
0
20
0
30
0
70
128
71
859
72
860
73
-872
0
VERTEX
8
MICR
10
0
20
0
30
0
70
128
71
-859
72
872
73
871
0
VERTEX
8
MICR
10
0
20
0
30
0
70
128
71
860
72
861
73
-873
0
VERTEX
8
MICR
10
0
20
0
30
0
70
128
71
-860
72
873
73
872
0
VERTEX
8
MICR
10
0
20
0
30
0
70
128
71
861
72
862
73
-874
0
VERTEX
8
MICR
10
0
20
0
30
0
70
128
71
-861
72
874
73
873
0
VERTEX
8
MICR
10
0
20
0
30
0
70
128
71
862
72
863
73
-875
0
VERTEX
8
MICR
10
0
20
0
30
0
70
128
71
-862
72
875
73
874
0
VERTEX
8
MICR
10
0
20
0
30
0
70
128
71
863
72
864
73
-876
0
VERTEX
8
MICR
10
0
20
0
30
0
70
128
71
-863
72
876
73
875
0
VERTEX
8
MICR
10
0
20
0
30
0
70
128
71
864
72
865
73
-877
0
VERTEX
8
MICR
10
0
20
0
30
0
70
128
71
-864
72
877
73
876
0
VERTEX
8
MICR
10
0
20
0
30
0
70
128
71
865
72
866
73
-878
0
VERTEX
8
MICR
10
0
20
0
30
0
70
128
71
-865
72
878
73
877
0
VERTEX
8
MICR
10
0
20
0
30
0
70
128
71
866
72
867
73
-879
0
VERTEX
8
MICR
10
0
20
0
30
0
70
128
71
-866
72
879
73
878
0
VERTEX
8
MICR
10
0
20
0
30
0
70
128
71
867
72
868
73
-880
0
VERTEX
8
MICR
10
0
20
0
30
0
70
128
71
-867
72
880
73
879
0
VERTEX
8
MICR
10
0
20
0
30
0
70
128
71
868
72
869
73
-881
0
VERTEX
8
MICR
10
0
20
0
30
0
70
128
71
-868
72
881
73
880
0
VERTEX
8
MICR
10
0
20
0
30
0
70
128
71
869
72
870
73
-882
0
VERTEX
8
MICR
10
0
20
0
30
0
70
128
71
-869
72
882
73
881
0
VERTEX
8
MICR
10
0
20
0
30
0
70
128
71
870
72
859
73
-871
0
VERTEX
8
MICR
10
0
20
0
30
0
70
128
71
-870
72
871
73
882
0
VERTEX
8
MICR
10
0
20
0
30
0
70
128
71
871
72
872
73
-884
0
VERTEX
8
MICR
10
0
20
0
30
0
70
128
71
-871
72
884
73
883
0
VERTEX
8
MICR
10
0
20
0
30
0
70
128
71
872
72
873
73
-885
0
VERTEX
8
MICR
10
0
20
0
30
0
70
128
71
-872
72
885
73
884
0
VERTEX
8
MICR
10
0
20
0
30
0
70
128
71
873
72
874
73
-886
0
VERTEX
8
MICR
10
0
20
0
30
0
70
128
71
-873
72
886
73
885
0
VERTEX
8
MICR
10
0
20
0
30
0
70
128
71
874
72
875
73
-887
0
VERTEX
8
MICR
10
0
20
0
30
0
70
128
71
-874
72
887
73
886
0
VERTEX
8
MICR
10
0
20
0
30
0
70
128
71
875
72
876
73
-888
0
VERTEX
8
MICR
10
0
20
0
30
0
70
128
71
-875
72
888
73
887
0
VERTEX
8
MICR
10
0
20
0
30
0
70
128
71
876
72
877
73
-889
0
VERTEX
8
MICR
10
0
20
0
30
0
70
128
71
-876
72
889
73
888
0
VERTEX
8
MICR
10
0
20
0
30
0
70
128
71
877
72
878
73
-890
0
VERTEX
8
MICR
10
0
20
0
30
0
70
128
71
-877
72
890
73
889
0
VERTEX
8
MICR
10
0
20
0
30
0
70
128
71
878
72
879
73
-891
0
VERTEX
8
MICR
10
0
20
0
30
0
70
128
71
-878
72
891
73
890
0
VERTEX
8
MICR
10
0
20
0
30
0
70
128
71
879
72
880
73
-892
0
VERTEX
8
MICR
10
0
20
0
30
0
70
128
71
-879
72
892
73
891
0
VERTEX
8
MICR
10
0
20
0
30
0
70
128
71
880
72
881
73
-893
0
VERTEX
8
MICR
10
0
20
0
30
0
70
128
71
-880
72
893
73
892
0
VERTEX
8
MICR
10
0
20
0
30
0
70
128
71
881
72
882
73
-894
0
VERTEX
8
MICR
10
0
20
0
30
0
70
128
71
-881
72
894
73
893
0
VERTEX
8
MICR
10
0
20
0
30
0
70
128
71
882
72
871
73
-883
0
VERTEX
8
MICR
10
0
20
0
30
0
70
128
71
-882
72
883
73
894
0
VERTEX
8
MICR
10
0
20
0
30
0
70
128
71
1018
72
-1017
73
-896
0
VERTEX
8
MICR
10
0
20
0
30
0
70
128
71
1019
72
-1018
73
-896
0
VERTEX
8
MICR
10
0
20
0
30
0
70
128
71
1020
72
-1019
73
-896
0
VERTEX
8
MICR
10
0
20
0
30
0
70
128
71
1021
72
-1020
73
-896
0
VERTEX
8
MICR
10
0
20
0
30
0
70
128
71
1022
72
-1021
73
-896
0
VERTEX
8
MICR
10
0
20
0
30
0
70
128
71
1023
72
-1022
73
-896
0
VERTEX
8
MICR
10
0
20
0
30
0
70
128
71
1024
72
-1023
73
-896
0
VERTEX
8
MICR
10
0
20
0
30
0
70
128
71
1025
72
-1024
73
-896
0
VERTEX
8
MICR
10
0
20
0
30
0
70
128
71
1026
72
-1025
73
-896
0
VERTEX
8
MICR
10
0
20
0
30
0
70
128
71
1027
72
-1026
73
-896
0
VERTEX
8
MICR
10
0
20
0
30
0
70
128
71
1028
72
-1027
73
-896
0
VERTEX
8
MICR
10
0
20
0
30
0
70
128
71
1017
72
-1028
73
-896
0
VERTEX
8
MICR
10
0
20
0
30
0
70
128
71
883
72
-884
73
-895
0
VERTEX
8
MICR
10
0
20
0
30
0
70
128
71
884
72
-885
73
-895
0
VERTEX
8
MICR
10
0
20
0
30
0
70
128
71
885
72
-886
73
-895
0
VERTEX
8
MICR
10
0
20
0
30
0
70
128
71
886
72
-887
73
-895
0
VERTEX
8
MICR
10
0
20
0
30
0
70
128
71
887
72
-888
73
-895
0
VERTEX
8
MICR
10
0
20
0
30
0
70
128
71
888
72
-889
73
-895
0
VERTEX
8
MICR
10
0
20
0
30
0
70
128
71
889
72
-890
73
-895
0
VERTEX
8
MICR
10
0
20
0
30
0
70
128
71
890
72
-891
73
-895
0
VERTEX
8
MICR
10
0
20
0
30
0
70
128
71
891
72
-892
73
-895
0
VERTEX
8
MICR
10
0
20
0
30
0
70
128
71
892
72
-893
73
-895
0
VERTEX
8
MICR
10
0
20
0
30
0
70
128
71
893
72
-894
73
-895
0
VERTEX
8
MICR
10
0
20
0
30
0
70
128
71
894
72
-883
73
-895
0
VERTEX
8
MICR
10
0
20
0
30
0
70
128
71
848
72
847
73
-897
0
VERTEX
8
MICR
10
0
20
0
30
0
70
128
71
897
72
898
73
-848
0
VERTEX
8
MICR
10
0
20
0
30
0
70
128
71
849
72
848
73
-898
0
VERTEX
8
MICR
10
0
20
0
30
0
70
128
71
898
72
899
73
-849
0
VERTEX
8
MICR
10
0
20
0
30
0
70
128
71
850
72
849
73
-899
0
VERTEX
8
MICR
10
0
20
0
30
0
70
128
71
899
72
900
73
-850
0
VERTEX
8
MICR
10
0
20
0
30
0
70
128
71
851
72
850
73
-900
0
VERTEX
8
MICR
10
0
20
0
30
0
70
128
71
900
72
901
73
-851
0
VERTEX
8
MICR
10
0
20
0
30
0
70
128
71
852
72
851
73
-901
0
VERTEX
8
MICR
10
0
20
0
30
0
70
128
71
901
72
902
73
-852
0
VERTEX
8
MICR
10
0
20
0
30
0
70
128
71
853
72
852
73
-902
0
VERTEX
8
MICR
10
0
20
0
30
0
70
128
71
902
72
903
73
-853
0
VERTEX
8
MICR
10
0
20
0
30
0
70
128
71
854
72
853
73
-903
0
VERTEX
8
MICR
10
0
20
0
30
0
70
128
71
903
72
904
73
-854
0
VERTEX
8
MICR
10
0
20
0
30
0
70
128
71
855
72
854
73
-904
0
VERTEX
8
MICR
10
0
20
0
30
0
70
128
71
904
72
905
73
-855
0
VERTEX
8
MICR
10
0
20
0
30
0
70
128
71
856
72
855
73
-905
0
VERTEX
8
MICR
10
0
20
0
30
0
70
128
71
905
72
906
73
-856
0
VERTEX
8
MICR
10
0
20
0
30
0
70
128
71
857
72
856
73
-906
0
VERTEX
8
MICR
10
0
20
0
30
0
70
128
71
906
72
907
73
-857
0
VERTEX
8
MICR
10
0
20
0
30
0
70
128
71
858
72
857
73
-907
0
VERTEX
8
MICR
10
0
20
0
30
0
70
128
71
907
72
908
73
-858
0
VERTEX
8
MICR
10
0
20
0
30
0
70
128
71
847
72
858
73
-908
0
VERTEX
8
MICR
10
0
20
0
30
0
70
128
71
908
72
897
73
-847
0
VERTEX
8
MICR
10
0
20
0
30
0
70
128
71
898
72
897
73
-909
0
VERTEX
8
MICR
10
0
20
0
30
0
70
128
71
909
72
910
73
-898
0
VERTEX
8
MICR
10
0
20
0
30
0
70
128
71
899
72
898
73
-910
0
VERTEX
8
MICR
10
0
20
0
30
0
70
128
71
910
72
911
73
-899
0
VERTEX
8
MICR
10
0
20
0
30
0
70
128
71
900
72
899
73
-911
0
VERTEX
8
MICR
10
0
20
0
30
0
70
128
71
911
72
912
73
-900
0
VERTEX
8
MICR
10
0
20
0
30
0
70
128
71
901
72
900
73
-912
0
VERTEX
8
MICR
10
0
20
0
30
0
70
128
71
912
72
913
73
-901
0
VERTEX
8
MICR
10
0
20
0
30
0
70
128
71
902
72
901
73
-913
0
VERTEX
8
MICR
10
0
20
0
30
0
70
128
71
913
72
914
73
-902
0
VERTEX
8
MICR
10
0
20
0
30
0
70
128
71
903
72
902
73
-914
0
VERTEX
8
MICR
10
0
20
0
30
0
70
128
71
914
72
915
73
-903
0
VERTEX
8
MICR
10
0
20
0
30
0
70
128
71
904
72
903
73
-915
0
VERTEX
8
MICR
10
0
20
0
30
0
70
128
71
915
72
916
73
-904
0
VERTEX
8
MICR
10
0
20
0
30
0
70
128
71
905
72
904
73
-916
0
VERTEX
8
MICR
10
0
20
0
30
0
70
128
71
916
72
917
73
-905
0
VERTEX
8
MICR
10
0
20
0
30
0
70
128
71
906
72
905
73
-917
0
VERTEX
8
MICR
10
0
20
0
30
0
70
128
71
917
72
918
73
-906
0
VERTEX
8
MICR
10
0
20
0
30
0
70
128
71
907
72
906
73
-918
0
VERTEX
8
MICR
10
0
20
0
30
0
70
128
71
918
72
919
73
-907
0
VERTEX
8
MICR
10
0
20
0
30
0
70
128
71
908
72
907
73
-919
0
VERTEX
8
MICR
10
0
20
0
30
0
70
128
71
919
72
920
73
-908
0
VERTEX
8
MICR
10
0
20
0
30
0
70
128
71
897
72
908
73
-920
0
VERTEX
8
MICR
10
0
20
0
30
0
70
128
71
920
72
909
73
-897
0
VERTEX
8
MICR
10
0
20
0
30
0
70
128
71
910
72
909
73
-921
0
VERTEX
8
MICR
10
0
20
0
30
0
70
128
71
921
72
922
73
-910
0
VERTEX
8
MICR
10
0
20
0
30
0
70
128
71
911
72
910
73
-922
0
VERTEX
8
MICR
10
0
20
0
30
0
70
128
71
922
72
923
73
-911
0
VERTEX
8
MICR
10
0
20
0
30
0
70
128
71
912
72
911
73
-923
0
VERTEX
8
MICR
10
0
20
0
30
0
70
128
71
923
72
924
73
-912
0
VERTEX
8
MICR
10
0
20
0
30
0
70
128
71
913
72
912
73
-924
0
VERTEX
8
MICR
10
0
20
0
30
0
70
128
71
924
72
925
73
-913
0
VERTEX
8
MICR
10
0
20
0
30
0
70
128
71
914
72
913
73
-925
0
VERTEX
8
MICR
10
0
20
0
30
0
70
128
71
925
72
926
73
-914
0
VERTEX
8
MICR
10
0
20
0
30
0
70
128
71
915
72
914
73
-926
0
VERTEX
8
MICR
10
0
20
0
30
0
70
128
71
926
72
927
73
-915
0
VERTEX
8
MICR
10
0
20
0
30
0
70
128
71
916
72
915
73
-927
0
VERTEX
8
MICR
10
0
20
0
30
0
70
128
71
927
72
928
73
-916
0
VERTEX
8
MICR
10
0
20
0
30
0
70
128
71
917
72
916
73
-928
0
VERTEX
8
MICR
10
0
20
0
30
0
70
128
71
928
72
929
73
-917
0
VERTEX
8
MICR
10
0
20
0
30
0
70
128
71
918
72
917
73
-929
0
VERTEX
8
MICR
10
0
20
0
30
0
70
128
71
929
72
930
73
-918
0
VERTEX
8
MICR
10
0
20
0
30
0
70
128
71
919
72
918
73
-930
0
VERTEX
8
MICR
10
0
20
0
30
0
70
128
71
930
72
931
73
-919
0
VERTEX
8
MICR
10
0
20
0
30
0
70
128
71
920
72
919
73
-931
0
VERTEX
8
MICR
10
0
20
0
30
0
70
128
71
931
72
932
73
-920
0
VERTEX
8
MICR
10
0
20
0
30
0
70
128
71
909
72
920
73
-932
0
VERTEX
8
MICR
10
0
20
0
30
0
70
128
71
932
72
921
73
-909
0
VERTEX
8
MICR
10
0
20
0
30
0
70
128
71
922
72
921
73
-933
0
VERTEX
8
MICR
10
0
20
0
30
0
70
128
71
933
72
934
73
-922
0
VERTEX
8
MICR
10
0
20
0
30
0
70
128
71
923
72
922
73
-934
0
VERTEX
8
MICR
10
0
20
0
30
0
70
128
71
934
72
935
73
-923
0
VERTEX
8
MICR
10
0
20
0
30
0
70
128
71
924
72
923
73
-935
0
VERTEX
8
MICR
10
0
20
0
30
0
70
128
71
935
72
936
73
-924
0
VERTEX
8
MICR
10
0
20
0
30
0
70
128
71
925
72
924
73
-936
0
VERTEX
8
MICR
10
0
20
0
30
0
70
128
71
936
72
937
73
-925
0
VERTEX
8
MICR
10
0
20
0
30
0
70
128
71
926
72
925
73
-937
0
VERTEX
8
MICR
10
0
20
0
30
0
70
128
71
937
72
938
73
-926
0
VERTEX
8
MICR
10
0
20
0
30
0
70
128
71
927
72
926
73
-938
0
VERTEX
8
MICR
10
0
20
0
30
0
70
128
71
938
72
939
73
-927
0
VERTEX
8
MICR
10
0
20
0
30
0
70
128
71
928
72
927
73
-939
0
VERTEX
8
MICR
10
0
20
0
30
0
70
128
71
939
72
940
73
-928
0
VERTEX
8
MICR
10
0
20
0
30
0
70
128
71
929
72
928
73
-940
0
VERTEX
8
MICR
10
0
20
0
30
0
70
128
71
940
72
941
73
-929
0
VERTEX
8
MICR
10
0
20
0
30
0
70
128
71
930
72
929
73
-941
0
VERTEX
8
MICR
10
0
20
0
30
0
70
128
71
941
72
942
73
-930
0
VERTEX
8
MICR
10
0
20
0
30
0
70
128
71
931
72
930
73
-942
0
VERTEX
8
MICR
10
0
20
0
30
0
70
128
71
942
72
943
73
-931
0
VERTEX
8
MICR
10
0
20
0
30
0
70
128
71
932
72
931
73
-943
0
VERTEX
8
MICR
10
0
20
0
30
0
70
128
71
943
72
944
73
-932
0
VERTEX
8
MICR
10
0
20
0
30
0
70
128
71
921
72
932
73
-944
0
VERTEX
8
MICR
10
0
20
0
30
0
70
128
71
944
72
933
73
-921
0
VERTEX
8
MICR
10
0
20
0
30
0
70
128
71
934
72
933
73
-945
0
VERTEX
8
MICR
10
0
20
0
30
0
70
128
71
945
72
946
73
-934
0
VERTEX
8
MICR
10
0
20
0
30
0
70
128
71
935
72
934
73
-946
0
VERTEX
8
MICR
10
0
20
0
30
0
70
128
71
946
72
947
73
-935
0
VERTEX
8
MICR
10
0
20
0
30
0
70
128
71
936
72
935
73
-947
0
VERTEX
8
MICR
10
0
20
0
30
0
70
128
71
947
72
948
73
-936
0
VERTEX
8
MICR
10
0
20
0
30
0
70
128
71
937
72
936
73
-948
0
VERTEX
8
MICR
10
0
20
0
30
0
70
128
71
948
72
949
73
-937
0
VERTEX
8
MICR
10
0
20
0
30
0
70
128
71
938
72
937
73
-949
0
VERTEX
8
MICR
10
0
20
0
30
0
70
128
71
949
72
950
73
-938
0
VERTEX
8
MICR
10
0
20
0
30
0
70
128
71
939
72
938
73
-950
0
VERTEX
8
MICR
10
0
20
0
30
0
70
128
71
950
72
951
73
-939
0
VERTEX
8
MICR
10
0
20
0
30
0
70
128
71
940
72
939
73
-951
0
VERTEX
8
MICR
10
0
20
0
30
0
70
128
71
951
72
952
73
-940
0
VERTEX
8
MICR
10
0
20
0
30
0
70
128
71
941
72
940
73
-952
0
VERTEX
8
MICR
10
0
20
0
30
0
70
128
71
952
72
953
73
-941
0
VERTEX
8
MICR
10
0
20
0
30
0
70
128
71
942
72
941
73
-953
0
VERTEX
8
MICR
10
0
20
0
30
0
70
128
71
953
72
954
73
-942
0
VERTEX
8
MICR
10
0
20
0
30
0
70
128
71
943
72
942
73
-954
0
VERTEX
8
MICR
10
0
20
0
30
0
70
128
71
954
72
955
73
-943
0
VERTEX
8
MICR
10
0
20
0
30
0
70
128
71
944
72
943
73
-955
0
VERTEX
8
MICR
10
0
20
0
30
0
70
128
71
955
72
956
73
-944
0
VERTEX
8
MICR
10
0
20
0
30
0
70
128
71
933
72
944
73
-956
0
VERTEX
8
MICR
10
0
20
0
30
0
70
128
71
956
72
945
73
-933
0
VERTEX
8
MICR
10
0
20
0
30
0
70
128
71
946
72
945
73
-957
0
VERTEX
8
MICR
10
0
20
0
30
0
70
128
71
957
72
958
73
-946
0
VERTEX
8
MICR
10
0
20
0
30
0
70
128
71
947
72
946
73
-958
0
VERTEX
8
MICR
10
0
20
0
30
0
70
128
71
958
72
959
73
-947
0
VERTEX
8
MICR
10
0
20
0
30
0
70
128
71
948
72
947
73
-959
0
VERTEX
8
MICR
10
0
20
0
30
0
70
128
71
959
72
960
73
-948
0
VERTEX
8
MICR
10
0
20
0
30
0
70
128
71
949
72
948
73
-960
0
VERTEX
8
MICR
10
0
20
0
30
0
70
128
71
960
72
961
73
-949
0
VERTEX
8
MICR
10
0
20
0
30
0
70
128
71
950
72
949
73
-961
0
VERTEX
8
MICR
10
0
20
0
30
0
70
128
71
961
72
962
73
-950
0
VERTEX
8
MICR
10
0
20
0
30
0
70
128
71
951
72
950
73
-962
0
VERTEX
8
MICR
10
0
20
0
30
0
70
128
71
962
72
963
73
-951
0
VERTEX
8
MICR
10
0
20
0
30
0
70
128
71
952
72
951
73
-963
0
VERTEX
8
MICR
10
0
20
0
30
0
70
128
71
963
72
964
73
-952
0
VERTEX
8
MICR
10
0
20
0
30
0
70
128
71
953
72
952
73
-964
0
VERTEX
8
MICR
10
0
20
0
30
0
70
128
71
964
72
965
73
-953
0
VERTEX
8
MICR
10
0
20
0
30
0
70
128
71
954
72
953
73
-965
0
VERTEX
8
MICR
10
0
20
0
30
0
70
128
71
965
72
966
73
-954
0
VERTEX
8
MICR
10
0
20
0
30
0
70
128
71
955
72
954
73
-966
0
VERTEX
8
MICR
10
0
20
0
30
0
70
128
71
966
72
967
73
-955
0
VERTEX
8
MICR
10
0
20
0
30
0
70
128
71
956
72
955
73
-967
0
VERTEX
8
MICR
10
0
20
0
30
0
70
128
71
967
72
968
73
-956
0
VERTEX
8
MICR
10
0
20
0
30
0
70
128
71
945
72
956
73
-968
0
VERTEX
8
MICR
10
0
20
0
30
0
70
128
71
968
72
957
73
-945
0
VERTEX
8
MICR
10
0
20
0
30
0
70
128
71
958
72
957
73
-969
0
VERTEX
8
MICR
10
0
20
0
30
0
70
128
71
969
72
970
73
-958
0
VERTEX
8
MICR
10
0
20
0
30
0
70
128
71
959
72
958
73
-970
0
VERTEX
8
MICR
10
0
20
0
30
0
70
128
71
970
72
971
73
-959
0
VERTEX
8
MICR
10
0
20
0
30
0
70
128
71
960
72
959
73
-971
0
VERTEX
8
MICR
10
0
20
0
30
0
70
128
71
971
72
972
73
-960
0
VERTEX
8
MICR
10
0
20
0
30
0
70
128
71
961
72
960
73
-972
0
VERTEX
8
MICR
10
0
20
0
30
0
70
128
71
972
72
973
73
-961
0
VERTEX
8
MICR
10
0
20
0
30
0
70
128
71
962
72
961
73
-973
0
VERTEX
8
MICR
10
0
20
0
30
0
70
128
71
973
72
974
73
-962
0
VERTEX
8
MICR
10
0
20
0
30
0
70
128
71
963
72
962
73
-974
0
VERTEX
8
MICR
10
0
20
0
30
0
70
128
71
974
72
975
73
-963
0
VERTEX
8
MICR
10
0
20
0
30
0
70
128
71
964
72
963
73
-975
0
VERTEX
8
MICR
10
0
20
0
30
0
70
128
71
975
72
976
73
-964
0
VERTEX
8
MICR
10
0
20
0
30
0
70
128
71
965
72
964
73
-976
0
VERTEX
8
MICR
10
0
20
0
30
0
70
128
71
976
72
977
73
-965
0
VERTEX
8
MICR
10
0
20
0
30
0
70
128
71
966
72
965
73
-977
0
VERTEX
8
MICR
10
0
20
0
30
0
70
128
71
977
72
978
73
-966
0
VERTEX
8
MICR
10
0
20
0
30
0
70
128
71
967
72
966
73
-978
0
VERTEX
8
MICR
10
0
20
0
30
0
70
128
71
978
72
979
73
-967
0
VERTEX
8
MICR
10
0
20
0
30
0
70
128
71
968
72
967
73
-979
0
VERTEX
8
MICR
10
0
20
0
30
0
70
128
71
979
72
980
73
-968
0
VERTEX
8
MICR
10
0
20
0
30
0
70
128
71
957
72
968
73
-980
0
VERTEX
8
MICR
10
0
20
0
30
0
70
128
71
980
72
969
73
-957
0
VERTEX
8
MICR
10
0
20
0
30
0
70
128
71
970
72
969
73
-981
0
VERTEX
8
MICR
10
0
20
0
30
0
70
128
71
981
72
982
73
-970
0
VERTEX
8
MICR
10
0
20
0
30
0
70
128
71
971
72
970
73
-982
0
VERTEX
8
MICR
10
0
20
0
30
0
70
128
71
982
72
983
73
-971
0
VERTEX
8
MICR
10
0
20
0
30
0
70
128
71
972
72
971
73
-983
0
VERTEX
8
MICR
10
0
20
0
30
0
70
128
71
983
72
984
73
-972
0
VERTEX
8
MICR
10
0
20
0
30
0
70
128
71
973
72
972
73
-984
0
VERTEX
8
MICR
10
0
20
0
30
0
70
128
71
984
72
985
73
-973
0
VERTEX
8
MICR
10
0
20
0
30
0
70
128
71
974
72
973
73
-985
0
VERTEX
8
MICR
10
0
20
0
30
0
70
128
71
985
72
986
73
-974
0
VERTEX
8
MICR
10
0
20
0
30
0
70
128
71
975
72
974
73
-986
0
VERTEX
8
MICR
10
0
20
0
30
0
70
128
71
986
72
987
73
-975
0
VERTEX
8
MICR
10
0
20
0
30
0
70
128
71
976
72
975
73
-987
0
VERTEX
8
MICR
10
0
20
0
30
0
70
128
71
987
72
988
73
-976
0
VERTEX
8
MICR
10
0
20
0
30
0
70
128
71
977
72
976
73
-988
0
VERTEX
8
MICR
10
0
20
0
30
0
70
128
71
988
72
989
73
-977
0
VERTEX
8
MICR
10
0
20
0
30
0
70
128
71
978
72
977
73
-989
0
VERTEX
8
MICR
10
0
20
0
30
0
70
128
71
989
72
990
73
-978
0
VERTEX
8
MICR
10
0
20
0
30
0
70
128
71
979
72
978
73
-990
0
VERTEX
8
MICR
10
0
20
0
30
0
70
128
71
990
72
991
73
-979
0
VERTEX
8
MICR
10
0
20
0
30
0
70
128
71
980
72
979
73
-991
0
VERTEX
8
MICR
10
0
20
0
30
0
70
128
71
991
72
992
73
-980
0
VERTEX
8
MICR
10
0
20
0
30
0
70
128
71
969
72
980
73
-992
0
VERTEX
8
MICR
10
0
20
0
30
0
70
128
71
992
72
981
73
-969
0
VERTEX
8
MICR
10
0
20
0
30
0
70
128
71
982
72
981
73
-993
0
VERTEX
8
MICR
10
0
20
0
30
0
70
128
71
993
72
994
73
-982
0
VERTEX
8
MICR
10
0
20
0
30
0
70
128
71
983
72
982
73
-994
0
VERTEX
8
MICR
10
0
20
0
30
0
70
128
71
994
72
995
73
-983
0
VERTEX
8
MICR
10
0
20
0
30
0
70
128
71
984
72
983
73
-995
0
VERTEX
8
MICR
10
0
20
0
30
0
70
128
71
995
72
996
73
-984
0
VERTEX
8
MICR
10
0
20
0
30
0
70
128
71
985
72
984
73
-996
0
VERTEX
8
MICR
10
0
20
0
30
0
70
128
71
996
72
997
73
-985
0
VERTEX
8
MICR
10
0
20
0
30
0
70
128
71
986
72
985
73
-997
0
VERTEX
8
MICR
10
0
20
0
30
0
70
128
71
997
72
998
73
-986
0
VERTEX
8
MICR
10
0
20
0
30
0
70
128
71
987
72
986
73
-998
0
VERTEX
8
MICR
10
0
20
0
30
0
70
128
71
998
72
999
73
-987
0
VERTEX
8
MICR
10
0
20
0
30
0
70
128
71
988
72
987
73
-999
0
VERTEX
8
MICR
10
0
20
0
30
0
70
128
71
999
72
1000
73
-988
0
VERTEX
8
MICR
10
0
20
0
30
0
70
128
71
989
72
988
73
-1000
0
VERTEX
8
MICR
10
0
20
0
30
0
70
128
71
1000
72
1001
73
-989
0
VERTEX
8
MICR
10
0
20
0
30
0
70
128
71
990
72
989
73
-1001
0
VERTEX
8
MICR
10
0
20
0
30
0
70
128
71
1001
72
1002
73
-990
0
VERTEX
8
MICR
10
0
20
0
30
0
70
128
71
991
72
990
73
-1002
0
VERTEX
8
MICR
10
0
20
0
30
0
70
128
71
1002
72
1003
73
-991
0
VERTEX
8
MICR
10
0
20
0
30
0
70
128
71
992
72
991
73
-1003
0
VERTEX
8
MICR
10
0
20
0
30
0
70
128
71
1003
72
1004
73
-992
0
VERTEX
8
MICR
10
0
20
0
30
0
70
128
71
981
72
992
73
-1004
0
VERTEX
8
MICR
10
0
20
0
30
0
70
128
71
1004
72
993
73
-981
0
VERTEX
8
MICR
10
0
20
0
30
0
70
128
71
994
72
993
73
-1005
0
VERTEX
8
MICR
10
0
20
0
30
0
70
128
71
1005
72
1006
73
-994
0
VERTEX
8
MICR
10
0
20
0
30
0
70
128
71
995
72
994
73
-1006
0
VERTEX
8
MICR
10
0
20
0
30
0
70
128
71
1006
72
1007
73
-995
0
VERTEX
8
MICR
10
0
20
0
30
0
70
128
71
996
72
995
73
-1007
0
VERTEX
8
MICR
10
0
20
0
30
0
70
128
71
1007
72
1008
73
-996
0
VERTEX
8
MICR
10
0
20
0
30
0
70
128
71
997
72
996
73
-1008
0
VERTEX
8
MICR
10
0
20
0
30
0
70
128
71
1008
72
1009
73
-997
0
VERTEX
8
MICR
10
0
20
0
30
0
70
128
71
998
72
997
73
-1009
0
VERTEX
8
MICR
10
0
20
0
30
0
70
128
71
1009
72
1010
73
-998
0
VERTEX
8
MICR
10
0
20
0
30
0
70
128
71
999
72
998
73
-1010
0
VERTEX
8
MICR
10
0
20
0
30
0
70
128
71
1010
72
1011
73
-999
0
VERTEX
8
MICR
10
0
20
0
30
0
70
128
71
1000
72
999
73
-1011
0
VERTEX
8
MICR
10
0
20
0
30
0
70
128
71
1011
72
1012
73
-1000
0
VERTEX
8
MICR
10
0
20
0
30
0
70
128
71
1001
72
1000
73
-1012
0
VERTEX
8
MICR
10
0
20
0
30
0
70
128
71
1012
72
1013
73
-1001
0
VERTEX
8
MICR
10
0
20
0
30
0
70
128
71
1002
72
1001
73
-1013
0
VERTEX
8
MICR
10
0
20
0
30
0
70
128
71
1013
72
1014
73
-1002
0
VERTEX
8
MICR
10
0
20
0
30
0
70
128
71
1003
72
1002
73
-1014
0
VERTEX
8
MICR
10
0
20
0
30
0
70
128
71
1014
72
1015
73
-1003
0
VERTEX
8
MICR
10
0
20
0
30
0
70
128
71
1004
72
1003
73
-1015
0
VERTEX
8
MICR
10
0
20
0
30
0
70
128
71
1015
72
1016
73
-1004
0
VERTEX
8
MICR
10
0
20
0
30
0
70
128
71
993
72
1004
73
-1016
0
VERTEX
8
MICR
10
0
20
0
30
0
70
128
71
1016
72
1005
73
-993
0
VERTEX
8
MICR
10
0
20
0
30
0
70
128
71
1006
72
1005
73
-1017
0
VERTEX
8
MICR
10
0
20
0
30
0
70
128
71
1017
72
1018
73
-1006
0
VERTEX
8
MICR
10
0
20
0
30
0
70
128
71
1007
72
1006
73
-1018
0
VERTEX
8
MICR
10
0
20
0
30
0
70
128
71
1018
72
1019
73
-1007
0
VERTEX
8
MICR
10
0
20
0
30
0
70
128
71
1008
72
1007
73
-1019
0
VERTEX
8
MICR
10
0
20
0
30
0
70
128
71
1019
72
1020
73
-1008
0
VERTEX
8
MICR
10
0
20
0
30
0
70
128
71
1009
72
1008
73
-1020
0
VERTEX
8
MICR
10
0
20
0
30
0
70
128
71
1020
72
1021
73
-1009
0
VERTEX
8
MICR
10
0
20
0
30
0
70
128
71
1010
72
1009
73
-1021
0
VERTEX
8
MICR
10
0
20
0
30
0
70
128
71
1021
72
1022
73
-1010
0
VERTEX
8
MICR
10
0
20
0
30
0
70
128
71
1011
72
1010
73
-1022
0
VERTEX
8
MICR
10
0
20
0
30
0
70
128
71
1022
72
1023
73
-1011
0
VERTEX
8
MICR
10
0
20
0
30
0
70
128
71
1012
72
1011
73
-1023
0
VERTEX
8
MICR
10
0
20
0
30
0
70
128
71
1023
72
1024
73
-1012
0
VERTEX
8
MICR
10
0
20
0
30
0
70
128
71
1013
72
1012
73
-1024
0
VERTEX
8
MICR
10
0
20
0
30
0
70
128
71
1024
72
1025
73
-1013
0
VERTEX
8
MICR
10
0
20
0
30
0
70
128
71
1014
72
1013
73
-1025
0
VERTEX
8
MICR
10
0
20
0
30
0
70
128
71
1025
72
1026
73
-1014
0
VERTEX
8
MICR
10
0
20
0
30
0
70
128
71
1015
72
1014
73
-1026
0
VERTEX
8
MICR
10
0
20
0
30
0
70
128
71
1026
72
1027
73
-1015
0
VERTEX
8
MICR
10
0
20
0
30
0
70
128
71
1016
72
1015
73
-1027
0
VERTEX
8
MICR
10
0
20
0
30
0
70
128
71
1027
72
1028
73
-1016
0
VERTEX
8
MICR
10
0
20
0
30
0
70
128
71
1005
72
1016
73
-1028
0
VERTEX
8
MICR
10
0
20
0
30
0
70
128
71
1028
72
1017
73
-1005
0
VERTEX
8
MICR
10
0
20
0
30
0
70
128
71
1029
72
1030
73
-1042
0
VERTEX
8
MICR
10
0
20
0
30
0
70
128
71
-1029
72
1042
73
1041
0
VERTEX
8
MICR
10
0
20
0
30
0
70
128
71
1030
72
1031
73
-1043
0
VERTEX
8
MICR
10
0
20
0
30
0
70
128
71
-1030
72
1043
73
1042
0
VERTEX
8
MICR
10
0
20
0
30
0
70
128
71
1031
72
1032
73
-1044
0
VERTEX
8
MICR
10
0
20
0
30
0
70
128
71
-1031
72
1044
73
1043
0
VERTEX
8
MICR
10
0
20
0
30
0
70
128
71
1032
72
1033
73
-1045
0
VERTEX
8
MICR
10
0
20
0
30
0
70
128
71
-1032
72
1045
73
1044
0
VERTEX
8
MICR
10
0
20
0
30
0
70
128
71
1033
72
1034
73
-1046
0
VERTEX
8
MICR
10
0
20
0
30
0
70
128
71
-1033
72
1046
73
1045
0
VERTEX
8
MICR
10
0
20
0
30
0
70
128
71
1034
72
1035
73
-1047
0
VERTEX
8
MICR
10
0
20
0
30
0
70
128
71
-1034
72
1047
73
1046
0
VERTEX
8
MICR
10
0
20
0
30
0
70
128
71
1035
72
1036
73
-1048
0
VERTEX
8
MICR
10
0
20
0
30
0
70
128
71
-1035
72
1048
73
1047
0
VERTEX
8
MICR
10
0
20
0
30
0
70
128
71
1036
72
1037
73
-1049
0
VERTEX
8
MICR
10
0
20
0
30
0
70
128
71
-1036
72
1049
73
1048
0
VERTEX
8
MICR
10
0
20
0
30
0
70
128
71
1037
72
1038
73
-1050
0
VERTEX
8
MICR
10
0
20
0
30
0
70
128
71
-1037
72
1050
73
1049
0
VERTEX
8
MICR
10
0
20
0
30
0
70
128
71
1038
72
1039
73
-1051
0
VERTEX
8
MICR
10
0
20
0
30
0
70
128
71
-1038
72
1051
73
1050
0
VERTEX
8
MICR
10
0
20
0
30
0
70
128
71
1039
72
1040
73
-1052
0
VERTEX
8
MICR
10
0
20
0
30
0
70
128
71
-1039
72
1052
73
1051
0
VERTEX
8
MICR
10
0
20
0
30
0
70
128
71
1040
72
1029
73
-1041
0
VERTEX
8
MICR
10
0
20
0
30
0
70
128
71
-1040
72
1041
73
1052
0
VERTEX
8
MICR
10
0
20
0
30
0
70
128
71
1030
72
-1029
73
-1054
0
VERTEX
8
MICR
10
0
20
0
30
0
70
128
71
1031
72
-1030
73
-1054
0
VERTEX
8
MICR
10
0
20
0
30
0
70
128
71
1032
72
-1031
73
-1054
0
VERTEX
8
MICR
10
0
20
0
30
0
70
128
71
1033
72
-1032
73
-1054
0
VERTEX
8
MICR
10
0
20
0
30
0
70
128
71
1034
72
-1033
73
-1054
0
VERTEX
8
MICR
10
0
20
0
30
0
70
128
71
1035
72
-1034
73
-1054
0
VERTEX
8
MICR
10
0
20
0
30
0
70
128
71
1036
72
-1035
73
-1054
0
VERTEX
8
MICR
10
0
20
0
30
0
70
128
71
1037
72
-1036
73
-1054
0
VERTEX
8
MICR
10
0
20
0
30
0
70
128
71
1038
72
-1037
73
-1054
0
VERTEX
8
MICR
10
0
20
0
30
0
70
128
71
1039
72
-1038
73
-1054
0
VERTEX
8
MICR
10
0
20
0
30
0
70
128
71
1040
72
-1039
73
-1054
0
VERTEX
8
MICR
10
0
20
0
30
0
70
128
71
1029
72
-1040
73
-1054
0
VERTEX
8
MICR
10
0
20
0
30
0
70
128
71
1041
72
-1042
73
-1053
0
VERTEX
8
MICR
10
0
20
0
30
0
70
128
71
1042
72
-1043
73
-1053
0
VERTEX
8
MICR
10
0
20
0
30
0
70
128
71
1043
72
-1044
73
-1053
0
VERTEX
8
MICR
10
0
20
0
30
0
70
128
71
1044
72
-1045
73
-1053
0
VERTEX
8
MICR
10
0
20
0
30
0
70
128
71
1045
72
-1046
73
-1053
0
VERTEX
8
MICR
10
0
20
0
30
0
70
128
71
1046
72
-1047
73
-1053
0
VERTEX
8
MICR
10
0
20
0
30
0
70
128
71
1047
72
-1048
73
-1053
0
VERTEX
8
MICR
10
0
20
0
30
0
70
128
71
1048
72
-1049
73
-1053
0
VERTEX
8
MICR
10
0
20
0
30
0
70
128
71
1049
72
-1050
73
-1053
0
VERTEX
8
MICR
10
0
20
0
30
0
70
128
71
1050
72
-1051
73
-1053
0
VERTEX
8
MICR
10
0
20
0
30
0
70
128
71
1051
72
-1052
73
-1053
0
VERTEX
8
MICR
10
0
20
0
30
0
70
128
71
1052
72
-1041
73
-1053
0
SEQEND
8
MICR
0
ENDSEC
0
EOF
